G04 #@! TF.GenerationSoftware,KiCad,Pcbnew,8.0.7*
G04 #@! TF.CreationDate,2025-02-05T20:28:53-06:00*
G04 #@! TF.ProjectId,midiori,6d696469-6f72-4692-9e6b-696361645f70,rev?*
G04 #@! TF.SameCoordinates,Original*
G04 #@! TF.FileFunction,Legend,Bot*
G04 #@! TF.FilePolarity,Positive*
%FSLAX46Y46*%
G04 Gerber Fmt 4.6, Leading zero omitted, Abs format (unit mm)*
G04 Created by KiCad (PCBNEW 8.0.7) date 2025-02-05 20:28:53*
%MOMM*%
%LPD*%
G01*
G04 APERTURE LIST*
%ADD10C,0.150000*%
%ADD11C,0.120000*%
G04 APERTURE END LIST*
D10*
X137019411Y-95217438D02*
X137114649Y-95169819D01*
X137114649Y-95169819D02*
X137257506Y-95169819D01*
X137257506Y-95169819D02*
X137400363Y-95217438D01*
X137400363Y-95217438D02*
X137495601Y-95312676D01*
X137495601Y-95312676D02*
X137543220Y-95407914D01*
X137543220Y-95407914D02*
X137590839Y-95598390D01*
X137590839Y-95598390D02*
X137590839Y-95741247D01*
X137590839Y-95741247D02*
X137543220Y-95931723D01*
X137543220Y-95931723D02*
X137495601Y-96026961D01*
X137495601Y-96026961D02*
X137400363Y-96122200D01*
X137400363Y-96122200D02*
X137257506Y-96169819D01*
X137257506Y-96169819D02*
X137162268Y-96169819D01*
X137162268Y-96169819D02*
X137019411Y-96122200D01*
X137019411Y-96122200D02*
X136971792Y-96074580D01*
X136971792Y-96074580D02*
X136971792Y-95741247D01*
X136971792Y-95741247D02*
X137162268Y-95741247D01*
X136543220Y-96169819D02*
X136543220Y-95169819D01*
X136543220Y-95169819D02*
X135971792Y-96169819D01*
X135971792Y-96169819D02*
X135971792Y-95169819D01*
X135495601Y-96169819D02*
X135495601Y-95169819D01*
X135495601Y-95169819D02*
X135257506Y-95169819D01*
X135257506Y-95169819D02*
X135114649Y-95217438D01*
X135114649Y-95217438D02*
X135019411Y-95312676D01*
X135019411Y-95312676D02*
X134971792Y-95407914D01*
X134971792Y-95407914D02*
X134924173Y-95598390D01*
X134924173Y-95598390D02*
X134924173Y-95741247D01*
X134924173Y-95741247D02*
X134971792Y-95931723D01*
X134971792Y-95931723D02*
X135019411Y-96026961D01*
X135019411Y-96026961D02*
X135114649Y-96122200D01*
X135114649Y-96122200D02*
X135257506Y-96169819D01*
X135257506Y-96169819D02*
X135495601Y-96169819D01*
X133501792Y-96219819D02*
X133835125Y-95743628D01*
X134073220Y-96219819D02*
X134073220Y-95219819D01*
X134073220Y-95219819D02*
X133692268Y-95219819D01*
X133692268Y-95219819D02*
X133597030Y-95267438D01*
X133597030Y-95267438D02*
X133549411Y-95315057D01*
X133549411Y-95315057D02*
X133501792Y-95410295D01*
X133501792Y-95410295D02*
X133501792Y-95553152D01*
X133501792Y-95553152D02*
X133549411Y-95648390D01*
X133549411Y-95648390D02*
X133597030Y-95696009D01*
X133597030Y-95696009D02*
X133692268Y-95743628D01*
X133692268Y-95743628D02*
X134073220Y-95743628D01*
X138627030Y-96199819D02*
X139103220Y-96199819D01*
X139103220Y-96199819D02*
X139103220Y-95199819D01*
X116960357Y-97779580D02*
X117007976Y-97827200D01*
X117007976Y-97827200D02*
X117150833Y-97874819D01*
X117150833Y-97874819D02*
X117246071Y-97874819D01*
X117246071Y-97874819D02*
X117388928Y-97827200D01*
X117388928Y-97827200D02*
X117484166Y-97731961D01*
X117484166Y-97731961D02*
X117531785Y-97636723D01*
X117531785Y-97636723D02*
X117579404Y-97446247D01*
X117579404Y-97446247D02*
X117579404Y-97303390D01*
X117579404Y-97303390D02*
X117531785Y-97112914D01*
X117531785Y-97112914D02*
X117484166Y-97017676D01*
X117484166Y-97017676D02*
X117388928Y-96922438D01*
X117388928Y-96922438D02*
X117246071Y-96874819D01*
X117246071Y-96874819D02*
X117150833Y-96874819D01*
X117150833Y-96874819D02*
X117007976Y-96922438D01*
X117007976Y-96922438D02*
X116960357Y-96970057D01*
X116627023Y-96874819D02*
X116007976Y-96874819D01*
X116007976Y-96874819D02*
X116341309Y-97255771D01*
X116341309Y-97255771D02*
X116198452Y-97255771D01*
X116198452Y-97255771D02*
X116103214Y-97303390D01*
X116103214Y-97303390D02*
X116055595Y-97351009D01*
X116055595Y-97351009D02*
X116007976Y-97446247D01*
X116007976Y-97446247D02*
X116007976Y-97684342D01*
X116007976Y-97684342D02*
X116055595Y-97779580D01*
X116055595Y-97779580D02*
X116103214Y-97827200D01*
X116103214Y-97827200D02*
X116198452Y-97874819D01*
X116198452Y-97874819D02*
X116484166Y-97874819D01*
X116484166Y-97874819D02*
X116579404Y-97827200D01*
X116579404Y-97827200D02*
X116627023Y-97779580D01*
X115150833Y-97208152D02*
X115150833Y-97874819D01*
X115388928Y-96827200D02*
X115627023Y-97541485D01*
X115627023Y-97541485D02*
X115007976Y-97541485D01*
X139404819Y-88857142D02*
X138928628Y-88523809D01*
X139404819Y-88285714D02*
X138404819Y-88285714D01*
X138404819Y-88285714D02*
X138404819Y-88666666D01*
X138404819Y-88666666D02*
X138452438Y-88761904D01*
X138452438Y-88761904D02*
X138500057Y-88809523D01*
X138500057Y-88809523D02*
X138595295Y-88857142D01*
X138595295Y-88857142D02*
X138738152Y-88857142D01*
X138738152Y-88857142D02*
X138833390Y-88809523D01*
X138833390Y-88809523D02*
X138881009Y-88761904D01*
X138881009Y-88761904D02*
X138928628Y-88666666D01*
X138928628Y-88666666D02*
X138928628Y-88285714D01*
X139404819Y-89809523D02*
X139404819Y-89238095D01*
X139404819Y-89523809D02*
X138404819Y-89523809D01*
X138404819Y-89523809D02*
X138547676Y-89428571D01*
X138547676Y-89428571D02*
X138642914Y-89333333D01*
X138642914Y-89333333D02*
X138690533Y-89238095D01*
X138500057Y-90190476D02*
X138452438Y-90238095D01*
X138452438Y-90238095D02*
X138404819Y-90333333D01*
X138404819Y-90333333D02*
X138404819Y-90571428D01*
X138404819Y-90571428D02*
X138452438Y-90666666D01*
X138452438Y-90666666D02*
X138500057Y-90714285D01*
X138500057Y-90714285D02*
X138595295Y-90761904D01*
X138595295Y-90761904D02*
X138690533Y-90761904D01*
X138690533Y-90761904D02*
X138833390Y-90714285D01*
X138833390Y-90714285D02*
X139404819Y-90142857D01*
X139404819Y-90142857D02*
X139404819Y-90761904D01*
X131044819Y-101785476D02*
X131759104Y-101785476D01*
X131759104Y-101785476D02*
X131901961Y-101737857D01*
X131901961Y-101737857D02*
X131997200Y-101642619D01*
X131997200Y-101642619D02*
X132044819Y-101499762D01*
X132044819Y-101499762D02*
X132044819Y-101404524D01*
X132044819Y-102785476D02*
X132044819Y-102214048D01*
X132044819Y-102499762D02*
X131044819Y-102499762D01*
X131044819Y-102499762D02*
X131187676Y-102404524D01*
X131187676Y-102404524D02*
X131282914Y-102309286D01*
X131282914Y-102309286D02*
X131330533Y-102214048D01*
X131140057Y-103166429D02*
X131092438Y-103214048D01*
X131092438Y-103214048D02*
X131044819Y-103309286D01*
X131044819Y-103309286D02*
X131044819Y-103547381D01*
X131044819Y-103547381D02*
X131092438Y-103642619D01*
X131092438Y-103642619D02*
X131140057Y-103690238D01*
X131140057Y-103690238D02*
X131235295Y-103737857D01*
X131235295Y-103737857D02*
X131330533Y-103737857D01*
X131330533Y-103737857D02*
X131473390Y-103690238D01*
X131473390Y-103690238D02*
X132044819Y-103118810D01*
X132044819Y-103118810D02*
X132044819Y-103737857D01*
X137259580Y-88877142D02*
X137307200Y-88829523D01*
X137307200Y-88829523D02*
X137354819Y-88686666D01*
X137354819Y-88686666D02*
X137354819Y-88591428D01*
X137354819Y-88591428D02*
X137307200Y-88448571D01*
X137307200Y-88448571D02*
X137211961Y-88353333D01*
X137211961Y-88353333D02*
X137116723Y-88305714D01*
X137116723Y-88305714D02*
X136926247Y-88258095D01*
X136926247Y-88258095D02*
X136783390Y-88258095D01*
X136783390Y-88258095D02*
X136592914Y-88305714D01*
X136592914Y-88305714D02*
X136497676Y-88353333D01*
X136497676Y-88353333D02*
X136402438Y-88448571D01*
X136402438Y-88448571D02*
X136354819Y-88591428D01*
X136354819Y-88591428D02*
X136354819Y-88686666D01*
X136354819Y-88686666D02*
X136402438Y-88829523D01*
X136402438Y-88829523D02*
X136450057Y-88877142D01*
X136354819Y-89210476D02*
X136354819Y-89829523D01*
X136354819Y-89829523D02*
X136735771Y-89496190D01*
X136735771Y-89496190D02*
X136735771Y-89639047D01*
X136735771Y-89639047D02*
X136783390Y-89734285D01*
X136783390Y-89734285D02*
X136831009Y-89781904D01*
X136831009Y-89781904D02*
X136926247Y-89829523D01*
X136926247Y-89829523D02*
X137164342Y-89829523D01*
X137164342Y-89829523D02*
X137259580Y-89781904D01*
X137259580Y-89781904D02*
X137307200Y-89734285D01*
X137307200Y-89734285D02*
X137354819Y-89639047D01*
X137354819Y-89639047D02*
X137354819Y-89353333D01*
X137354819Y-89353333D02*
X137307200Y-89258095D01*
X137307200Y-89258095D02*
X137259580Y-89210476D01*
X136354819Y-90734285D02*
X136354819Y-90258095D01*
X136354819Y-90258095D02*
X136831009Y-90210476D01*
X136831009Y-90210476D02*
X136783390Y-90258095D01*
X136783390Y-90258095D02*
X136735771Y-90353333D01*
X136735771Y-90353333D02*
X136735771Y-90591428D01*
X136735771Y-90591428D02*
X136783390Y-90686666D01*
X136783390Y-90686666D02*
X136831009Y-90734285D01*
X136831009Y-90734285D02*
X136926247Y-90781904D01*
X136926247Y-90781904D02*
X137164342Y-90781904D01*
X137164342Y-90781904D02*
X137259580Y-90734285D01*
X137259580Y-90734285D02*
X137307200Y-90686666D01*
X137307200Y-90686666D02*
X137354819Y-90591428D01*
X137354819Y-90591428D02*
X137354819Y-90353333D01*
X137354819Y-90353333D02*
X137307200Y-90258095D01*
X137307200Y-90258095D02*
X137259580Y-90210476D01*
X135269580Y-88877142D02*
X135317200Y-88829523D01*
X135317200Y-88829523D02*
X135364819Y-88686666D01*
X135364819Y-88686666D02*
X135364819Y-88591428D01*
X135364819Y-88591428D02*
X135317200Y-88448571D01*
X135317200Y-88448571D02*
X135221961Y-88353333D01*
X135221961Y-88353333D02*
X135126723Y-88305714D01*
X135126723Y-88305714D02*
X134936247Y-88258095D01*
X134936247Y-88258095D02*
X134793390Y-88258095D01*
X134793390Y-88258095D02*
X134602914Y-88305714D01*
X134602914Y-88305714D02*
X134507676Y-88353333D01*
X134507676Y-88353333D02*
X134412438Y-88448571D01*
X134412438Y-88448571D02*
X134364819Y-88591428D01*
X134364819Y-88591428D02*
X134364819Y-88686666D01*
X134364819Y-88686666D02*
X134412438Y-88829523D01*
X134412438Y-88829523D02*
X134460057Y-88877142D01*
X134364819Y-89210476D02*
X134364819Y-89829523D01*
X134364819Y-89829523D02*
X134745771Y-89496190D01*
X134745771Y-89496190D02*
X134745771Y-89639047D01*
X134745771Y-89639047D02*
X134793390Y-89734285D01*
X134793390Y-89734285D02*
X134841009Y-89781904D01*
X134841009Y-89781904D02*
X134936247Y-89829523D01*
X134936247Y-89829523D02*
X135174342Y-89829523D01*
X135174342Y-89829523D02*
X135269580Y-89781904D01*
X135269580Y-89781904D02*
X135317200Y-89734285D01*
X135317200Y-89734285D02*
X135364819Y-89639047D01*
X135364819Y-89639047D02*
X135364819Y-89353333D01*
X135364819Y-89353333D02*
X135317200Y-89258095D01*
X135317200Y-89258095D02*
X135269580Y-89210476D01*
X134364819Y-90686666D02*
X134364819Y-90496190D01*
X134364819Y-90496190D02*
X134412438Y-90400952D01*
X134412438Y-90400952D02*
X134460057Y-90353333D01*
X134460057Y-90353333D02*
X134602914Y-90258095D01*
X134602914Y-90258095D02*
X134793390Y-90210476D01*
X134793390Y-90210476D02*
X135174342Y-90210476D01*
X135174342Y-90210476D02*
X135269580Y-90258095D01*
X135269580Y-90258095D02*
X135317200Y-90305714D01*
X135317200Y-90305714D02*
X135364819Y-90400952D01*
X135364819Y-90400952D02*
X135364819Y-90591428D01*
X135364819Y-90591428D02*
X135317200Y-90686666D01*
X135317200Y-90686666D02*
X135269580Y-90734285D01*
X135269580Y-90734285D02*
X135174342Y-90781904D01*
X135174342Y-90781904D02*
X134936247Y-90781904D01*
X134936247Y-90781904D02*
X134841009Y-90734285D01*
X134841009Y-90734285D02*
X134793390Y-90686666D01*
X134793390Y-90686666D02*
X134745771Y-90591428D01*
X134745771Y-90591428D02*
X134745771Y-90400952D01*
X134745771Y-90400952D02*
X134793390Y-90305714D01*
X134793390Y-90305714D02*
X134841009Y-90258095D01*
X134841009Y-90258095D02*
X134936247Y-90210476D01*
X109912180Y-76529030D02*
X109912180Y-77005220D01*
X109912180Y-77005220D02*
X110912180Y-77005220D01*
X109912180Y-81513792D02*
X110388371Y-81847125D01*
X109912180Y-82085220D02*
X110912180Y-82085220D01*
X110912180Y-82085220D02*
X110912180Y-81704268D01*
X110912180Y-81704268D02*
X110864561Y-81609030D01*
X110864561Y-81609030D02*
X110816942Y-81561411D01*
X110816942Y-81561411D02*
X110721704Y-81513792D01*
X110721704Y-81513792D02*
X110578847Y-81513792D01*
X110578847Y-81513792D02*
X110483609Y-81561411D01*
X110483609Y-81561411D02*
X110435990Y-81609030D01*
X110435990Y-81609030D02*
X110388371Y-81704268D01*
X110388371Y-81704268D02*
X110388371Y-82085220D01*
X133434819Y-88897142D02*
X132958628Y-88563809D01*
X133434819Y-88325714D02*
X132434819Y-88325714D01*
X132434819Y-88325714D02*
X132434819Y-88706666D01*
X132434819Y-88706666D02*
X132482438Y-88801904D01*
X132482438Y-88801904D02*
X132530057Y-88849523D01*
X132530057Y-88849523D02*
X132625295Y-88897142D01*
X132625295Y-88897142D02*
X132768152Y-88897142D01*
X132768152Y-88897142D02*
X132863390Y-88849523D01*
X132863390Y-88849523D02*
X132911009Y-88801904D01*
X132911009Y-88801904D02*
X132958628Y-88706666D01*
X132958628Y-88706666D02*
X132958628Y-88325714D01*
X133434819Y-89849523D02*
X133434819Y-89278095D01*
X133434819Y-89563809D02*
X132434819Y-89563809D01*
X132434819Y-89563809D02*
X132577676Y-89468571D01*
X132577676Y-89468571D02*
X132672914Y-89373333D01*
X132672914Y-89373333D02*
X132720533Y-89278095D01*
X132434819Y-90182857D02*
X132434819Y-90801904D01*
X132434819Y-90801904D02*
X132815771Y-90468571D01*
X132815771Y-90468571D02*
X132815771Y-90611428D01*
X132815771Y-90611428D02*
X132863390Y-90706666D01*
X132863390Y-90706666D02*
X132911009Y-90754285D01*
X132911009Y-90754285D02*
X133006247Y-90801904D01*
X133006247Y-90801904D02*
X133244342Y-90801904D01*
X133244342Y-90801904D02*
X133339580Y-90754285D01*
X133339580Y-90754285D02*
X133387200Y-90706666D01*
X133387200Y-90706666D02*
X133434819Y-90611428D01*
X133434819Y-90611428D02*
X133434819Y-90325714D01*
X133434819Y-90325714D02*
X133387200Y-90230476D01*
X133387200Y-90230476D02*
X133339580Y-90182857D01*
X126712857Y-97819580D02*
X126760476Y-97867200D01*
X126760476Y-97867200D02*
X126903333Y-97914819D01*
X126903333Y-97914819D02*
X126998571Y-97914819D01*
X126998571Y-97914819D02*
X127141428Y-97867200D01*
X127141428Y-97867200D02*
X127236666Y-97771961D01*
X127236666Y-97771961D02*
X127284285Y-97676723D01*
X127284285Y-97676723D02*
X127331904Y-97486247D01*
X127331904Y-97486247D02*
X127331904Y-97343390D01*
X127331904Y-97343390D02*
X127284285Y-97152914D01*
X127284285Y-97152914D02*
X127236666Y-97057676D01*
X127236666Y-97057676D02*
X127141428Y-96962438D01*
X127141428Y-96962438D02*
X126998571Y-96914819D01*
X126998571Y-96914819D02*
X126903333Y-96914819D01*
X126903333Y-96914819D02*
X126760476Y-96962438D01*
X126760476Y-96962438D02*
X126712857Y-97010057D01*
X126379523Y-96914819D02*
X125760476Y-96914819D01*
X125760476Y-96914819D02*
X126093809Y-97295771D01*
X126093809Y-97295771D02*
X125950952Y-97295771D01*
X125950952Y-97295771D02*
X125855714Y-97343390D01*
X125855714Y-97343390D02*
X125808095Y-97391009D01*
X125808095Y-97391009D02*
X125760476Y-97486247D01*
X125760476Y-97486247D02*
X125760476Y-97724342D01*
X125760476Y-97724342D02*
X125808095Y-97819580D01*
X125808095Y-97819580D02*
X125855714Y-97867200D01*
X125855714Y-97867200D02*
X125950952Y-97914819D01*
X125950952Y-97914819D02*
X126236666Y-97914819D01*
X126236666Y-97914819D02*
X126331904Y-97867200D01*
X126331904Y-97867200D02*
X126379523Y-97819580D01*
X125427142Y-96914819D02*
X124808095Y-96914819D01*
X124808095Y-96914819D02*
X125141428Y-97295771D01*
X125141428Y-97295771D02*
X124998571Y-97295771D01*
X124998571Y-97295771D02*
X124903333Y-97343390D01*
X124903333Y-97343390D02*
X124855714Y-97391009D01*
X124855714Y-97391009D02*
X124808095Y-97486247D01*
X124808095Y-97486247D02*
X124808095Y-97724342D01*
X124808095Y-97724342D02*
X124855714Y-97819580D01*
X124855714Y-97819580D02*
X124903333Y-97867200D01*
X124903333Y-97867200D02*
X124998571Y-97914819D01*
X124998571Y-97914819D02*
X125284285Y-97914819D01*
X125284285Y-97914819D02*
X125379523Y-97867200D01*
X125379523Y-97867200D02*
X125427142Y-97819580D01*
D11*
X112907500Y-92010000D02*
X112907500Y-90724437D01*
X112907500Y-94130000D02*
X112907500Y-95415563D01*
X113971937Y-89660000D02*
X112907500Y-90724437D01*
X113971937Y-96480000D02*
X112907500Y-95415563D01*
X119727500Y-89660000D02*
X113971937Y-89660000D01*
X119727500Y-92010000D02*
X119727500Y-89660000D01*
X119727500Y-94130000D02*
X119727500Y-96480000D01*
X119727500Y-96480000D02*
X113971937Y-96480000D01*
X138165000Y-92927064D02*
X138165000Y-92472936D01*
X139635000Y-92927064D02*
X139635000Y-92472936D01*
X132530000Y-99650000D02*
X132530000Y-102310000D01*
X132530000Y-102310000D02*
X140270000Y-102310000D01*
X132590000Y-96940000D02*
X133860000Y-96940000D01*
X132590000Y-98210000D02*
X132590000Y-96940000D01*
X133480000Y-99650000D02*
X133480000Y-99320000D01*
X133480000Y-108310000D02*
X133480000Y-102310000D01*
X133540000Y-108310000D02*
X133540000Y-102310000D01*
X133660000Y-108310000D02*
X133660000Y-102310000D01*
X133780000Y-108310000D02*
X133780000Y-102310000D01*
X133900000Y-108310000D02*
X133900000Y-102310000D01*
X134020000Y-108310000D02*
X134020000Y-102310000D01*
X134140000Y-108310000D02*
X134140000Y-102310000D01*
X134240000Y-99650000D02*
X134240000Y-99320000D01*
X134240000Y-102310000D02*
X134240000Y-108310000D01*
X134240000Y-108310000D02*
X133480000Y-108310000D01*
X135130000Y-102310000D02*
X135130000Y-99650000D01*
X136020000Y-99650000D02*
X136020000Y-99252929D01*
X136020000Y-108310000D02*
X136020000Y-102310000D01*
X136780000Y-99650000D02*
X136780000Y-99252929D01*
X136780000Y-102310000D02*
X136780000Y-108310000D01*
X136780000Y-108310000D02*
X136020000Y-108310000D01*
X137670000Y-102310000D02*
X137670000Y-99650000D01*
X138560000Y-99650000D02*
X138560000Y-99252929D01*
X138560000Y-108310000D02*
X138560000Y-102310000D01*
X139320000Y-99650000D02*
X139320000Y-99252929D01*
X139320000Y-102310000D02*
X139320000Y-108310000D01*
X139320000Y-108310000D02*
X138560000Y-108310000D01*
X140270000Y-99650000D02*
X132530000Y-99650000D01*
X140270000Y-102310000D02*
X140270000Y-99650000D01*
X136165000Y-92941252D02*
X136165000Y-92418748D01*
X137635000Y-92941252D02*
X137635000Y-92418748D01*
X134155000Y-92398748D02*
X134155000Y-92921252D01*
X135625000Y-92398748D02*
X135625000Y-92921252D01*
X83570000Y-65030000D02*
X83570000Y-67690000D01*
X83570000Y-65030000D02*
X84240000Y-65030000D01*
X83570000Y-67690000D02*
X86780000Y-67690000D01*
X83570000Y-90550000D02*
X83570000Y-93210000D01*
X83570000Y-90550000D02*
X84240000Y-90550000D01*
X83570000Y-93210000D02*
X86780000Y-93210000D01*
X85760000Y-65030000D02*
X89320000Y-65030000D01*
X85760000Y-90550000D02*
X89320000Y-90550000D01*
X88300000Y-67690000D02*
X91860000Y-67690000D01*
X88300000Y-93210000D02*
X91860000Y-93210000D01*
X90840000Y-65030000D02*
X94400000Y-65030000D01*
X90840000Y-90550000D02*
X94400000Y-90550000D01*
X93380000Y-67690000D02*
X96940000Y-67690000D01*
X93380000Y-93210000D02*
X96940000Y-93210000D01*
X95920000Y-65030000D02*
X99130000Y-65030000D01*
X95920000Y-90550000D02*
X99130000Y-90550000D01*
X98460000Y-67690000D02*
X99130000Y-67690000D01*
X98460000Y-93210000D02*
X98460000Y-94420000D01*
X98460000Y-93210000D02*
X99130000Y-93210000D01*
X99130000Y-65030000D02*
X99130000Y-67690000D01*
X99130000Y-90550000D02*
X99130000Y-93210000D01*
X132165000Y-92887064D02*
X132165000Y-92432936D01*
X133635000Y-92887064D02*
X133635000Y-92432936D01*
X122660000Y-92050000D02*
X122660000Y-90764437D01*
X122660000Y-94170000D02*
X122660000Y-95455563D01*
X123724437Y-89700000D02*
X122660000Y-90764437D01*
X123724437Y-96520000D02*
X122660000Y-95455563D01*
X129480000Y-89700000D02*
X123724437Y-89700000D01*
X129480000Y-92050000D02*
X129480000Y-89700000D01*
X129480000Y-94170000D02*
X129480000Y-96520000D01*
X129480000Y-96520000D02*
X123724437Y-96520000D01*
M02*
