M48
; DRILL file {KiCad 8.0.7} date 2025-02-05T20:28:57-0600
; FORMAT={-:-/ absolute / inch / decimal}
; #@! TF.CreationDate,2025-02-05T20:28:57-06:00
; #@! TF.GenerationSoftware,Kicad,Pcbnew,8.0.7
; #@! TF.FileFunction,Plated,1,2,PTH
FMAT,2
INCH
; #@! TA.AperFunction,Plated,PTH,ViaDrill
T1C0.0157
; #@! TA.AperFunction,Plated,PTH,ComponentDrill
T2C0.0299
; #@! TA.AperFunction,Plated,PTH,ComponentDrill
T3C0.0315
; #@! TA.AperFunction,Plated,PTH,ComponentDrill
T4C0.0390
; #@! TA.AperFunction,Plated,PTH,ComponentDrill
T5C0.0394
; #@! TA.AperFunction,Plated,PTH,ComponentDrill
T6C0.0437
; #@! TA.AperFunction,Plated,PTH,ComponentDrill
T7C0.0512
; #@! TA.AperFunction,Plated,PTH,ComponentDrill
T8C0.1260
%
G90
G05
T1
X2.1823Y-4.3559
X2.1886Y-4.5441
X2.1898Y-3.8811
X2.1913Y-4.4606
X2.1929Y-3.9992
X2.1976Y-4.1661
X2.1992Y-4.2598
X2.2031Y-2.9043
X2.2264Y-3.2697
X2.23Y-6.47
X2.2346Y-5.7291
X2.2362Y-2.8189
X2.2476Y-6.0291
X2.249Y-2.4931
X2.25Y-5.3661
X2.2508Y-2.6602
X2.2524Y-2.5638
X2.2528Y-6.2291
X2.2539Y-6.1291
X2.2539Y-6.31
X2.2547Y-5.1815
X2.2547Y-6.4291
X2.2555Y-2.9382
X2.2569Y-3.4026
X2.2573Y-6.5057
X2.26Y-5.96
X2.2677Y-1.9134
X2.2677Y-2.0157
X2.2677Y-4.8189
X2.2677Y-5.8189
X2.2677Y-6.6142
X2.2677Y-6.8189
X2.2732Y-4.9783
X2.2766Y-3.2766
X2.2923Y-3.7047
X2.3406Y-4.3337
X2.3425Y-4.4301
X2.348Y-5.2819
X2.35Y-5.21
X2.3612Y-4.0709
X2.3612Y-4.5482
X2.3671Y-4.6299
X2.3858Y-3.876
X2.3868Y-4.4606
X2.3878Y-4.1663
X2.3888Y-4.2638
X2.3907Y-4.3593
X2.4Y-5.1291
X2.4124Y-3.9656
X2.4138Y-2.8433
X2.4154Y-4.1368
X2.42Y-5.04
X2.4303Y-4.9697
X2.435Y-4.2579
X2.4445Y-2.7295
X2.4546Y-2.2992
X2.4587Y-2.8711
X2.4602Y-3.4508
X2.4606Y-4.6535
X2.4646Y-2.7736
X2.47Y-5.51
X2.4803Y-3.2803
X2.4803Y-5.2559
X2.4803Y-5.315
X2.4803Y-5.374
X2.4803Y-5.4331
X2.4934Y-4.4304
X2.5118Y-5.8256
X2.5197Y-3.3661
X2.52Y-6.12
X2.5209Y-5.9598
X2.5256Y-3.9823
X2.53Y-5.34
X2.5398Y-5.7291
X2.562Y-3.9931
X2.5984Y-3.0118
X2.5984Y-3.8583
X2.5988Y-2.6059
X2.6142Y-5.563
X2.6181Y-4.7047
X2.63Y-6.44
X2.6447Y-2.4341
X2.6457Y-2.4921
X2.6575Y-3.878
X2.6657Y-5.6044
X2.67Y-3.17
X2.67Y-5.78
X2.6772Y-4.8622
X2.685Y-4.3858
X2.7156Y-3.7766
X2.748Y-2.9055
X2.75Y-6.0004
X2.75Y-6.35
X2.7539Y-2.7018
X2.7685Y-4.3898
X2.7843Y-6.1378
X2.8059Y-6.05
X2.82Y-2.55
X2.8211Y-6.1994
X2.8242Y-6.2553
X2.83Y-4.27
X2.8483Y-2.2992
X2.8583Y-5.9764
X2.8583Y-6.0787
X2.8583Y-6.1811
X2.8583Y-6.2835
X2.8583Y-6.378
X2.88Y-3.67
X2.91Y-4.87
X2.91Y-5.51
X2.9134Y-4.1969
X2.9134Y-5.063
X2.92Y-3.17
X2.92Y-4.62
X2.93Y-5.76
X2.9685Y-2.7323
X2.9776Y-2.9016
X2.9843Y-6.4882
X3.0236Y-2.7976
X3.0236Y-2.8583
X3.0394Y-5.6693
X3.0472Y-3.0016
X3.0472Y-4.7795
X3.0531Y-6.5094
X3.0636Y-6.4419
X3.0665Y-6.3445
X3.0744Y-5.5402
X3.104Y-6.386
X3.1047Y-5.6713
X3.1067Y-2.6374
X3.1189Y-2.8469
X3.1496Y-4.8228
X3.1772Y-6.2209
X3.1913Y-3.3205
X3.2165Y-6.172
X3.2461Y-2.7591
X3.2469Y-2.9071
X3.27Y-5.7
X3.27Y-5.8
X3.271Y-5.9482
X3.28Y-5.6044
X3.2868Y-2.5364
X3.2878Y-6.0146
X3.2933Y-4.2951
X3.2941Y-2.8311
X3.3031Y-4.7992
X3.3039Y-4.9886
X3.3071Y-5.0236
X3.3252Y-5.9272
X3.3283Y-4.6433
X3.347Y-3.4585
X3.3504Y-3.2579
X3.3681Y-5.1098
X3.39Y-4.02
X3.3929Y-2.5858
X3.4449Y-4.6457
X3.4449Y-5.0
X3.46Y-5.79
X3.4606Y-4.8819
X3.49Y-5.23
X3.5039Y-4.5472
X3.5295Y-2.6965
X3.56Y-4.75
X3.572Y-5.1795
X3.5827Y-4.937
X3.5841Y-5.0379
X3.64Y-5.62
X3.64Y-5.83
X3.6417Y-4.3898
X3.648Y-3.6098
X3.6772Y-5.2244
X3.6874Y-3.4898
X3.6996Y-5.3386
X3.7026Y-5.9274
X3.7205Y-5.0394
X3.7332Y-4.5668
X3.77Y-4.7
X3.77Y-6.45
X3.7732Y-5.185
X3.7795Y-4.4433
X3.7795Y-4.5669
X3.7795Y-5.7402
X3.82Y-4.99
X3.848Y-3.6098
X3.8612Y-4.2738
X3.878Y-5.0394
X3.8781Y-4.7281
X3.88Y-4.84
X3.8972Y-2.5201
X3.9Y-2.6343
X3.9047Y-4.0528
X3.9287Y-4.2445
X3.937Y-4.7441
X3.9409Y-4.9646
X3.9416Y-4.9016
X3.9449Y-4.6299
X3.9665Y-5.1504
X3.99Y-5.7
X3.99Y-5.82
X4.0091Y-2.4744
X4.011Y-5.0736
X4.0157Y-4.4488
X4.0598Y-4.5
X4.0906Y-4.9024
X4.0945Y-5.0969
X4.21Y-4.71
X4.2126Y-5.3193
X4.2126Y-5.4921
X4.2244Y-4.8465
X4.2362Y-5.5512
X4.2402Y-5.7598
X4.252Y-5.9843
X4.252Y-6.0827
X4.2559Y-2.9063
X4.2579Y-5.3972
X4.3622Y-5.5709
X4.4094Y-5.3307
X4.4216Y-5.4792
X4.4465Y-2.8358
X4.4567Y-5.5276
X4.51Y-5.15
X4.5276Y-5.6929
X4.5663Y-2.9512
X4.58Y-5.96
X4.6Y-4.5933
X4.6Y-5.43
X4.6164Y-3.2864
X4.6665Y-3.4154
X4.6697Y-3.3736
X4.6803Y-4.0449
X4.7228Y-4.0787
X4.7563Y-4.1173
X4.8073Y-4.1364
X4.8638Y-4.1488
X4.901Y-4.1509
X5.0386Y-4.1268
X5.0547Y-4.0803
X5.3299Y-3.5512
X5.4402Y-3.7622
X5.8024Y-3.7453
X5.8041Y-4.6626
X5.8189Y-3.2067
X5.872Y-3.9665
X5.8907Y-3.8848
X5.9085Y-3.8504
X5.9173Y-3.8071
X5.9232Y-3.9163
X5.9734Y-3.7461
X5.974Y-5.9386
X5.9752Y-3.4138
X5.9768Y-5.7185
X5.9976Y-5.5402
X6.0197Y-4.7441
X6.0248Y-3.7701
X6.0596Y-3.402
X6.0719Y-3.6545
X6.1063Y-2.9193
X6.1165Y-7.2106
X6.1811Y-4.3996
X6.2209Y-4.3232
X6.2382Y-3.9134
X6.2608Y-3.8573
X6.261Y-4.2472
X6.3583Y-4.2185
X6.4047Y-4.2161
X6.4301Y-7.1398
X6.4449Y-3.7992
X6.465Y-4.213
X6.5228Y-5.8335
X6.7224Y-6.8612
X6.8606Y-3.4634
X6.8732Y-6.2921
X6.9465Y-3.2008
X7.015Y-3.4827
X7.0236Y-3.8685
T2
X6.7593Y-6.6061
X6.7593Y-6.7061
X6.7593Y-6.8061
X6.8593Y-6.5561
X6.8593Y-6.6561
X6.8593Y-6.7561
T3
X2.5349Y-1.94
X2.6727Y-1.94
T4
X7.1519Y-3.4104
X7.1519Y-3.5876
X7.1519Y-3.8104
X7.1519Y-3.9876
T5
X3.2091Y-3.8555
X3.2091Y-3.9555
X3.2094Y-2.2783
X3.2094Y-2.3783
X3.3091Y-3.8555
X3.3091Y-3.9555
X3.3094Y-2.2783
X3.3094Y-2.3783
X3.4091Y-3.8555
X3.4091Y-3.9555
X3.4094Y-2.2783
X3.4094Y-2.3783
X3.5091Y-3.8555
X3.5091Y-3.9555
X3.5094Y-2.2783
X3.5094Y-2.3783
X3.6091Y-3.8555
X3.6091Y-3.9555
X3.6094Y-2.2783
X3.6094Y-2.3783
X3.7091Y-3.8555
X3.7091Y-3.9555
X3.7094Y-2.2783
X3.7094Y-2.3783
X3.8091Y-3.8555
X3.8091Y-3.9555
X3.8094Y-2.2783
X3.8094Y-2.3783
X3.9091Y-3.8555
X3.9091Y-3.9555
X3.9094Y-2.2783
X3.9094Y-2.3783
X4.0091Y-3.8555
X4.0091Y-3.9555
X4.0094Y-2.2783
X4.0094Y-2.3783
X4.1091Y-3.8555
X4.1091Y-3.9555
X4.1094Y-2.2783
X4.1094Y-2.3783
X4.2545Y-3.0211
X4.2545Y-3.1211
X4.2545Y-3.2211
X5.2701Y-3.8665
X5.3701Y-3.8665
X5.4701Y-3.8665
X6.1992Y-5.5339
X6.1992Y-5.6339
X6.1992Y-5.7339
X6.1992Y-5.8339
X6.1992Y-5.9339
X6.1992Y-6.0339
X6.1992Y-6.1339
X6.1992Y-6.2339
X6.1992Y-6.3339
X6.1992Y-6.4339
X6.1992Y-6.5339
X6.1992Y-6.6339
X6.1992Y-6.7339
X6.2992Y-5.5339
X6.2992Y-5.6339
X6.2992Y-5.7339
X6.2992Y-5.8339
X6.2992Y-5.9339
X6.2992Y-6.0339
X6.2992Y-6.1339
X6.2992Y-6.2339
X6.2992Y-6.3339
X6.2992Y-6.4339
X6.2992Y-6.5339
X6.2992Y-6.6339
X6.2992Y-6.7339
X6.8362Y-5.524
X6.8362Y-5.7209
X7.0823Y-5.524
X7.0823Y-5.6224
X7.0823Y-5.7209
T6
X5.0313Y-3.0335
X5.0313Y-3.1335
X5.1313Y-3.0335
X5.1313Y-3.1335
X5.2313Y-3.0335
X5.2313Y-3.1335
X5.3313Y-3.0335
X5.3313Y-3.1335
X5.4313Y-3.0335
X5.4313Y-3.1335
X5.5313Y-3.0335
X5.5313Y-3.1335
X5.6313Y-3.0335
X5.6313Y-3.1335
X5.7313Y-3.0335
X5.7313Y-3.1335
X5.8313Y-3.0335
X5.8313Y-3.1335
X5.9313Y-3.0335
X5.9313Y-3.1335
X6.0313Y-3.0335
X6.0313Y-3.1335
X6.1313Y-3.0335
X6.1313Y-3.1335
X6.2313Y-3.0335
X6.2313Y-3.1335
X6.3313Y-3.0335
X6.3313Y-3.1335
X6.4313Y-3.0335
X6.4313Y-3.1335
X6.5313Y-3.0335
X6.5313Y-3.1335
X6.6313Y-3.0335
X6.6313Y-3.1335
X6.7313Y-3.0335
X6.7313Y-3.1335
X6.8313Y-3.0335
X6.8313Y-3.1335
X6.9313Y-3.0335
X6.9313Y-3.1335
T7
X7.0539Y-3.3612
X7.0539Y-3.6372
X7.0539Y-3.7612
X7.0539Y-4.0372
T8
X7.126Y-1.811
X7.126Y-7.1654
T5
G00X6.7492Y-4.7417
M15
G01X6.7492Y-4.7811
M16
G05
G00X6.7496Y-4.3224
M15
G01X6.7496Y-4.3618
M16
G05
G00X6.752Y-5.1551
M15
G01X6.752Y-5.1945
M16
G05
G00X6.7559Y-6.0315
M15
G01X6.7559Y-6.0709
M16
G05
G00X6.8949Y-4.8205
M15
G01X6.8949Y-4.8598
M16
G05
G00X6.8953Y-4.4012
M15
G01X6.8953Y-4.4406
M16
G05
G00X6.8976Y-5.2339
M15
G01X6.8976Y-5.2732
M16
G05
G00X6.9016Y-6.1102
M15
G01X6.9016Y-6.1496
M16
G05
G00X6.9657Y-4.7417
M15
G01X6.9657Y-4.7811
M16
G05
G00X6.9661Y-4.3224
M15
G01X6.9661Y-4.3618
M16
G05
G00X6.9685Y-5.1551
M15
G01X6.9685Y-5.1945
M16
G05
G00X6.9724Y-6.0315
M15
G01X6.9724Y-6.0709
M16
G05
G00X7.1114Y-4.8205
M15
G01X7.1114Y-4.8598
M16
G05
G00X7.1118Y-4.4012
M15
G01X7.1118Y-4.4406
M16
G05
G00X7.1142Y-5.2339
M15
G01X7.1142Y-5.2732
M16
G05
G00X7.1181Y-6.1102
M15
G01X7.1181Y-6.1496
M16
G05
G00X7.2059Y-4.7417
M15
G01X7.2059Y-4.7811
M16
G05
G00X7.2063Y-4.3224
M15
G01X7.2063Y-4.3618
M16
G05
G00X7.2087Y-5.1551
M15
G01X7.2087Y-5.1945
M16
G05
G00X7.2126Y-6.0315
M15
G01X7.2126Y-6.0709
M16
G05
M30
