%TF.GenerationSoftware,KiCad,Pcbnew,7.0.10*%
%TF.CreationDate,2024-02-09T20:02:58-06:00*%
%TF.ProjectId,midiori,6d696469-6f72-4692-9e6b-696361645f70,rev?*%
%TF.SameCoordinates,Original*%
%TF.FileFunction,Drillmap*%
%TF.FilePolarity,Positive*%
%FSLAX45Y45*%
G04 Gerber Fmt 4.5, Leading zero omitted, Abs format (unit mm)*
G04 Created by KiCad (PCBNEW 7.0.10) date 2024-02-09 20:02:58*
%MOMM*%
%LPD*%
G01*
G04 APERTURE LIST*
%ADD10C,0.050000*%
%ADD11C,0.200000*%
%ADD12C,0.100000*%
%ADD13C,0.111000*%
%ADD14C,0.130000*%
%ADD15C,0.320000*%
G04 APERTURE END LIST*
D10*
X5800000Y-18900000D02*
X18100000Y-18900000D01*
X4400000Y-17400000D02*
X4400000Y-4800000D01*
X4500000Y-17500000D02*
X4400000Y-17400000D01*
X5400000Y-17500000D02*
X5400000Y-18500000D01*
X5400000Y-4300000D02*
X5400000Y-4700000D01*
X18100000Y-18900000D02*
G75*
G03*
X18500000Y-18500000I0J400000D01*
G01*
X5400000Y-4700000D02*
X4500000Y-4700000D01*
X4400000Y-4800000D02*
X4500000Y-4700000D01*
X5800000Y-3900000D02*
G75*
G03*
X5400000Y-4300000I0J-400000D01*
G01*
X18500000Y-4300000D02*
X18500000Y-18500000D01*
X5800000Y-3900000D02*
X18100000Y-3900000D01*
X18500000Y-4300000D02*
G75*
G03*
X18100000Y-3900000I-400000J0D01*
G01*
X5400000Y-18500000D02*
G75*
G03*
X5800000Y-18900000I400000J0D01*
G01*
X4500000Y-17500000D02*
X5400000Y-17500000D01*
D11*
D12*
X5635000Y-8285000D02*
X5675000Y-8325000D01*
X5675000Y-8285000D02*
X5635000Y-8325000D01*
X5644200Y-16413800D02*
X5684200Y-16453800D01*
X5684200Y-16413800D02*
X5644200Y-16453800D01*
X5656000Y-14532000D02*
X5696000Y-14572000D01*
X5696000Y-14532000D02*
X5656000Y-14572000D01*
X5660000Y-7140000D02*
X5700000Y-7180000D01*
X5700000Y-7140000D02*
X5660000Y-7180000D01*
X5660000Y-11310000D02*
X5700000Y-11350000D01*
X5700000Y-11310000D02*
X5660000Y-11350000D01*
X5665000Y-11057500D02*
X5705000Y-11097500D01*
X5705000Y-11057500D02*
X5665000Y-11097500D01*
X5669600Y-6634800D02*
X5709600Y-6674800D01*
X5709600Y-6634800D02*
X5669600Y-6674800D01*
X5670000Y-11535000D02*
X5710000Y-11575000D01*
X5710000Y-11535000D02*
X5670000Y-11575000D01*
X5672500Y-10800000D02*
X5712500Y-10840000D01*
X5712500Y-10800000D02*
X5672500Y-10840000D01*
X5687500Y-10175000D02*
X5727500Y-10215000D01*
X5727500Y-10175000D02*
X5687500Y-10215000D01*
X5689000Y-15294000D02*
X5729000Y-15334000D01*
X5729000Y-15294000D02*
X5689000Y-15334000D01*
X5690000Y-9827500D02*
X5730000Y-9867500D01*
X5730000Y-9827500D02*
X5690000Y-9867500D01*
X5692500Y-6312500D02*
X5732500Y-6352500D01*
X5732500Y-6312500D02*
X5692500Y-6352500D01*
X5695000Y-10552500D02*
X5735000Y-10592500D01*
X5735000Y-10552500D02*
X5695000Y-10592500D01*
X5695000Y-13610000D02*
X5735000Y-13650000D01*
X5735000Y-13610000D02*
X5695000Y-13650000D01*
X5702000Y-15802000D02*
X5742000Y-15842000D01*
X5742000Y-15802000D02*
X5702000Y-15842000D01*
X5705000Y-15548000D02*
X5745000Y-15588000D01*
X5745000Y-15548000D02*
X5705000Y-15588000D01*
X5705000Y-16007400D02*
X5745000Y-16047400D01*
X5745000Y-16007400D02*
X5705000Y-16047400D01*
X5707000Y-13141000D02*
X5747000Y-13181000D01*
X5747000Y-13141000D02*
X5707000Y-13181000D01*
X5707000Y-16310000D02*
X5747000Y-16350000D01*
X5747000Y-16310000D02*
X5707000Y-16350000D01*
X5709000Y-7443000D02*
X5749000Y-7483000D01*
X5749000Y-7443000D02*
X5709000Y-7483000D01*
X5710000Y-6910000D02*
X5750000Y-6950000D01*
X5750000Y-6910000D02*
X5710000Y-6950000D01*
X5712500Y-8622500D02*
X5752500Y-8662500D01*
X5752500Y-8622500D02*
X5712500Y-8662500D01*
X5713500Y-16504500D02*
X5753500Y-16544500D01*
X5753500Y-16504500D02*
X5713500Y-16544500D01*
X5720400Y-15118400D02*
X5760400Y-15158400D01*
X5760400Y-15118400D02*
X5720400Y-15158400D01*
X5740000Y-4840000D02*
X5780000Y-4880000D01*
X5780000Y-4840000D02*
X5740000Y-4880000D01*
X5740000Y-5100000D02*
X5780000Y-5140000D01*
X5780000Y-5100000D02*
X5740000Y-5140000D01*
X5740000Y-12220000D02*
X5780000Y-12260000D01*
X5780000Y-12220000D02*
X5740000Y-12260000D01*
X5740000Y-14760000D02*
X5780000Y-14800000D01*
X5780000Y-14760000D02*
X5740000Y-14800000D01*
X5740000Y-16780000D02*
X5780000Y-16820000D01*
X5780000Y-16780000D02*
X5740000Y-16820000D01*
X5740000Y-17300000D02*
X5780000Y-17340000D01*
X5780000Y-17300000D02*
X5740000Y-17340000D01*
X5754000Y-12625000D02*
X5794000Y-12665000D01*
X5794000Y-12625000D02*
X5754000Y-12665000D01*
X5762500Y-8302500D02*
X5802500Y-8342500D01*
X5802500Y-8302500D02*
X5762500Y-8342500D01*
X5802500Y-9390000D02*
X5842500Y-9430000D01*
X5842500Y-9390000D02*
X5802500Y-9430000D01*
X5925000Y-10987500D02*
X5965000Y-11027500D01*
X5965000Y-10987500D02*
X5925000Y-11027500D01*
X5930000Y-11232500D02*
X5970000Y-11272500D01*
X5970000Y-11232500D02*
X5930000Y-11272500D01*
X5944000Y-13396000D02*
X5984000Y-13436000D01*
X5984000Y-13396000D02*
X5944000Y-13436000D01*
X5949000Y-13213400D02*
X5989000Y-13253400D01*
X5989000Y-13213400D02*
X5949000Y-13253400D01*
X5977500Y-10320000D02*
X6017500Y-10360000D01*
X6017500Y-10320000D02*
X5977500Y-10360000D01*
X5977500Y-11532500D02*
X6017500Y-11572500D01*
X6017500Y-11532500D02*
X5977500Y-11572500D01*
X5992500Y-11740000D02*
X6032500Y-11780000D01*
X6032500Y-11740000D02*
X5992500Y-11780000D01*
X6040000Y-9825000D02*
X6080000Y-9865000D01*
X6080000Y-9825000D02*
X6040000Y-9865000D01*
X6042500Y-11310000D02*
X6082500Y-11350000D01*
X6082500Y-11310000D02*
X6042500Y-11350000D01*
X6045000Y-10562500D02*
X6085000Y-10602500D01*
X6085000Y-10562500D02*
X6045000Y-10602500D01*
X6047500Y-10810000D02*
X6087500Y-10850000D01*
X6087500Y-10810000D02*
X6047500Y-10850000D01*
X6052500Y-11052500D02*
X6092500Y-11092500D01*
X6092500Y-11052500D02*
X6052500Y-11092500D01*
X6076000Y-13008000D02*
X6116000Y-13048000D01*
X6116000Y-13008000D02*
X6076000Y-13048000D01*
X6107500Y-10052500D02*
X6147500Y-10092500D01*
X6147500Y-10052500D02*
X6107500Y-10092500D01*
X6111000Y-7202000D02*
X6151000Y-7242000D01*
X6151000Y-7202000D02*
X6111000Y-7242000D01*
X6115000Y-10487500D02*
X6155000Y-10527500D01*
X6155000Y-10487500D02*
X6115000Y-10527500D01*
X6126800Y-12781600D02*
X6166800Y-12821600D01*
X6166800Y-12781600D02*
X6126800Y-12821600D01*
X6153000Y-12603000D02*
X6193000Y-12643000D01*
X6193000Y-12603000D02*
X6153000Y-12643000D01*
X6165000Y-10795000D02*
X6205000Y-10835000D01*
X6205000Y-10795000D02*
X6165000Y-10835000D01*
X6189000Y-6913000D02*
X6229000Y-6953000D01*
X6229000Y-6913000D02*
X6189000Y-6953000D01*
X6214700Y-5820000D02*
X6254700Y-5860000D01*
X6254700Y-5820000D02*
X6214700Y-5860000D01*
X6225000Y-7272500D02*
X6265000Y-7312500D01*
X6265000Y-7272500D02*
X6225000Y-7312500D01*
X6229000Y-8745000D02*
X6269000Y-8785000D01*
X6269000Y-8745000D02*
X6229000Y-8785000D01*
X6240000Y-7025000D02*
X6280000Y-7065000D01*
X6280000Y-7025000D02*
X6240000Y-7065000D01*
X6253800Y-13975400D02*
X6293800Y-14015400D01*
X6293800Y-13975400D02*
X6253800Y-14015400D01*
X6280000Y-8312000D02*
X6320000Y-8352000D01*
X6320000Y-8312000D02*
X6280000Y-8352000D01*
X6280000Y-13330000D02*
X6320000Y-13370000D01*
X6320000Y-13330000D02*
X6280000Y-13370000D01*
X6280000Y-13480000D02*
X6320000Y-13520000D01*
X6320000Y-13480000D02*
X6280000Y-13520000D01*
X6280000Y-13630000D02*
X6320000Y-13670000D01*
X6320000Y-13630000D02*
X6280000Y-13670000D01*
X6280000Y-13780000D02*
X6320000Y-13820000D01*
X6320000Y-13780000D02*
X6280000Y-13820000D01*
X6313134Y-11233134D02*
X6353134Y-11273134D01*
X6353134Y-11233134D02*
X6313134Y-11273134D01*
X6360000Y-14777000D02*
X6400000Y-14817000D01*
X6400000Y-14777000D02*
X6360000Y-14817000D01*
X6380000Y-8530000D02*
X6420000Y-8570000D01*
X6420000Y-8530000D02*
X6380000Y-8570000D01*
X6380800Y-15524800D02*
X6420800Y-15564800D01*
X6420800Y-15524800D02*
X6380800Y-15564800D01*
X6383000Y-15118000D02*
X6423000Y-15158000D01*
X6423000Y-15118000D02*
X6383000Y-15158000D01*
X6395000Y-10095000D02*
X6435000Y-10135000D01*
X6435000Y-10095000D02*
X6395000Y-10135000D01*
X6406200Y-13543600D02*
X6446200Y-13583600D01*
X6446200Y-13543600D02*
X6406200Y-13583600D01*
X6431000Y-14532000D02*
X6471000Y-14572000D01*
X6471000Y-14532000D02*
X6431000Y-14572000D01*
X6487500Y-10122500D02*
X6527500Y-10162500D01*
X6527500Y-10122500D02*
X6487500Y-10162500D01*
X6580000Y-7630000D02*
X6620000Y-7670000D01*
X6620000Y-7630000D02*
X6580000Y-7670000D01*
X6580000Y-9780000D02*
X6620000Y-9820000D01*
X6620000Y-9780000D02*
X6580000Y-9820000D01*
X6581000Y-6599000D02*
X6621000Y-6639000D01*
X6621000Y-6599000D02*
X6581000Y-6639000D01*
X6620000Y-14110000D02*
X6660000Y-14150000D01*
X6660000Y-14110000D02*
X6620000Y-14150000D01*
X6630000Y-11930000D02*
X6670000Y-11970000D01*
X6670000Y-11930000D02*
X6630000Y-11970000D01*
X6660200Y-16337600D02*
X6700200Y-16377600D01*
X6700200Y-16337600D02*
X6660200Y-16377600D01*
X6697500Y-6162500D02*
X6737500Y-6202500D01*
X6737500Y-6162500D02*
X6697500Y-6202500D01*
X6700000Y-6310000D02*
X6740000Y-6350000D01*
X6740000Y-6310000D02*
X6700000Y-6350000D01*
X6730000Y-9830000D02*
X6770000Y-9870000D01*
X6770000Y-9830000D02*
X6730000Y-9870000D01*
X6751000Y-14215250D02*
X6791000Y-14255250D01*
X6791000Y-14215250D02*
X6751000Y-14255250D01*
X6761800Y-8031800D02*
X6801800Y-8071800D01*
X6801800Y-8031800D02*
X6761800Y-8071800D01*
X6761800Y-14661200D02*
X6801800Y-14701200D01*
X6801800Y-14661200D02*
X6761800Y-14701200D01*
X6780000Y-12330000D02*
X6820000Y-12370000D01*
X6820000Y-12330000D02*
X6780000Y-12370000D01*
X6800000Y-11120000D02*
X6840000Y-11160000D01*
X6840000Y-11120000D02*
X6800000Y-11160000D01*
X6877500Y-9572500D02*
X6917500Y-9612500D01*
X6917500Y-9572500D02*
X6877500Y-9612500D01*
X6960000Y-7360000D02*
X7000000Y-7400000D01*
X7000000Y-7360000D02*
X6960000Y-7400000D01*
X6965000Y-15221000D02*
X7005000Y-15261000D01*
X7005000Y-15221000D02*
X6965000Y-15261000D01*
X6965000Y-16109000D02*
X7005000Y-16149000D01*
X7005000Y-16109000D02*
X6965000Y-16149000D01*
X6975000Y-6842500D02*
X7015000Y-6882500D01*
X7015000Y-6842500D02*
X6975000Y-6882500D01*
X7012001Y-11130000D02*
X7052001Y-11170000D01*
X7052001Y-11130000D02*
X7012001Y-11170000D01*
X7052000Y-15570000D02*
X7092000Y-15610000D01*
X7092000Y-15570000D02*
X7052000Y-15610000D01*
X7107000Y-15347000D02*
X7147000Y-15387000D01*
X7147000Y-15347000D02*
X7107000Y-15387000D01*
X7142800Y-6457000D02*
X7182800Y-6497000D01*
X7182800Y-6457000D02*
X7142800Y-6497000D01*
X7145500Y-15726500D02*
X7185500Y-15766500D01*
X7185500Y-15726500D02*
X7145500Y-15766500D01*
X7153500Y-15868500D02*
X7193500Y-15908500D01*
X7193500Y-15868500D02*
X7153500Y-15908500D01*
X7168200Y-10825800D02*
X7208200Y-10865800D01*
X7208200Y-10825800D02*
X7168200Y-10865800D01*
X7214700Y-5820000D02*
X7254700Y-5860000D01*
X7254700Y-5820000D02*
X7214700Y-5860000D01*
X7240000Y-15160000D02*
X7280000Y-15200000D01*
X7280000Y-15160000D02*
X7240000Y-15200000D01*
X7240000Y-15420000D02*
X7280000Y-15460000D01*
X7280000Y-15420000D02*
X7240000Y-15460000D01*
X7240000Y-15680000D02*
X7280000Y-15720000D01*
X7280000Y-15680000D02*
X7240000Y-15720000D01*
X7240000Y-15940000D02*
X7280000Y-15980000D01*
X7280000Y-15940000D02*
X7240000Y-15980000D01*
X7240000Y-16180000D02*
X7280000Y-16220000D01*
X7280000Y-16180000D02*
X7240000Y-16220000D01*
X7295200Y-9301800D02*
X7335200Y-9341800D01*
X7335200Y-9301800D02*
X7295200Y-9341800D01*
X7371400Y-12349800D02*
X7411400Y-12389800D01*
X7411400Y-12349800D02*
X7371400Y-12389800D01*
X7371400Y-13975400D02*
X7411400Y-14015400D01*
X7411400Y-13975400D02*
X7371400Y-14015400D01*
X7380000Y-10640000D02*
X7420000Y-10680000D01*
X7420000Y-10640000D02*
X7380000Y-10680000D01*
X7380000Y-12840000D02*
X7420000Y-12880000D01*
X7420000Y-12840000D02*
X7380000Y-12880000D01*
X7396800Y-8031800D02*
X7436800Y-8071800D01*
X7436800Y-8031800D02*
X7396800Y-8071800D01*
X7396800Y-11714800D02*
X7436800Y-11754800D01*
X7436800Y-11714800D02*
X7396800Y-11754800D01*
X7422200Y-14610400D02*
X7462200Y-14650400D01*
X7462200Y-14610400D02*
X7422200Y-14650400D01*
X7520000Y-6920000D02*
X7560000Y-6960000D01*
X7560000Y-6920000D02*
X7520000Y-6960000D01*
X7560000Y-16460000D02*
X7600000Y-16500000D01*
X7600000Y-16460000D02*
X7560000Y-16500000D01*
X7660000Y-7240000D02*
X7700000Y-7280000D01*
X7700000Y-7240000D02*
X7660000Y-7280000D01*
X7700000Y-14380000D02*
X7740000Y-14420000D01*
X7740000Y-14380000D02*
X7700000Y-14420000D01*
X7720000Y-7603999D02*
X7760000Y-7643999D01*
X7760000Y-7603999D02*
X7720000Y-7643999D01*
X7720000Y-12120000D02*
X7760000Y-12160000D01*
X7760000Y-12120000D02*
X7720000Y-12160000D01*
X7735000Y-16514000D02*
X7775000Y-16554000D01*
X7775000Y-16514000D02*
X7735000Y-16554000D01*
X7761500Y-16342500D02*
X7801500Y-16382500D01*
X7801500Y-16342500D02*
X7761500Y-16382500D01*
X7769000Y-16095000D02*
X7809000Y-16135000D01*
X7809000Y-16095000D02*
X7769000Y-16135000D01*
X7789000Y-14052000D02*
X7829000Y-14092000D01*
X7829000Y-14052000D02*
X7789000Y-14092000D01*
X7828600Y-10597200D02*
X7868600Y-10637200D01*
X7868600Y-10597200D02*
X7828600Y-10637200D01*
X7864100Y-16200500D02*
X7904100Y-16240500D01*
X7904100Y-16200500D02*
X7864100Y-16240500D01*
X7866000Y-14385000D02*
X7906000Y-14425000D01*
X7906000Y-14385000D02*
X7866000Y-14425000D01*
X7980000Y-12230000D02*
X8020000Y-12270000D01*
X8020000Y-12230000D02*
X7980000Y-12270000D01*
X7981000Y-10444800D02*
X8021000Y-10484800D01*
X8021000Y-10444800D02*
X7981000Y-10484800D01*
X8050000Y-15781000D02*
X8090000Y-15821000D01*
X8090000Y-15781000D02*
X8050000Y-15821000D01*
X8066000Y-15692000D02*
X8106000Y-15732000D01*
X8106000Y-15692000D02*
X8066000Y-15732000D01*
X8150000Y-15657000D02*
X8190000Y-15697000D01*
X8190000Y-15657000D02*
X8150000Y-15697000D01*
X8214700Y-5720000D02*
X8254700Y-5760000D01*
X8254700Y-5720000D02*
X8214700Y-5760000D01*
X8285800Y-14458000D02*
X8325800Y-14498000D01*
X8325800Y-14458000D02*
X8285800Y-14498000D01*
X8285800Y-14712000D02*
X8325800Y-14752000D01*
X8325800Y-14712000D02*
X8285800Y-14752000D01*
X8288384Y-15088384D02*
X8328384Y-15128384D01*
X8328384Y-15088384D02*
X8288384Y-15128384D01*
X8311200Y-14215250D02*
X8351200Y-14255250D01*
X8351200Y-14215250D02*
X8311200Y-14255250D01*
X8330000Y-8380000D02*
X8370000Y-8420000D01*
X8370000Y-8380000D02*
X8330000Y-8420000D01*
X8330000Y-8530000D02*
X8370000Y-8570000D01*
X8370000Y-8530000D02*
X8330000Y-8570000D01*
X8330000Y-8680000D02*
X8370000Y-8720000D01*
X8370000Y-8680000D02*
X8330000Y-8720000D01*
X8330000Y-8830000D02*
X8370000Y-8870000D01*
X8370000Y-8830000D02*
X8330000Y-8870000D01*
X8330000Y-8980000D02*
X8370000Y-9020000D01*
X8370000Y-8980000D02*
X8330000Y-9020000D01*
X8330000Y-9130000D02*
X8370000Y-9170000D01*
X8370000Y-9130000D02*
X8330000Y-9170000D01*
X8330000Y-9430000D02*
X8370000Y-9470000D01*
X8370000Y-9430000D02*
X8330000Y-9470000D01*
X8331000Y-15257000D02*
X8371000Y-15297000D01*
X8371000Y-15257000D02*
X8331000Y-15297000D01*
X8338134Y-9288134D02*
X8378134Y-9328134D01*
X8378134Y-9288134D02*
X8338134Y-9328134D01*
X8370000Y-12170000D02*
X8410000Y-12210000D01*
X8410000Y-12170000D02*
X8370000Y-12210000D01*
X8372000Y-12651000D02*
X8412000Y-12691000D01*
X8412000Y-12651000D02*
X8372000Y-12691000D01*
X8380000Y-12740000D02*
X8420000Y-12780000D01*
X8420000Y-12740000D02*
X8380000Y-12780000D01*
X8426000Y-15035000D02*
X8466000Y-15075000D01*
X8466000Y-15035000D02*
X8426000Y-15075000D01*
X8434000Y-11774000D02*
X8474000Y-11814000D01*
X8474000Y-11774000D02*
X8434000Y-11814000D01*
X8535000Y-12959000D02*
X8575000Y-12999000D01*
X8575000Y-12959000D02*
X8535000Y-12999000D01*
X8580000Y-7680000D02*
X8620000Y-7720000D01*
X8620000Y-7680000D02*
X8580000Y-7720000D01*
X8590600Y-10190800D02*
X8630600Y-10230800D01*
X8630600Y-10190800D02*
X8590600Y-10230800D01*
X8730000Y-11780000D02*
X8770000Y-11820000D01*
X8770000Y-11780000D02*
X8730000Y-11820000D01*
X8730000Y-12680000D02*
X8770000Y-12720000D01*
X8770000Y-12680000D02*
X8730000Y-12720000D01*
X8768400Y-14686600D02*
X8808400Y-14726600D01*
X8808400Y-14686600D02*
X8768400Y-14726600D01*
X8770000Y-12380000D02*
X8810000Y-12420000D01*
X8810000Y-12380000D02*
X8770000Y-12420000D01*
X8793800Y-8057200D02*
X8833800Y-8097200D01*
X8833800Y-8057200D02*
X8793800Y-8097200D01*
X8832000Y-7162000D02*
X8872000Y-7202000D01*
X8872000Y-7162000D02*
X8832000Y-7202000D01*
X8844600Y-13264200D02*
X8884600Y-13304200D01*
X8884600Y-13264200D02*
X8844600Y-13304200D01*
X8880000Y-11530000D02*
X8920000Y-11570000D01*
X8920000Y-11530000D02*
X8880000Y-11570000D01*
X8925000Y-7603999D02*
X8965000Y-7643999D01*
X8965000Y-7603999D02*
X8925000Y-7643999D01*
X9022400Y-12045000D02*
X9062400Y-12085000D01*
X9062400Y-12045000D02*
X9022400Y-12085000D01*
X9053000Y-13136000D02*
X9093000Y-13176000D01*
X9093000Y-13136000D02*
X9053000Y-13176000D01*
X9080000Y-12520000D02*
X9120000Y-12560000D01*
X9120000Y-12520000D02*
X9080000Y-12560000D01*
X9083741Y-12776259D02*
X9123741Y-12816259D01*
X9123741Y-12776259D02*
X9083741Y-12816259D01*
X9225600Y-14254800D02*
X9265600Y-14294800D01*
X9265600Y-14254800D02*
X9225600Y-14294800D01*
X9225600Y-14788200D02*
X9265600Y-14828200D01*
X9265600Y-14788200D02*
X9225600Y-14828200D01*
X9230000Y-11130000D02*
X9270000Y-11170000D01*
X9270000Y-11130000D02*
X9230000Y-11170000D01*
X9237500Y-7470000D02*
X9277500Y-7510000D01*
X9277500Y-7470000D02*
X9237500Y-7510000D01*
X9320000Y-13250000D02*
X9360000Y-13290000D01*
X9360000Y-13250000D02*
X9320000Y-13290000D01*
X9352600Y-8057200D02*
X9392600Y-8097200D01*
X9392600Y-8057200D02*
X9352600Y-8097200D01*
X9352600Y-8420000D02*
X9392600Y-8460000D01*
X9392600Y-8420000D02*
X9352600Y-8460000D01*
X9377000Y-13540000D02*
X9417000Y-13580000D01*
X9417000Y-13540000D02*
X9377000Y-13580000D01*
X9384500Y-15035500D02*
X9424500Y-15075500D01*
X9424500Y-15035500D02*
X9384500Y-15075500D01*
X9430000Y-12780000D02*
X9470000Y-12820000D01*
X9470000Y-12780000D02*
X9430000Y-12820000D01*
X9462350Y-11579650D02*
X9502350Y-11619650D01*
X9502350Y-11579650D02*
X9462350Y-11619650D01*
X9555800Y-11918000D02*
X9595800Y-11958000D01*
X9595800Y-11918000D02*
X9555800Y-11958000D01*
X9555800Y-16363000D02*
X9595800Y-16403000D01*
X9595800Y-16363000D02*
X9555800Y-16403000D01*
X9564000Y-13150000D02*
X9604000Y-13190000D01*
X9604000Y-13150000D02*
X9564000Y-13190000D01*
X9580000Y-11266000D02*
X9620000Y-11306000D01*
X9620000Y-11266000D02*
X9580000Y-11306000D01*
X9580000Y-11580000D02*
X9620000Y-11620000D01*
X9620000Y-11580000D02*
X9580000Y-11620000D01*
X9580000Y-14560000D02*
X9620000Y-14600000D01*
X9620000Y-14560000D02*
X9580000Y-14600000D01*
X9682800Y-12654600D02*
X9722800Y-12694600D01*
X9722800Y-12654600D02*
X9682800Y-12694600D01*
X9830000Y-12780000D02*
X9870000Y-12820000D01*
X9870000Y-12780000D02*
X9830000Y-12820000D01*
X9830500Y-11989500D02*
X9870500Y-12029500D01*
X9870500Y-11989500D02*
X9830500Y-12029500D01*
X9835200Y-12273600D02*
X9875200Y-12313600D01*
X9875200Y-12273600D02*
X9835200Y-12313600D01*
X9980000Y-12030000D02*
X10020000Y-12070000D01*
X10020000Y-12030000D02*
X9980000Y-12070000D01*
X9990000Y-12590000D02*
X10030000Y-12630000D01*
X10030000Y-12590000D02*
X9990000Y-12630000D01*
X9991600Y-12430000D02*
X10031600Y-12470000D01*
X10031600Y-12430000D02*
X9991600Y-12470000D01*
X10000000Y-9086200D02*
X10040000Y-9126200D01*
X10040000Y-9086200D02*
X10000000Y-9126200D01*
X10000000Y-10920000D02*
X10040000Y-10960000D01*
X10040000Y-10920000D02*
X10000000Y-10960000D01*
X10000000Y-11740000D02*
X10040000Y-11780000D01*
X10040000Y-11740000D02*
X10000000Y-11780000D01*
X10055000Y-13062000D02*
X10095000Y-13102000D01*
X10095000Y-13062000D02*
X10055000Y-13102000D01*
X10114600Y-14458000D02*
X10154600Y-14498000D01*
X10154600Y-14458000D02*
X10114600Y-14498000D01*
X10114600Y-14762800D02*
X10154600Y-14802800D01*
X10154600Y-14762800D02*
X10114600Y-14802800D01*
X10168000Y-12867000D02*
X10208000Y-12907000D01*
X10208000Y-12867000D02*
X10168000Y-12907000D01*
X10180000Y-11280000D02*
X10220000Y-11320000D01*
X10220000Y-11280000D02*
X10180000Y-11320000D01*
X10370000Y-12432000D02*
X10410000Y-12472000D01*
X10410000Y-12432000D02*
X10370000Y-12472000D01*
X10380000Y-12926000D02*
X10420000Y-12966000D01*
X10420000Y-12926000D02*
X10380000Y-12966000D01*
X10673400Y-11943400D02*
X10713400Y-11983400D01*
X10713400Y-11943400D02*
X10673400Y-11983400D01*
X10680000Y-13491001D02*
X10720000Y-13531001D01*
X10720000Y-13491001D02*
X10680000Y-13531001D01*
X10680000Y-13930000D02*
X10720000Y-13970000D01*
X10720000Y-13930000D02*
X10680000Y-13970000D01*
X10710000Y-12290000D02*
X10750000Y-12330000D01*
X10750000Y-12290000D02*
X10710000Y-12330000D01*
X10740000Y-14080000D02*
X10780000Y-14120000D01*
X10780000Y-14080000D02*
X10740000Y-14120000D01*
X10750000Y-14610000D02*
X10790000Y-14650000D01*
X10790000Y-14610000D02*
X10750000Y-14650000D01*
X10780000Y-15180000D02*
X10820000Y-15220000D01*
X10820000Y-15180000D02*
X10780000Y-15220000D01*
X10780000Y-15430000D02*
X10820000Y-15470000D01*
X10820000Y-15430000D02*
X10780000Y-15470000D01*
X10790000Y-7362000D02*
X10830000Y-7402000D01*
X10830000Y-7362000D02*
X10790000Y-7402000D01*
X10795000Y-13689000D02*
X10835000Y-13729000D01*
X10835000Y-13689000D02*
X10795000Y-13729000D01*
X11060000Y-14130000D02*
X11100000Y-14170000D01*
X11100000Y-14130000D02*
X11060000Y-14170000D01*
X11180000Y-13520000D02*
X11220000Y-13560000D01*
X11220000Y-13520000D02*
X11180000Y-13560000D01*
X11210907Y-13897175D02*
X11250907Y-13937175D01*
X11250907Y-13897175D02*
X11210907Y-13937175D01*
X11300000Y-14020000D02*
X11340000Y-14060000D01*
X11340000Y-14020000D02*
X11300000Y-14060000D01*
X11435400Y-13061000D02*
X11475400Y-13101000D01*
X11475400Y-13061000D02*
X11435400Y-13101000D01*
X11480000Y-14440000D02*
X11520000Y-14480000D01*
X11520000Y-14440000D02*
X11480000Y-14480000D01*
X11613200Y-15118400D02*
X11653200Y-15158400D01*
X11653200Y-15118400D02*
X11613200Y-15158400D01*
X11664000Y-13772200D02*
X11704000Y-13812200D01*
X11704000Y-13772200D02*
X11664000Y-13812200D01*
X11705000Y-7605000D02*
X11745000Y-7645000D01*
X11745000Y-7605000D02*
X11705000Y-7645000D01*
X14760000Y-8125000D02*
X14800000Y-8165000D01*
X14800000Y-8125000D02*
X14760000Y-8165000D01*
X14818000Y-9371000D02*
X14858000Y-9411000D01*
X14858000Y-9371000D02*
X14818000Y-9411000D01*
X14895000Y-10055000D02*
X14935000Y-10095000D01*
X14935000Y-10055000D02*
X14895000Y-10095000D01*
X14942500Y-9847500D02*
X14982500Y-9887500D01*
X14982500Y-9847500D02*
X14942500Y-9887500D01*
X14987500Y-9760000D02*
X15027500Y-9800000D01*
X15027500Y-9760000D02*
X14987500Y-9800000D01*
X15010000Y-9650000D02*
X15050000Y-9690000D01*
X15050000Y-9650000D02*
X15010000Y-9690000D01*
X15025000Y-9927500D02*
X15065000Y-9967500D01*
X15065000Y-9927500D02*
X15025000Y-9967500D01*
X15152500Y-9495000D02*
X15192500Y-9535000D01*
X15192500Y-9495000D02*
X15152500Y-9535000D01*
X15154000Y-15064000D02*
X15194000Y-15104000D01*
X15194000Y-15064000D02*
X15154000Y-15104000D01*
X15157000Y-8651000D02*
X15197000Y-8691000D01*
X15197000Y-8651000D02*
X15157000Y-8691000D01*
X15402500Y-9262500D02*
X15442500Y-9302500D01*
X15442500Y-9262500D02*
X15402500Y-9302500D01*
X15490000Y-7395000D02*
X15530000Y-7435000D01*
X15530000Y-7395000D02*
X15490000Y-7435000D01*
X15516000Y-18295000D02*
X15556000Y-18335000D01*
X15556000Y-18295000D02*
X15516000Y-18335000D01*
X15825000Y-9920000D02*
X15865000Y-9960000D01*
X15865000Y-9920000D02*
X15825000Y-9960000D01*
X15882500Y-9777500D02*
X15922500Y-9817500D01*
X15922500Y-9777500D02*
X15882500Y-9817500D01*
X16034500Y-12796500D02*
X16074500Y-12836500D01*
X16074500Y-12796500D02*
X16034500Y-12836500D01*
X16281000Y-10048000D02*
X16321000Y-10088000D01*
X16321000Y-10048000D02*
X16281000Y-10088000D01*
X16312500Y-18115000D02*
X16352500Y-18155000D01*
X16352500Y-18115000D02*
X16312500Y-18155000D01*
X16349000Y-12795000D02*
X16389000Y-12835000D01*
X16389000Y-12795000D02*
X16349000Y-12835000D01*
X16350000Y-9630000D02*
X16390000Y-9670000D01*
X16390000Y-9630000D02*
X16350000Y-9670000D01*
X16503000Y-13700000D02*
X16543000Y-13740000D01*
X16543000Y-13700000D02*
X16503000Y-13740000D01*
X16548000Y-14797000D02*
X16588000Y-14837000D01*
X16588000Y-14797000D02*
X16548000Y-14837000D01*
X16975000Y-12989000D02*
X17015000Y-13029000D01*
X17015000Y-12989000D02*
X16975000Y-13029000D01*
X17055000Y-17407500D02*
X17095000Y-17447500D01*
X17095000Y-17407500D02*
X17055000Y-17447500D01*
X17406000Y-8777000D02*
X17446000Y-8817000D01*
X17446000Y-8777000D02*
X17406000Y-8817000D01*
X17624000Y-8110000D02*
X17664000Y-8150000D01*
X17664000Y-8110000D02*
X17624000Y-8150000D01*
X17798000Y-8826000D02*
X17838000Y-8866000D01*
X17838000Y-8826000D02*
X17798000Y-8866000D01*
X17820000Y-9806000D02*
X17860000Y-9846000D01*
X17860000Y-9806000D02*
X17820000Y-9846000D01*
X17206500Y-16679500D02*
G75*
G03*
X17130500Y-16679500I-38000J0D01*
G01*
X17130500Y-16679500D02*
G75*
G03*
X17206500Y-16679500I38000J0D01*
G01*
X17206500Y-16933500D02*
G75*
G03*
X17130500Y-16933500I-38000J0D01*
G01*
X17130500Y-16933500D02*
G75*
G03*
X17206500Y-16933500I38000J0D01*
G01*
X17206500Y-17187500D02*
G75*
G03*
X17130500Y-17187500I-38000J0D01*
G01*
X17130500Y-17187500D02*
G75*
G03*
X17206500Y-17187500I38000J0D01*
G01*
X17460500Y-16552500D02*
G75*
G03*
X17384500Y-16552500I-38000J0D01*
G01*
X17384500Y-16552500D02*
G75*
G03*
X17460500Y-16552500I38000J0D01*
G01*
X17460500Y-16806500D02*
G75*
G03*
X17384500Y-16806500I-38000J0D01*
G01*
X17384500Y-16806500D02*
G75*
G03*
X17460500Y-16806500I38000J0D01*
G01*
X17460500Y-17060500D02*
G75*
G03*
X17384500Y-17060500I-38000J0D01*
G01*
X17384500Y-17060500D02*
G75*
G03*
X17460500Y-17060500I38000J0D01*
G01*
X6438735Y-4887600D02*
X6438735Y-4967600D01*
X6398735Y-4927600D02*
X6478735Y-4927600D01*
X6788735Y-4887600D02*
X6788735Y-4967600D01*
X6748735Y-4927600D02*
X6828735Y-4927600D01*
X17291000Y-12998000D02*
X17291000Y-13078000D01*
X17251000Y-13038000D02*
X17331000Y-13038000D01*
X17291000Y-13252000D02*
X17291000Y-13332000D01*
X17251000Y-13292000D02*
X17331000Y-13292000D01*
X17291000Y-13506000D02*
X17291000Y-13586000D01*
X17251000Y-13546000D02*
X17331000Y-13546000D01*
X17291000Y-13760000D02*
X17291000Y-13840000D01*
X17251000Y-13800000D02*
X17331000Y-13800000D01*
X18053000Y-12998000D02*
X18053000Y-13078000D01*
X18013000Y-13038000D02*
X18093000Y-13038000D01*
X18053000Y-13252000D02*
X18053000Y-13332000D01*
X18013000Y-13292000D02*
X18093000Y-13292000D01*
X18053000Y-13506000D02*
X18053000Y-13586000D01*
X18013000Y-13546000D02*
X18093000Y-13546000D01*
X18053000Y-13760000D02*
X18053000Y-13840000D01*
X18013000Y-13800000D02*
X18093000Y-13800000D01*
X18200952Y-8697502D02*
X18200952Y-8627498D01*
X18130948Y-8627498D01*
X18130948Y-8697502D01*
X18200952Y-8697502D01*
X18200952Y-9147502D02*
X18200952Y-9077498D01*
X18130948Y-9077498D01*
X18130948Y-9147502D01*
X18200952Y-9147502D01*
X18200952Y-9713502D02*
X18200952Y-9643498D01*
X18130948Y-9643498D01*
X18130948Y-9713502D01*
X18200952Y-9713502D01*
X18200952Y-10163502D02*
X18200952Y-10093498D01*
X18130948Y-10093498D01*
X18130948Y-10163502D01*
X18200952Y-10163502D01*
X15391500Y-8691000D02*
X15441500Y-8641000D01*
X15391500Y-8591000D01*
X15341500Y-8641000D01*
X15391500Y-8691000D01*
X15645500Y-8691000D02*
X15695500Y-8641000D01*
X15645500Y-8591000D01*
X15595500Y-8641000D01*
X15645500Y-8691000D01*
X15746000Y-14106000D02*
X15796000Y-14056000D01*
X15746000Y-14006000D01*
X15696000Y-14056000D01*
X15746000Y-14106000D01*
X15746000Y-14360000D02*
X15796000Y-14310000D01*
X15746000Y-14260000D01*
X15696000Y-14310000D01*
X15746000Y-14360000D01*
X15746000Y-14614000D02*
X15796000Y-14564000D01*
X15746000Y-14514000D01*
X15696000Y-14564000D01*
X15746000Y-14614000D01*
X15746000Y-14868000D02*
X15796000Y-14818000D01*
X15746000Y-14768000D01*
X15696000Y-14818000D01*
X15746000Y-14868000D01*
X15746000Y-15122000D02*
X15796000Y-15072000D01*
X15746000Y-15022000D01*
X15696000Y-15072000D01*
X15746000Y-15122000D01*
X15746000Y-15376000D02*
X15796000Y-15326000D01*
X15746000Y-15276000D01*
X15696000Y-15326000D01*
X15746000Y-15376000D01*
X15746000Y-15630000D02*
X15796000Y-15580000D01*
X15746000Y-15530000D01*
X15696000Y-15580000D01*
X15746000Y-15630000D01*
X15746000Y-15884000D02*
X15796000Y-15834000D01*
X15746000Y-15784000D01*
X15696000Y-15834000D01*
X15746000Y-15884000D01*
X15746000Y-16138000D02*
X15796000Y-16088000D01*
X15746000Y-16038000D01*
X15696000Y-16088000D01*
X15746000Y-16138000D01*
X15746000Y-16392000D02*
X15796000Y-16342000D01*
X15746000Y-16292000D01*
X15696000Y-16342000D01*
X15746000Y-16392000D01*
X15746000Y-16646000D02*
X15796000Y-16596000D01*
X15746000Y-16546000D01*
X15696000Y-16596000D01*
X15746000Y-16646000D01*
X15746000Y-16900000D02*
X15796000Y-16850000D01*
X15746000Y-16800000D01*
X15696000Y-16850000D01*
X15746000Y-16900000D01*
X15746000Y-17154000D02*
X15796000Y-17104000D01*
X15746000Y-17054000D01*
X15696000Y-17104000D01*
X15746000Y-17154000D01*
X15899500Y-8691000D02*
X15949500Y-8641000D01*
X15899500Y-8591000D01*
X15849500Y-8641000D01*
X15899500Y-8691000D01*
X16000000Y-14106000D02*
X16050000Y-14056000D01*
X16000000Y-14006000D01*
X15950000Y-14056000D01*
X16000000Y-14106000D01*
X16000000Y-14360000D02*
X16050000Y-14310000D01*
X16000000Y-14260000D01*
X15950000Y-14310000D01*
X16000000Y-14360000D01*
X16000000Y-14614000D02*
X16050000Y-14564000D01*
X16000000Y-14514000D01*
X15950000Y-14564000D01*
X16000000Y-14614000D01*
X16000000Y-14868000D02*
X16050000Y-14818000D01*
X16000000Y-14768000D01*
X15950000Y-14818000D01*
X16000000Y-14868000D01*
X16000000Y-15122000D02*
X16050000Y-15072000D01*
X16000000Y-15022000D01*
X15950000Y-15072000D01*
X16000000Y-15122000D01*
X16000000Y-15376000D02*
X16050000Y-15326000D01*
X16000000Y-15276000D01*
X15950000Y-15326000D01*
X16000000Y-15376000D01*
X16000000Y-15630000D02*
X16050000Y-15580000D01*
X16000000Y-15530000D01*
X15950000Y-15580000D01*
X16000000Y-15630000D01*
X16000000Y-15884000D02*
X16050000Y-15834000D01*
X16000000Y-15784000D01*
X15950000Y-15834000D01*
X16000000Y-15884000D01*
X16000000Y-16138000D02*
X16050000Y-16088000D01*
X16000000Y-16038000D01*
X15950000Y-16088000D01*
X16000000Y-16138000D01*
X16000000Y-16392000D02*
X16050000Y-16342000D01*
X16000000Y-16292000D01*
X15950000Y-16342000D01*
X16000000Y-16392000D01*
X16000000Y-16646000D02*
X16050000Y-16596000D01*
X16000000Y-16546000D01*
X15950000Y-16596000D01*
X16000000Y-16646000D01*
X16000000Y-16900000D02*
X16050000Y-16850000D01*
X16000000Y-16800000D01*
X15950000Y-16850000D01*
X16000000Y-16900000D01*
X16000000Y-17154000D02*
X16050000Y-17104000D01*
X16000000Y-17054000D01*
X15950000Y-17104000D01*
X16000000Y-17154000D01*
X16153500Y-8691000D02*
X16203500Y-8641000D01*
X16153500Y-8591000D01*
X16103500Y-8641000D01*
X16153500Y-8691000D01*
X16407500Y-8691000D02*
X16457500Y-8641000D01*
X16407500Y-8591000D01*
X16357500Y-8641000D01*
X16407500Y-8691000D01*
X16661500Y-8691000D02*
X16711500Y-8641000D01*
X16661500Y-8591000D01*
X16611500Y-8641000D01*
X16661500Y-8691000D01*
X16725000Y-10850000D02*
X16775000Y-10800000D01*
X16725000Y-10750000D01*
X16675000Y-10800000D01*
X16725000Y-10850000D01*
X16725000Y-11104000D02*
X16775000Y-11054000D01*
X16725000Y-11004000D01*
X16675000Y-11054000D01*
X16725000Y-11104000D01*
X16725000Y-11358000D02*
X16775000Y-11308000D01*
X16725000Y-11258000D01*
X16675000Y-11308000D01*
X16725000Y-11358000D01*
X17144000Y-11079000D02*
X17194000Y-11029000D01*
X17144000Y-10979000D01*
X17094000Y-11029000D01*
X17144000Y-11079000D01*
X17094000Y-10979000D02*
X17094000Y-11079000D01*
X17094000Y-11079000D02*
G75*
G03*
X17194000Y-11079000I50000J0D01*
G01*
X17194000Y-11079000D02*
X17194000Y-10979000D01*
X17194000Y-10979000D02*
G75*
G03*
X17094000Y-10979000I-50000J0D01*
G01*
X17144000Y-12140000D02*
X17194000Y-12090000D01*
X17144000Y-12040000D01*
X17094000Y-12090000D01*
X17144000Y-12140000D01*
X17094000Y-12040000D02*
X17094000Y-12140000D01*
X17094000Y-12140000D02*
G75*
G03*
X17194000Y-12140000I50000J0D01*
G01*
X17194000Y-12140000D02*
X17194000Y-12040000D01*
X17194000Y-12040000D02*
G75*
G03*
X17094000Y-12040000I-50000J0D01*
G01*
X17160000Y-15720000D02*
X17210000Y-15670000D01*
X17160000Y-15620000D01*
X17110000Y-15670000D01*
X17160000Y-15720000D01*
X17110000Y-15620000D02*
X17110000Y-15720000D01*
X17110000Y-15720000D02*
G75*
G03*
X17210000Y-15720000I50000J0D01*
G01*
X17210000Y-15720000D02*
X17210000Y-15620000D01*
X17210000Y-15620000D02*
G75*
G03*
X17110000Y-15620000I-50000J0D01*
G01*
X17514000Y-11279000D02*
X17564000Y-11229000D01*
X17514000Y-11179000D01*
X17464000Y-11229000D01*
X17514000Y-11279000D01*
X17464000Y-11179000D02*
X17464000Y-11279000D01*
X17464000Y-11279000D02*
G75*
G03*
X17564000Y-11279000I50000J0D01*
G01*
X17564000Y-11279000D02*
X17564000Y-11179000D01*
X17564000Y-11179000D02*
G75*
G03*
X17464000Y-11179000I-50000J0D01*
G01*
X17514000Y-12340000D02*
X17564000Y-12290000D01*
X17514000Y-12240000D01*
X17464000Y-12290000D01*
X17514000Y-12340000D01*
X17464000Y-12240000D02*
X17464000Y-12340000D01*
X17464000Y-12340000D02*
G75*
G03*
X17564000Y-12340000I50000J0D01*
G01*
X17564000Y-12340000D02*
X17564000Y-12240000D01*
X17564000Y-12240000D02*
G75*
G03*
X17464000Y-12240000I-50000J0D01*
G01*
X17530000Y-15920000D02*
X17580000Y-15870000D01*
X17530000Y-15820000D01*
X17480000Y-15870000D01*
X17530000Y-15920000D01*
X17480000Y-15820000D02*
X17480000Y-15920000D01*
X17480000Y-15920000D02*
G75*
G03*
X17580000Y-15920000I50000J0D01*
G01*
X17580000Y-15920000D02*
X17580000Y-15820000D01*
X17580000Y-15820000D02*
G75*
G03*
X17480000Y-15820000I-50000J0D01*
G01*
X17694000Y-11079000D02*
X17744000Y-11029000D01*
X17694000Y-10979000D01*
X17644000Y-11029000D01*
X17694000Y-11079000D01*
X17644000Y-10979000D02*
X17644000Y-11079000D01*
X17644000Y-11079000D02*
G75*
G03*
X17744000Y-11079000I50000J0D01*
G01*
X17744000Y-11079000D02*
X17744000Y-10979000D01*
X17744000Y-10979000D02*
G75*
G03*
X17644000Y-10979000I-50000J0D01*
G01*
X17694000Y-12140000D02*
X17744000Y-12090000D01*
X17694000Y-12040000D01*
X17644000Y-12090000D01*
X17694000Y-12140000D01*
X17644000Y-12040000D02*
X17644000Y-12140000D01*
X17644000Y-12140000D02*
G75*
G03*
X17744000Y-12140000I50000J0D01*
G01*
X17744000Y-12140000D02*
X17744000Y-12040000D01*
X17744000Y-12040000D02*
G75*
G03*
X17644000Y-12040000I-50000J0D01*
G01*
X17710000Y-15720000D02*
X17760000Y-15670000D01*
X17710000Y-15620000D01*
X17660000Y-15670000D01*
X17710000Y-15720000D01*
X17660000Y-15620000D02*
X17660000Y-15720000D01*
X17660000Y-15720000D02*
G75*
G03*
X17760000Y-15720000I50000J0D01*
G01*
X17760000Y-15720000D02*
X17760000Y-15620000D01*
X17760000Y-15620000D02*
G75*
G03*
X17660000Y-15620000I-50000J0D01*
G01*
X18064000Y-11279000D02*
X18114000Y-11229000D01*
X18064000Y-11179000D01*
X18014000Y-11229000D01*
X18064000Y-11279000D01*
X18014000Y-11179000D02*
X18014000Y-11279000D01*
X18014000Y-11279000D02*
G75*
G03*
X18114000Y-11279000I50000J0D01*
G01*
X18114000Y-11279000D02*
X18114000Y-11179000D01*
X18114000Y-11179000D02*
G75*
G03*
X18014000Y-11179000I-50000J0D01*
G01*
X18064000Y-12340000D02*
X18114000Y-12290000D01*
X18064000Y-12240000D01*
X18014000Y-12290000D01*
X18064000Y-12340000D01*
X18014000Y-12240000D02*
X18014000Y-12340000D01*
X18014000Y-12340000D02*
G75*
G03*
X18114000Y-12340000I50000J0D01*
G01*
X18114000Y-12340000D02*
X18114000Y-12240000D01*
X18114000Y-12240000D02*
G75*
G03*
X18014000Y-12240000I-50000J0D01*
G01*
X18080000Y-15920000D02*
X18130000Y-15870000D01*
X18080000Y-15820000D01*
X18030000Y-15870000D01*
X18080000Y-15920000D01*
X18030000Y-15820000D02*
X18030000Y-15920000D01*
X18030000Y-15920000D02*
G75*
G03*
X18130000Y-15920000I50000J0D01*
G01*
X18130000Y-15920000D02*
X18130000Y-15820000D01*
X18130000Y-15820000D02*
G75*
G03*
X18030000Y-15820000I-50000J0D01*
G01*
X18304000Y-11079000D02*
X18354000Y-11029000D01*
X18304000Y-10979000D01*
X18254000Y-11029000D01*
X18304000Y-11079000D01*
X18254000Y-10979000D02*
X18254000Y-11079000D01*
X18254000Y-11079000D02*
G75*
G03*
X18354000Y-11079000I50000J0D01*
G01*
X18354000Y-11079000D02*
X18354000Y-10979000D01*
X18354000Y-10979000D02*
G75*
G03*
X18254000Y-10979000I-50000J0D01*
G01*
X18304000Y-12140000D02*
X18354000Y-12090000D01*
X18304000Y-12040000D01*
X18254000Y-12090000D01*
X18304000Y-12140000D01*
X18254000Y-12040000D02*
X18254000Y-12140000D01*
X18254000Y-12140000D02*
G75*
G03*
X18354000Y-12140000I50000J0D01*
G01*
X18354000Y-12140000D02*
X18354000Y-12040000D01*
X18354000Y-12040000D02*
G75*
G03*
X18254000Y-12040000I-50000J0D01*
G01*
X18320000Y-15720000D02*
X18370000Y-15670000D01*
X18320000Y-15620000D01*
X18270000Y-15670000D01*
X18320000Y-15720000D01*
X18270000Y-15620000D02*
X18270000Y-15720000D01*
X18270000Y-15720000D02*
G75*
G03*
X18370000Y-15720000I50000J0D01*
G01*
X18370000Y-15720000D02*
X18370000Y-15620000D01*
X18370000Y-15620000D02*
G75*
G03*
X18270000Y-15620000I-50000J0D01*
G01*
D13*
X12724000Y-7649500D02*
X12835000Y-7760500D01*
X12835000Y-7649500D02*
X12724000Y-7760500D01*
X12835000Y-7705000D02*
G75*
G03*
X12724000Y-7705000I-55500J0D01*
G01*
X12724000Y-7705000D02*
G75*
G03*
X12835000Y-7705000I55500J0D01*
G01*
X12724000Y-7903500D02*
X12835000Y-8014500D01*
X12835000Y-7903500D02*
X12724000Y-8014500D01*
X12835000Y-7959000D02*
G75*
G03*
X12724000Y-7959000I-55500J0D01*
G01*
X12724000Y-7959000D02*
G75*
G03*
X12835000Y-7959000I55500J0D01*
G01*
X12978000Y-7649500D02*
X13089000Y-7760500D01*
X13089000Y-7649500D02*
X12978000Y-7760500D01*
X13089000Y-7705000D02*
G75*
G03*
X12978000Y-7705000I-55500J0D01*
G01*
X12978000Y-7705000D02*
G75*
G03*
X13089000Y-7705000I55500J0D01*
G01*
X12978000Y-7903500D02*
X13089000Y-8014500D01*
X13089000Y-7903500D02*
X12978000Y-8014500D01*
X13089000Y-7959000D02*
G75*
G03*
X12978000Y-7959000I-55500J0D01*
G01*
X12978000Y-7959000D02*
G75*
G03*
X13089000Y-7959000I55500J0D01*
G01*
X13232000Y-7649500D02*
X13343000Y-7760500D01*
X13343000Y-7649500D02*
X13232000Y-7760500D01*
X13343000Y-7705000D02*
G75*
G03*
X13232000Y-7705000I-55500J0D01*
G01*
X13232000Y-7705000D02*
G75*
G03*
X13343000Y-7705000I55500J0D01*
G01*
X13232000Y-7903500D02*
X13343000Y-8014500D01*
X13343000Y-7903500D02*
X13232000Y-8014500D01*
X13343000Y-7959000D02*
G75*
G03*
X13232000Y-7959000I-55500J0D01*
G01*
X13232000Y-7959000D02*
G75*
G03*
X13343000Y-7959000I55500J0D01*
G01*
X13486000Y-7649500D02*
X13597000Y-7760500D01*
X13597000Y-7649500D02*
X13486000Y-7760500D01*
X13597000Y-7705000D02*
G75*
G03*
X13486000Y-7705000I-55500J0D01*
G01*
X13486000Y-7705000D02*
G75*
G03*
X13597000Y-7705000I55500J0D01*
G01*
X13486000Y-7903500D02*
X13597000Y-8014500D01*
X13597000Y-7903500D02*
X13486000Y-8014500D01*
X13597000Y-7959000D02*
G75*
G03*
X13486000Y-7959000I-55500J0D01*
G01*
X13486000Y-7959000D02*
G75*
G03*
X13597000Y-7959000I55500J0D01*
G01*
X13740000Y-7649500D02*
X13851000Y-7760500D01*
X13851000Y-7649500D02*
X13740000Y-7760500D01*
X13851000Y-7705000D02*
G75*
G03*
X13740000Y-7705000I-55500J0D01*
G01*
X13740000Y-7705000D02*
G75*
G03*
X13851000Y-7705000I55500J0D01*
G01*
X13740000Y-7903500D02*
X13851000Y-8014500D01*
X13851000Y-7903500D02*
X13740000Y-8014500D01*
X13851000Y-7959000D02*
G75*
G03*
X13740000Y-7959000I-55500J0D01*
G01*
X13740000Y-7959000D02*
G75*
G03*
X13851000Y-7959000I55500J0D01*
G01*
X13994000Y-7649500D02*
X14105000Y-7760500D01*
X14105000Y-7649500D02*
X13994000Y-7760500D01*
X14105000Y-7705000D02*
G75*
G03*
X13994000Y-7705000I-55500J0D01*
G01*
X13994000Y-7705000D02*
G75*
G03*
X14105000Y-7705000I55500J0D01*
G01*
X13994000Y-7903500D02*
X14105000Y-8014500D01*
X14105000Y-7903500D02*
X13994000Y-8014500D01*
X14105000Y-7959000D02*
G75*
G03*
X13994000Y-7959000I-55500J0D01*
G01*
X13994000Y-7959000D02*
G75*
G03*
X14105000Y-7959000I55500J0D01*
G01*
X14248000Y-7649500D02*
X14359000Y-7760500D01*
X14359000Y-7649500D02*
X14248000Y-7760500D01*
X14359000Y-7705000D02*
G75*
G03*
X14248000Y-7705000I-55500J0D01*
G01*
X14248000Y-7705000D02*
G75*
G03*
X14359000Y-7705000I55500J0D01*
G01*
X14248000Y-7903500D02*
X14359000Y-8014500D01*
X14359000Y-7903500D02*
X14248000Y-8014500D01*
X14359000Y-7959000D02*
G75*
G03*
X14248000Y-7959000I-55500J0D01*
G01*
X14248000Y-7959000D02*
G75*
G03*
X14359000Y-7959000I55500J0D01*
G01*
X14502000Y-7649500D02*
X14613000Y-7760500D01*
X14613000Y-7649500D02*
X14502000Y-7760500D01*
X14613000Y-7705000D02*
G75*
G03*
X14502000Y-7705000I-55500J0D01*
G01*
X14502000Y-7705000D02*
G75*
G03*
X14613000Y-7705000I55500J0D01*
G01*
X14502000Y-7903500D02*
X14613000Y-8014500D01*
X14613000Y-7903500D02*
X14502000Y-8014500D01*
X14613000Y-7959000D02*
G75*
G03*
X14502000Y-7959000I-55500J0D01*
G01*
X14502000Y-7959000D02*
G75*
G03*
X14613000Y-7959000I55500J0D01*
G01*
X14756000Y-7649500D02*
X14867000Y-7760500D01*
X14867000Y-7649500D02*
X14756000Y-7760500D01*
X14867000Y-7705000D02*
G75*
G03*
X14756000Y-7705000I-55500J0D01*
G01*
X14756000Y-7705000D02*
G75*
G03*
X14867000Y-7705000I55500J0D01*
G01*
X14756000Y-7903500D02*
X14867000Y-8014500D01*
X14867000Y-7903500D02*
X14756000Y-8014500D01*
X14867000Y-7959000D02*
G75*
G03*
X14756000Y-7959000I-55500J0D01*
G01*
X14756000Y-7959000D02*
G75*
G03*
X14867000Y-7959000I55500J0D01*
G01*
X15010000Y-7649500D02*
X15121000Y-7760500D01*
X15121000Y-7649500D02*
X15010000Y-7760500D01*
X15121000Y-7705000D02*
G75*
G03*
X15010000Y-7705000I-55500J0D01*
G01*
X15010000Y-7705000D02*
G75*
G03*
X15121000Y-7705000I55500J0D01*
G01*
X15010000Y-7903500D02*
X15121000Y-8014500D01*
X15121000Y-7903500D02*
X15010000Y-8014500D01*
X15121000Y-7959000D02*
G75*
G03*
X15010000Y-7959000I-55500J0D01*
G01*
X15010000Y-7959000D02*
G75*
G03*
X15121000Y-7959000I55500J0D01*
G01*
X15264000Y-7649500D02*
X15375000Y-7760500D01*
X15375000Y-7649500D02*
X15264000Y-7760500D01*
X15375000Y-7705000D02*
G75*
G03*
X15264000Y-7705000I-55500J0D01*
G01*
X15264000Y-7705000D02*
G75*
G03*
X15375000Y-7705000I55500J0D01*
G01*
X15264000Y-7903500D02*
X15375000Y-8014500D01*
X15375000Y-7903500D02*
X15264000Y-8014500D01*
X15375000Y-7959000D02*
G75*
G03*
X15264000Y-7959000I-55500J0D01*
G01*
X15264000Y-7959000D02*
G75*
G03*
X15375000Y-7959000I55500J0D01*
G01*
X15518000Y-7649500D02*
X15629000Y-7760500D01*
X15629000Y-7649500D02*
X15518000Y-7760500D01*
X15629000Y-7705000D02*
G75*
G03*
X15518000Y-7705000I-55500J0D01*
G01*
X15518000Y-7705000D02*
G75*
G03*
X15629000Y-7705000I55500J0D01*
G01*
X15518000Y-7903500D02*
X15629000Y-8014500D01*
X15629000Y-7903500D02*
X15518000Y-8014500D01*
X15629000Y-7959000D02*
G75*
G03*
X15518000Y-7959000I-55500J0D01*
G01*
X15518000Y-7959000D02*
G75*
G03*
X15629000Y-7959000I55500J0D01*
G01*
X15772000Y-7649500D02*
X15883000Y-7760500D01*
X15883000Y-7649500D02*
X15772000Y-7760500D01*
X15883000Y-7705000D02*
G75*
G03*
X15772000Y-7705000I-55500J0D01*
G01*
X15772000Y-7705000D02*
G75*
G03*
X15883000Y-7705000I55500J0D01*
G01*
X15772000Y-7903500D02*
X15883000Y-8014500D01*
X15883000Y-7903500D02*
X15772000Y-8014500D01*
X15883000Y-7959000D02*
G75*
G03*
X15772000Y-7959000I-55500J0D01*
G01*
X15772000Y-7959000D02*
G75*
G03*
X15883000Y-7959000I55500J0D01*
G01*
X16026000Y-7649500D02*
X16137000Y-7760500D01*
X16137000Y-7649500D02*
X16026000Y-7760500D01*
X16137000Y-7705000D02*
G75*
G03*
X16026000Y-7705000I-55500J0D01*
G01*
X16026000Y-7705000D02*
G75*
G03*
X16137000Y-7705000I55500J0D01*
G01*
X16026000Y-7903500D02*
X16137000Y-8014500D01*
X16137000Y-7903500D02*
X16026000Y-8014500D01*
X16137000Y-7959000D02*
G75*
G03*
X16026000Y-7959000I-55500J0D01*
G01*
X16026000Y-7959000D02*
G75*
G03*
X16137000Y-7959000I55500J0D01*
G01*
X16280000Y-7649500D02*
X16391000Y-7760500D01*
X16391000Y-7649500D02*
X16280000Y-7760500D01*
X16391000Y-7705000D02*
G75*
G03*
X16280000Y-7705000I-55500J0D01*
G01*
X16280000Y-7705000D02*
G75*
G03*
X16391000Y-7705000I55500J0D01*
G01*
X16280000Y-7903500D02*
X16391000Y-8014500D01*
X16391000Y-7903500D02*
X16280000Y-8014500D01*
X16391000Y-7959000D02*
G75*
G03*
X16280000Y-7959000I-55500J0D01*
G01*
X16280000Y-7959000D02*
G75*
G03*
X16391000Y-7959000I55500J0D01*
G01*
X16534000Y-7649500D02*
X16645000Y-7760500D01*
X16645000Y-7649500D02*
X16534000Y-7760500D01*
X16645000Y-7705000D02*
G75*
G03*
X16534000Y-7705000I-55500J0D01*
G01*
X16534000Y-7705000D02*
G75*
G03*
X16645000Y-7705000I55500J0D01*
G01*
X16534000Y-7903500D02*
X16645000Y-8014500D01*
X16645000Y-7903500D02*
X16534000Y-8014500D01*
X16645000Y-7959000D02*
G75*
G03*
X16534000Y-7959000I-55500J0D01*
G01*
X16534000Y-7959000D02*
G75*
G03*
X16645000Y-7959000I55500J0D01*
G01*
X16788000Y-7649500D02*
X16899000Y-7760500D01*
X16899000Y-7649500D02*
X16788000Y-7760500D01*
X16899000Y-7705000D02*
G75*
G03*
X16788000Y-7705000I-55500J0D01*
G01*
X16788000Y-7705000D02*
G75*
G03*
X16899000Y-7705000I55500J0D01*
G01*
X16788000Y-7903500D02*
X16899000Y-8014500D01*
X16899000Y-7903500D02*
X16788000Y-8014500D01*
X16899000Y-7959000D02*
G75*
G03*
X16788000Y-7959000I-55500J0D01*
G01*
X16788000Y-7959000D02*
G75*
G03*
X16899000Y-7959000I55500J0D01*
G01*
X17042000Y-7649500D02*
X17153000Y-7760500D01*
X17153000Y-7649500D02*
X17042000Y-7760500D01*
X17153000Y-7705000D02*
G75*
G03*
X17042000Y-7705000I-55500J0D01*
G01*
X17042000Y-7705000D02*
G75*
G03*
X17153000Y-7705000I55500J0D01*
G01*
X17042000Y-7903500D02*
X17153000Y-8014500D01*
X17153000Y-7903500D02*
X17042000Y-8014500D01*
X17153000Y-7959000D02*
G75*
G03*
X17042000Y-7959000I-55500J0D01*
G01*
X17042000Y-7959000D02*
G75*
G03*
X17153000Y-7959000I55500J0D01*
G01*
X17296000Y-7649500D02*
X17407000Y-7760500D01*
X17407000Y-7649500D02*
X17296000Y-7760500D01*
X17407000Y-7705000D02*
G75*
G03*
X17296000Y-7705000I-55500J0D01*
G01*
X17296000Y-7705000D02*
G75*
G03*
X17407000Y-7705000I55500J0D01*
G01*
X17296000Y-7903500D02*
X17407000Y-8014500D01*
X17407000Y-7903500D02*
X17296000Y-8014500D01*
X17407000Y-7959000D02*
G75*
G03*
X17296000Y-7959000I-55500J0D01*
G01*
X17296000Y-7959000D02*
G75*
G03*
X17407000Y-7959000I55500J0D01*
G01*
X17550000Y-7649500D02*
X17661000Y-7760500D01*
X17661000Y-7649500D02*
X17550000Y-7760500D01*
X17661000Y-7705000D02*
G75*
G03*
X17550000Y-7705000I-55500J0D01*
G01*
X17550000Y-7705000D02*
G75*
G03*
X17661000Y-7705000I55500J0D01*
G01*
X17550000Y-7903500D02*
X17661000Y-8014500D01*
X17661000Y-7903500D02*
X17550000Y-8014500D01*
X17661000Y-7959000D02*
G75*
G03*
X17550000Y-7959000I-55500J0D01*
G01*
X17550000Y-7959000D02*
G75*
G03*
X17661000Y-7959000I55500J0D01*
G01*
D14*
X17851950Y-8472500D02*
X17981950Y-8602500D01*
X17981950Y-8472500D02*
X17851950Y-8602500D01*
X17916950Y-8472500D02*
X17916950Y-8602500D01*
X17851950Y-8537500D02*
X17981950Y-8537500D01*
X17851950Y-9173500D02*
X17981950Y-9303500D01*
X17981950Y-9173500D02*
X17851950Y-9303500D01*
X17916950Y-9173500D02*
X17916950Y-9303500D01*
X17851950Y-9238500D02*
X17981950Y-9238500D01*
X17851950Y-9488500D02*
X17981950Y-9618500D01*
X17981950Y-9488500D02*
X17851950Y-9618500D01*
X17916950Y-9488500D02*
X17916950Y-9618500D01*
X17851950Y-9553500D02*
X17981950Y-9553500D01*
X17851950Y-10189500D02*
X17981950Y-10319500D01*
X17981950Y-10189500D02*
X17851950Y-10319500D01*
X17916950Y-10189500D02*
X17916950Y-10319500D01*
X17851950Y-10254500D02*
X17981950Y-10254500D01*
D15*
X17940000Y-4440000D02*
X18260000Y-4760000D01*
X18260000Y-4440000D02*
X17940000Y-4760000D01*
X18213138Y-4713138D02*
X18213138Y-4486862D01*
X17986862Y-4486862D01*
X17986862Y-4713138D01*
X18213138Y-4713138D01*
X17940000Y-18040000D02*
X18260000Y-18360000D01*
X18260000Y-18040000D02*
X17940000Y-18360000D01*
X18213138Y-18313138D02*
X18213138Y-18086862D01*
X17986862Y-18086862D01*
X17986862Y-18313138D01*
X18213138Y-18313138D01*
D11*
X4658277Y-19213984D02*
X4658277Y-19013984D01*
X4658277Y-19013984D02*
X4705896Y-19013984D01*
X4705896Y-19013984D02*
X4734467Y-19023508D01*
X4734467Y-19023508D02*
X4753515Y-19042555D01*
X4753515Y-19042555D02*
X4763039Y-19061603D01*
X4763039Y-19061603D02*
X4772563Y-19099698D01*
X4772563Y-19099698D02*
X4772563Y-19128270D01*
X4772563Y-19128270D02*
X4763039Y-19166365D01*
X4763039Y-19166365D02*
X4753515Y-19185412D01*
X4753515Y-19185412D02*
X4734467Y-19204460D01*
X4734467Y-19204460D02*
X4705896Y-19213984D01*
X4705896Y-19213984D02*
X4658277Y-19213984D01*
X4858277Y-19213984D02*
X4858277Y-19080650D01*
X4858277Y-19118746D02*
X4867801Y-19099698D01*
X4867801Y-19099698D02*
X4877324Y-19090174D01*
X4877324Y-19090174D02*
X4896372Y-19080650D01*
X4896372Y-19080650D02*
X4915420Y-19080650D01*
X4982086Y-19213984D02*
X4982086Y-19080650D01*
X4982086Y-19013984D02*
X4972563Y-19023508D01*
X4972563Y-19023508D02*
X4982086Y-19033031D01*
X4982086Y-19033031D02*
X4991610Y-19023508D01*
X4991610Y-19023508D02*
X4982086Y-19013984D01*
X4982086Y-19013984D02*
X4982086Y-19033031D01*
X5105896Y-19213984D02*
X5086848Y-19204460D01*
X5086848Y-19204460D02*
X5077324Y-19185412D01*
X5077324Y-19185412D02*
X5077324Y-19013984D01*
X5210658Y-19213984D02*
X5191610Y-19204460D01*
X5191610Y-19204460D02*
X5182086Y-19185412D01*
X5182086Y-19185412D02*
X5182086Y-19013984D01*
X5439229Y-19213984D02*
X5439229Y-19013984D01*
X5439229Y-19013984D02*
X5505896Y-19156841D01*
X5505896Y-19156841D02*
X5572563Y-19013984D01*
X5572563Y-19013984D02*
X5572563Y-19213984D01*
X5753515Y-19213984D02*
X5753515Y-19109222D01*
X5753515Y-19109222D02*
X5743991Y-19090174D01*
X5743991Y-19090174D02*
X5724943Y-19080650D01*
X5724943Y-19080650D02*
X5686848Y-19080650D01*
X5686848Y-19080650D02*
X5667801Y-19090174D01*
X5753515Y-19204460D02*
X5734467Y-19213984D01*
X5734467Y-19213984D02*
X5686848Y-19213984D01*
X5686848Y-19213984D02*
X5667801Y-19204460D01*
X5667801Y-19204460D02*
X5658277Y-19185412D01*
X5658277Y-19185412D02*
X5658277Y-19166365D01*
X5658277Y-19166365D02*
X5667801Y-19147317D01*
X5667801Y-19147317D02*
X5686848Y-19137793D01*
X5686848Y-19137793D02*
X5734467Y-19137793D01*
X5734467Y-19137793D02*
X5753515Y-19128270D01*
X5848753Y-19080650D02*
X5848753Y-19280650D01*
X5848753Y-19090174D02*
X5867801Y-19080650D01*
X5867801Y-19080650D02*
X5905896Y-19080650D01*
X5905896Y-19080650D02*
X5924943Y-19090174D01*
X5924943Y-19090174D02*
X5934467Y-19099698D01*
X5934467Y-19099698D02*
X5943991Y-19118746D01*
X5943991Y-19118746D02*
X5943991Y-19175889D01*
X5943991Y-19175889D02*
X5934467Y-19194936D01*
X5934467Y-19194936D02*
X5924943Y-19204460D01*
X5924943Y-19204460D02*
X5905896Y-19213984D01*
X5905896Y-19213984D02*
X5867801Y-19213984D01*
X5867801Y-19213984D02*
X5848753Y-19204460D01*
X6029705Y-19194936D02*
X6039229Y-19204460D01*
X6039229Y-19204460D02*
X6029705Y-19213984D01*
X6029705Y-19213984D02*
X6020182Y-19204460D01*
X6020182Y-19204460D02*
X6029705Y-19194936D01*
X6029705Y-19194936D02*
X6029705Y-19213984D01*
X6029705Y-19090174D02*
X6039229Y-19099698D01*
X6039229Y-19099698D02*
X6029705Y-19109222D01*
X6029705Y-19109222D02*
X6020182Y-19099698D01*
X6020182Y-19099698D02*
X6029705Y-19090174D01*
X6029705Y-19090174D02*
X6029705Y-19109222D01*
D12*
X4357500Y-19522500D02*
X4397500Y-19562500D01*
X4397500Y-19522500D02*
X4357500Y-19562500D01*
D11*
X4696372Y-19433984D02*
X4715420Y-19433984D01*
X4715420Y-19433984D02*
X4734467Y-19443508D01*
X4734467Y-19443508D02*
X4743991Y-19453031D01*
X4743991Y-19453031D02*
X4753515Y-19472079D01*
X4753515Y-19472079D02*
X4763039Y-19510174D01*
X4763039Y-19510174D02*
X4763039Y-19557793D01*
X4763039Y-19557793D02*
X4753515Y-19595889D01*
X4753515Y-19595889D02*
X4743991Y-19614936D01*
X4743991Y-19614936D02*
X4734467Y-19624460D01*
X4734467Y-19624460D02*
X4715420Y-19633984D01*
X4715420Y-19633984D02*
X4696372Y-19633984D01*
X4696372Y-19633984D02*
X4677324Y-19624460D01*
X4677324Y-19624460D02*
X4667801Y-19614936D01*
X4667801Y-19614936D02*
X4658277Y-19595889D01*
X4658277Y-19595889D02*
X4648753Y-19557793D01*
X4648753Y-19557793D02*
X4648753Y-19510174D01*
X4648753Y-19510174D02*
X4658277Y-19472079D01*
X4658277Y-19472079D02*
X4667801Y-19453031D01*
X4667801Y-19453031D02*
X4677324Y-19443508D01*
X4677324Y-19443508D02*
X4696372Y-19433984D01*
X4848753Y-19614936D02*
X4858277Y-19624460D01*
X4858277Y-19624460D02*
X4848753Y-19633984D01*
X4848753Y-19633984D02*
X4839229Y-19624460D01*
X4839229Y-19624460D02*
X4848753Y-19614936D01*
X4848753Y-19614936D02*
X4848753Y-19633984D01*
X5029705Y-19500650D02*
X5029705Y-19633984D01*
X4982086Y-19424460D02*
X4934467Y-19567317D01*
X4934467Y-19567317D02*
X5058277Y-19567317D01*
X5172563Y-19433984D02*
X5191610Y-19433984D01*
X5191610Y-19433984D02*
X5210658Y-19443508D01*
X5210658Y-19443508D02*
X5220182Y-19453031D01*
X5220182Y-19453031D02*
X5229705Y-19472079D01*
X5229705Y-19472079D02*
X5239229Y-19510174D01*
X5239229Y-19510174D02*
X5239229Y-19557793D01*
X5239229Y-19557793D02*
X5229705Y-19595889D01*
X5229705Y-19595889D02*
X5220182Y-19614936D01*
X5220182Y-19614936D02*
X5210658Y-19624460D01*
X5210658Y-19624460D02*
X5191610Y-19633984D01*
X5191610Y-19633984D02*
X5172563Y-19633984D01*
X5172563Y-19633984D02*
X5153515Y-19624460D01*
X5153515Y-19624460D02*
X5143991Y-19614936D01*
X5143991Y-19614936D02*
X5134467Y-19595889D01*
X5134467Y-19595889D02*
X5124944Y-19557793D01*
X5124944Y-19557793D02*
X5124944Y-19510174D01*
X5124944Y-19510174D02*
X5134467Y-19472079D01*
X5134467Y-19472079D02*
X5143991Y-19453031D01*
X5143991Y-19453031D02*
X5153515Y-19443508D01*
X5153515Y-19443508D02*
X5172563Y-19433984D01*
X5363039Y-19433984D02*
X5382086Y-19433984D01*
X5382086Y-19433984D02*
X5401134Y-19443508D01*
X5401134Y-19443508D02*
X5410658Y-19453031D01*
X5410658Y-19453031D02*
X5420182Y-19472079D01*
X5420182Y-19472079D02*
X5429705Y-19510174D01*
X5429705Y-19510174D02*
X5429705Y-19557793D01*
X5429705Y-19557793D02*
X5420182Y-19595889D01*
X5420182Y-19595889D02*
X5410658Y-19614936D01*
X5410658Y-19614936D02*
X5401134Y-19624460D01*
X5401134Y-19624460D02*
X5382086Y-19633984D01*
X5382086Y-19633984D02*
X5363039Y-19633984D01*
X5363039Y-19633984D02*
X5343991Y-19624460D01*
X5343991Y-19624460D02*
X5334467Y-19614936D01*
X5334467Y-19614936D02*
X5324944Y-19595889D01*
X5324944Y-19595889D02*
X5315420Y-19557793D01*
X5315420Y-19557793D02*
X5315420Y-19510174D01*
X5315420Y-19510174D02*
X5324944Y-19472079D01*
X5324944Y-19472079D02*
X5334467Y-19453031D01*
X5334467Y-19453031D02*
X5343991Y-19443508D01*
X5343991Y-19443508D02*
X5363039Y-19433984D01*
X5515420Y-19633984D02*
X5515420Y-19500650D01*
X5515420Y-19519698D02*
X5524944Y-19510174D01*
X5524944Y-19510174D02*
X5543991Y-19500650D01*
X5543991Y-19500650D02*
X5572563Y-19500650D01*
X5572563Y-19500650D02*
X5591610Y-19510174D01*
X5591610Y-19510174D02*
X5601134Y-19529222D01*
X5601134Y-19529222D02*
X5601134Y-19633984D01*
X5601134Y-19529222D02*
X5610658Y-19510174D01*
X5610658Y-19510174D02*
X5629705Y-19500650D01*
X5629705Y-19500650D02*
X5658277Y-19500650D01*
X5658277Y-19500650D02*
X5677324Y-19510174D01*
X5677324Y-19510174D02*
X5686848Y-19529222D01*
X5686848Y-19529222D02*
X5686848Y-19633984D01*
X5782086Y-19633984D02*
X5782086Y-19500650D01*
X5782086Y-19519698D02*
X5791610Y-19510174D01*
X5791610Y-19510174D02*
X5810658Y-19500650D01*
X5810658Y-19500650D02*
X5839229Y-19500650D01*
X5839229Y-19500650D02*
X5858277Y-19510174D01*
X5858277Y-19510174D02*
X5867801Y-19529222D01*
X5867801Y-19529222D02*
X5867801Y-19633984D01*
X5867801Y-19529222D02*
X5877324Y-19510174D01*
X5877324Y-19510174D02*
X5896372Y-19500650D01*
X5896372Y-19500650D02*
X5924943Y-19500650D01*
X5924943Y-19500650D02*
X5943991Y-19510174D01*
X5943991Y-19510174D02*
X5953515Y-19529222D01*
X5953515Y-19529222D02*
X5953515Y-19633984D01*
X6343991Y-19424460D02*
X6172563Y-19681603D01*
X6601134Y-19433984D02*
X6620182Y-19433984D01*
X6620182Y-19433984D02*
X6639229Y-19443508D01*
X6639229Y-19443508D02*
X6648753Y-19453031D01*
X6648753Y-19453031D02*
X6658277Y-19472079D01*
X6658277Y-19472079D02*
X6667801Y-19510174D01*
X6667801Y-19510174D02*
X6667801Y-19557793D01*
X6667801Y-19557793D02*
X6658277Y-19595889D01*
X6658277Y-19595889D02*
X6648753Y-19614936D01*
X6648753Y-19614936D02*
X6639229Y-19624460D01*
X6639229Y-19624460D02*
X6620182Y-19633984D01*
X6620182Y-19633984D02*
X6601134Y-19633984D01*
X6601134Y-19633984D02*
X6582086Y-19624460D01*
X6582086Y-19624460D02*
X6572563Y-19614936D01*
X6572563Y-19614936D02*
X6563039Y-19595889D01*
X6563039Y-19595889D02*
X6553515Y-19557793D01*
X6553515Y-19557793D02*
X6553515Y-19510174D01*
X6553515Y-19510174D02*
X6563039Y-19472079D01*
X6563039Y-19472079D02*
X6572563Y-19453031D01*
X6572563Y-19453031D02*
X6582086Y-19443508D01*
X6582086Y-19443508D02*
X6601134Y-19433984D01*
X6753515Y-19614936D02*
X6763039Y-19624460D01*
X6763039Y-19624460D02*
X6753515Y-19633984D01*
X6753515Y-19633984D02*
X6743991Y-19624460D01*
X6743991Y-19624460D02*
X6753515Y-19614936D01*
X6753515Y-19614936D02*
X6753515Y-19633984D01*
X6886848Y-19433984D02*
X6905896Y-19433984D01*
X6905896Y-19433984D02*
X6924944Y-19443508D01*
X6924944Y-19443508D02*
X6934467Y-19453031D01*
X6934467Y-19453031D02*
X6943991Y-19472079D01*
X6943991Y-19472079D02*
X6953515Y-19510174D01*
X6953515Y-19510174D02*
X6953515Y-19557793D01*
X6953515Y-19557793D02*
X6943991Y-19595889D01*
X6943991Y-19595889D02*
X6934467Y-19614936D01*
X6934467Y-19614936D02*
X6924944Y-19624460D01*
X6924944Y-19624460D02*
X6905896Y-19633984D01*
X6905896Y-19633984D02*
X6886848Y-19633984D01*
X6886848Y-19633984D02*
X6867801Y-19624460D01*
X6867801Y-19624460D02*
X6858277Y-19614936D01*
X6858277Y-19614936D02*
X6848753Y-19595889D01*
X6848753Y-19595889D02*
X6839229Y-19557793D01*
X6839229Y-19557793D02*
X6839229Y-19510174D01*
X6839229Y-19510174D02*
X6848753Y-19472079D01*
X6848753Y-19472079D02*
X6858277Y-19453031D01*
X6858277Y-19453031D02*
X6867801Y-19443508D01*
X6867801Y-19443508D02*
X6886848Y-19433984D01*
X7143991Y-19633984D02*
X7029706Y-19633984D01*
X7086848Y-19633984D02*
X7086848Y-19433984D01*
X7086848Y-19433984D02*
X7067801Y-19462555D01*
X7067801Y-19462555D02*
X7048753Y-19481603D01*
X7048753Y-19481603D02*
X7029706Y-19491127D01*
X7324944Y-19433984D02*
X7229706Y-19433984D01*
X7229706Y-19433984D02*
X7220182Y-19529222D01*
X7220182Y-19529222D02*
X7229706Y-19519698D01*
X7229706Y-19519698D02*
X7248753Y-19510174D01*
X7248753Y-19510174D02*
X7296372Y-19510174D01*
X7296372Y-19510174D02*
X7315420Y-19519698D01*
X7315420Y-19519698D02*
X7324944Y-19529222D01*
X7324944Y-19529222D02*
X7334467Y-19548270D01*
X7334467Y-19548270D02*
X7334467Y-19595889D01*
X7334467Y-19595889D02*
X7324944Y-19614936D01*
X7324944Y-19614936D02*
X7315420Y-19624460D01*
X7315420Y-19624460D02*
X7296372Y-19633984D01*
X7296372Y-19633984D02*
X7248753Y-19633984D01*
X7248753Y-19633984D02*
X7229706Y-19624460D01*
X7229706Y-19624460D02*
X7220182Y-19614936D01*
X7401134Y-19433984D02*
X7534467Y-19433984D01*
X7534467Y-19433984D02*
X7448753Y-19633984D01*
X7601134Y-19433984D02*
X7601134Y-19472079D01*
X7677325Y-19433984D02*
X7677325Y-19472079D01*
X7972563Y-19710174D02*
X7963039Y-19700650D01*
X7963039Y-19700650D02*
X7943991Y-19672079D01*
X7943991Y-19672079D02*
X7934468Y-19653031D01*
X7934468Y-19653031D02*
X7924944Y-19624460D01*
X7924944Y-19624460D02*
X7915420Y-19576841D01*
X7915420Y-19576841D02*
X7915420Y-19538746D01*
X7915420Y-19538746D02*
X7924944Y-19491127D01*
X7924944Y-19491127D02*
X7934468Y-19462555D01*
X7934468Y-19462555D02*
X7943991Y-19443508D01*
X7943991Y-19443508D02*
X7963039Y-19414936D01*
X7963039Y-19414936D02*
X7972563Y-19405412D01*
X8039229Y-19453031D02*
X8048753Y-19443508D01*
X8048753Y-19443508D02*
X8067801Y-19433984D01*
X8067801Y-19433984D02*
X8115420Y-19433984D01*
X8115420Y-19433984D02*
X8134468Y-19443508D01*
X8134468Y-19443508D02*
X8143991Y-19453031D01*
X8143991Y-19453031D02*
X8153515Y-19472079D01*
X8153515Y-19472079D02*
X8153515Y-19491127D01*
X8153515Y-19491127D02*
X8143991Y-19519698D01*
X8143991Y-19519698D02*
X8029706Y-19633984D01*
X8029706Y-19633984D02*
X8153515Y-19633984D01*
X8324944Y-19500650D02*
X8324944Y-19633984D01*
X8277325Y-19424460D02*
X8229706Y-19567317D01*
X8229706Y-19567317D02*
X8353515Y-19567317D01*
X8410658Y-19433984D02*
X8543991Y-19433984D01*
X8543991Y-19433984D02*
X8458277Y-19633984D01*
X8772563Y-19633984D02*
X8772563Y-19433984D01*
X8858277Y-19633984D02*
X8858277Y-19529222D01*
X8858277Y-19529222D02*
X8848753Y-19510174D01*
X8848753Y-19510174D02*
X8829706Y-19500650D01*
X8829706Y-19500650D02*
X8801134Y-19500650D01*
X8801134Y-19500650D02*
X8782087Y-19510174D01*
X8782087Y-19510174D02*
X8772563Y-19519698D01*
X8982087Y-19633984D02*
X8963039Y-19624460D01*
X8963039Y-19624460D02*
X8953515Y-19614936D01*
X8953515Y-19614936D02*
X8943992Y-19595889D01*
X8943992Y-19595889D02*
X8943992Y-19538746D01*
X8943992Y-19538746D02*
X8953515Y-19519698D01*
X8953515Y-19519698D02*
X8963039Y-19510174D01*
X8963039Y-19510174D02*
X8982087Y-19500650D01*
X8982087Y-19500650D02*
X9010658Y-19500650D01*
X9010658Y-19500650D02*
X9029706Y-19510174D01*
X9029706Y-19510174D02*
X9039230Y-19519698D01*
X9039230Y-19519698D02*
X9048753Y-19538746D01*
X9048753Y-19538746D02*
X9048753Y-19595889D01*
X9048753Y-19595889D02*
X9039230Y-19614936D01*
X9039230Y-19614936D02*
X9029706Y-19624460D01*
X9029706Y-19624460D02*
X9010658Y-19633984D01*
X9010658Y-19633984D02*
X8982087Y-19633984D01*
X9163039Y-19633984D02*
X9143992Y-19624460D01*
X9143992Y-19624460D02*
X9134468Y-19605412D01*
X9134468Y-19605412D02*
X9134468Y-19433984D01*
X9315420Y-19624460D02*
X9296373Y-19633984D01*
X9296373Y-19633984D02*
X9258277Y-19633984D01*
X9258277Y-19633984D02*
X9239230Y-19624460D01*
X9239230Y-19624460D02*
X9229706Y-19605412D01*
X9229706Y-19605412D02*
X9229706Y-19529222D01*
X9229706Y-19529222D02*
X9239230Y-19510174D01*
X9239230Y-19510174D02*
X9258277Y-19500650D01*
X9258277Y-19500650D02*
X9296373Y-19500650D01*
X9296373Y-19500650D02*
X9315420Y-19510174D01*
X9315420Y-19510174D02*
X9324944Y-19529222D01*
X9324944Y-19529222D02*
X9324944Y-19548270D01*
X9324944Y-19548270D02*
X9229706Y-19567317D01*
X9401134Y-19624460D02*
X9420182Y-19633984D01*
X9420182Y-19633984D02*
X9458277Y-19633984D01*
X9458277Y-19633984D02*
X9477325Y-19624460D01*
X9477325Y-19624460D02*
X9486849Y-19605412D01*
X9486849Y-19605412D02*
X9486849Y-19595889D01*
X9486849Y-19595889D02*
X9477325Y-19576841D01*
X9477325Y-19576841D02*
X9458277Y-19567317D01*
X9458277Y-19567317D02*
X9429706Y-19567317D01*
X9429706Y-19567317D02*
X9410658Y-19557793D01*
X9410658Y-19557793D02*
X9401134Y-19538746D01*
X9401134Y-19538746D02*
X9401134Y-19529222D01*
X9401134Y-19529222D02*
X9410658Y-19510174D01*
X9410658Y-19510174D02*
X9429706Y-19500650D01*
X9429706Y-19500650D02*
X9458277Y-19500650D01*
X9458277Y-19500650D02*
X9477325Y-19510174D01*
X9553515Y-19710174D02*
X9563039Y-19700650D01*
X9563039Y-19700650D02*
X9582087Y-19672079D01*
X9582087Y-19672079D02*
X9591611Y-19653031D01*
X9591611Y-19653031D02*
X9601134Y-19624460D01*
X9601134Y-19624460D02*
X9610658Y-19576841D01*
X9610658Y-19576841D02*
X9610658Y-19538746D01*
X9610658Y-19538746D02*
X9601134Y-19491127D01*
X9601134Y-19491127D02*
X9591611Y-19462555D01*
X9591611Y-19462555D02*
X9582087Y-19443508D01*
X9582087Y-19443508D02*
X9563039Y-19414936D01*
X9563039Y-19414936D02*
X9553515Y-19405412D01*
D12*
X4397500Y-19806500D02*
G75*
G03*
X4321500Y-19806500I-38000J0D01*
G01*
X4321500Y-19806500D02*
G75*
G03*
X4397500Y-19806500I38000J0D01*
G01*
D11*
X4696372Y-19697984D02*
X4715420Y-19697984D01*
X4715420Y-19697984D02*
X4734467Y-19707508D01*
X4734467Y-19707508D02*
X4743991Y-19717031D01*
X4743991Y-19717031D02*
X4753515Y-19736079D01*
X4753515Y-19736079D02*
X4763039Y-19774174D01*
X4763039Y-19774174D02*
X4763039Y-19821793D01*
X4763039Y-19821793D02*
X4753515Y-19859889D01*
X4753515Y-19859889D02*
X4743991Y-19878936D01*
X4743991Y-19878936D02*
X4734467Y-19888460D01*
X4734467Y-19888460D02*
X4715420Y-19897984D01*
X4715420Y-19897984D02*
X4696372Y-19897984D01*
X4696372Y-19897984D02*
X4677324Y-19888460D01*
X4677324Y-19888460D02*
X4667801Y-19878936D01*
X4667801Y-19878936D02*
X4658277Y-19859889D01*
X4658277Y-19859889D02*
X4648753Y-19821793D01*
X4648753Y-19821793D02*
X4648753Y-19774174D01*
X4648753Y-19774174D02*
X4658277Y-19736079D01*
X4658277Y-19736079D02*
X4667801Y-19717031D01*
X4667801Y-19717031D02*
X4677324Y-19707508D01*
X4677324Y-19707508D02*
X4696372Y-19697984D01*
X4848753Y-19878936D02*
X4858277Y-19888460D01*
X4858277Y-19888460D02*
X4848753Y-19897984D01*
X4848753Y-19897984D02*
X4839229Y-19888460D01*
X4839229Y-19888460D02*
X4848753Y-19878936D01*
X4848753Y-19878936D02*
X4848753Y-19897984D01*
X4924944Y-19697984D02*
X5058277Y-19697984D01*
X5058277Y-19697984D02*
X4972563Y-19897984D01*
X5220182Y-19697984D02*
X5182086Y-19697984D01*
X5182086Y-19697984D02*
X5163039Y-19707508D01*
X5163039Y-19707508D02*
X5153515Y-19717031D01*
X5153515Y-19717031D02*
X5134467Y-19745603D01*
X5134467Y-19745603D02*
X5124944Y-19783698D01*
X5124944Y-19783698D02*
X5124944Y-19859889D01*
X5124944Y-19859889D02*
X5134467Y-19878936D01*
X5134467Y-19878936D02*
X5143991Y-19888460D01*
X5143991Y-19888460D02*
X5163039Y-19897984D01*
X5163039Y-19897984D02*
X5201134Y-19897984D01*
X5201134Y-19897984D02*
X5220182Y-19888460D01*
X5220182Y-19888460D02*
X5229705Y-19878936D01*
X5229705Y-19878936D02*
X5239229Y-19859889D01*
X5239229Y-19859889D02*
X5239229Y-19812270D01*
X5239229Y-19812270D02*
X5229705Y-19793222D01*
X5229705Y-19793222D02*
X5220182Y-19783698D01*
X5220182Y-19783698D02*
X5201134Y-19774174D01*
X5201134Y-19774174D02*
X5163039Y-19774174D01*
X5163039Y-19774174D02*
X5143991Y-19783698D01*
X5143991Y-19783698D02*
X5134467Y-19793222D01*
X5134467Y-19793222D02*
X5124944Y-19812270D01*
X5363039Y-19697984D02*
X5382086Y-19697984D01*
X5382086Y-19697984D02*
X5401134Y-19707508D01*
X5401134Y-19707508D02*
X5410658Y-19717031D01*
X5410658Y-19717031D02*
X5420182Y-19736079D01*
X5420182Y-19736079D02*
X5429705Y-19774174D01*
X5429705Y-19774174D02*
X5429705Y-19821793D01*
X5429705Y-19821793D02*
X5420182Y-19859889D01*
X5420182Y-19859889D02*
X5410658Y-19878936D01*
X5410658Y-19878936D02*
X5401134Y-19888460D01*
X5401134Y-19888460D02*
X5382086Y-19897984D01*
X5382086Y-19897984D02*
X5363039Y-19897984D01*
X5363039Y-19897984D02*
X5343991Y-19888460D01*
X5343991Y-19888460D02*
X5334467Y-19878936D01*
X5334467Y-19878936D02*
X5324944Y-19859889D01*
X5324944Y-19859889D02*
X5315420Y-19821793D01*
X5315420Y-19821793D02*
X5315420Y-19774174D01*
X5315420Y-19774174D02*
X5324944Y-19736079D01*
X5324944Y-19736079D02*
X5334467Y-19717031D01*
X5334467Y-19717031D02*
X5343991Y-19707508D01*
X5343991Y-19707508D02*
X5363039Y-19697984D01*
X5515420Y-19897984D02*
X5515420Y-19764650D01*
X5515420Y-19783698D02*
X5524944Y-19774174D01*
X5524944Y-19774174D02*
X5543991Y-19764650D01*
X5543991Y-19764650D02*
X5572563Y-19764650D01*
X5572563Y-19764650D02*
X5591610Y-19774174D01*
X5591610Y-19774174D02*
X5601134Y-19793222D01*
X5601134Y-19793222D02*
X5601134Y-19897984D01*
X5601134Y-19793222D02*
X5610658Y-19774174D01*
X5610658Y-19774174D02*
X5629705Y-19764650D01*
X5629705Y-19764650D02*
X5658277Y-19764650D01*
X5658277Y-19764650D02*
X5677324Y-19774174D01*
X5677324Y-19774174D02*
X5686848Y-19793222D01*
X5686848Y-19793222D02*
X5686848Y-19897984D01*
X5782086Y-19897984D02*
X5782086Y-19764650D01*
X5782086Y-19783698D02*
X5791610Y-19774174D01*
X5791610Y-19774174D02*
X5810658Y-19764650D01*
X5810658Y-19764650D02*
X5839229Y-19764650D01*
X5839229Y-19764650D02*
X5858277Y-19774174D01*
X5858277Y-19774174D02*
X5867801Y-19793222D01*
X5867801Y-19793222D02*
X5867801Y-19897984D01*
X5867801Y-19793222D02*
X5877324Y-19774174D01*
X5877324Y-19774174D02*
X5896372Y-19764650D01*
X5896372Y-19764650D02*
X5924943Y-19764650D01*
X5924943Y-19764650D02*
X5943991Y-19774174D01*
X5943991Y-19774174D02*
X5953515Y-19793222D01*
X5953515Y-19793222D02*
X5953515Y-19897984D01*
X6343991Y-19688460D02*
X6172563Y-19945603D01*
X6601134Y-19697984D02*
X6620182Y-19697984D01*
X6620182Y-19697984D02*
X6639229Y-19707508D01*
X6639229Y-19707508D02*
X6648753Y-19717031D01*
X6648753Y-19717031D02*
X6658277Y-19736079D01*
X6658277Y-19736079D02*
X6667801Y-19774174D01*
X6667801Y-19774174D02*
X6667801Y-19821793D01*
X6667801Y-19821793D02*
X6658277Y-19859889D01*
X6658277Y-19859889D02*
X6648753Y-19878936D01*
X6648753Y-19878936D02*
X6639229Y-19888460D01*
X6639229Y-19888460D02*
X6620182Y-19897984D01*
X6620182Y-19897984D02*
X6601134Y-19897984D01*
X6601134Y-19897984D02*
X6582086Y-19888460D01*
X6582086Y-19888460D02*
X6572563Y-19878936D01*
X6572563Y-19878936D02*
X6563039Y-19859889D01*
X6563039Y-19859889D02*
X6553515Y-19821793D01*
X6553515Y-19821793D02*
X6553515Y-19774174D01*
X6553515Y-19774174D02*
X6563039Y-19736079D01*
X6563039Y-19736079D02*
X6572563Y-19717031D01*
X6572563Y-19717031D02*
X6582086Y-19707508D01*
X6582086Y-19707508D02*
X6601134Y-19697984D01*
X6753515Y-19878936D02*
X6763039Y-19888460D01*
X6763039Y-19888460D02*
X6753515Y-19897984D01*
X6753515Y-19897984D02*
X6743991Y-19888460D01*
X6743991Y-19888460D02*
X6753515Y-19878936D01*
X6753515Y-19878936D02*
X6753515Y-19897984D01*
X6886848Y-19697984D02*
X6905896Y-19697984D01*
X6905896Y-19697984D02*
X6924944Y-19707508D01*
X6924944Y-19707508D02*
X6934467Y-19717031D01*
X6934467Y-19717031D02*
X6943991Y-19736079D01*
X6943991Y-19736079D02*
X6953515Y-19774174D01*
X6953515Y-19774174D02*
X6953515Y-19821793D01*
X6953515Y-19821793D02*
X6943991Y-19859889D01*
X6943991Y-19859889D02*
X6934467Y-19878936D01*
X6934467Y-19878936D02*
X6924944Y-19888460D01*
X6924944Y-19888460D02*
X6905896Y-19897984D01*
X6905896Y-19897984D02*
X6886848Y-19897984D01*
X6886848Y-19897984D02*
X6867801Y-19888460D01*
X6867801Y-19888460D02*
X6858277Y-19878936D01*
X6858277Y-19878936D02*
X6848753Y-19859889D01*
X6848753Y-19859889D02*
X6839229Y-19821793D01*
X6839229Y-19821793D02*
X6839229Y-19774174D01*
X6839229Y-19774174D02*
X6848753Y-19736079D01*
X6848753Y-19736079D02*
X6858277Y-19717031D01*
X6858277Y-19717031D02*
X6867801Y-19707508D01*
X6867801Y-19707508D02*
X6886848Y-19697984D01*
X7029706Y-19717031D02*
X7039229Y-19707508D01*
X7039229Y-19707508D02*
X7058277Y-19697984D01*
X7058277Y-19697984D02*
X7105896Y-19697984D01*
X7105896Y-19697984D02*
X7124944Y-19707508D01*
X7124944Y-19707508D02*
X7134467Y-19717031D01*
X7134467Y-19717031D02*
X7143991Y-19736079D01*
X7143991Y-19736079D02*
X7143991Y-19755127D01*
X7143991Y-19755127D02*
X7134467Y-19783698D01*
X7134467Y-19783698D02*
X7020182Y-19897984D01*
X7020182Y-19897984D02*
X7143991Y-19897984D01*
X7239229Y-19897984D02*
X7277325Y-19897984D01*
X7277325Y-19897984D02*
X7296372Y-19888460D01*
X7296372Y-19888460D02*
X7305896Y-19878936D01*
X7305896Y-19878936D02*
X7324944Y-19850365D01*
X7324944Y-19850365D02*
X7334467Y-19812270D01*
X7334467Y-19812270D02*
X7334467Y-19736079D01*
X7334467Y-19736079D02*
X7324944Y-19717031D01*
X7324944Y-19717031D02*
X7315420Y-19707508D01*
X7315420Y-19707508D02*
X7296372Y-19697984D01*
X7296372Y-19697984D02*
X7258277Y-19697984D01*
X7258277Y-19697984D02*
X7239229Y-19707508D01*
X7239229Y-19707508D02*
X7229706Y-19717031D01*
X7229706Y-19717031D02*
X7220182Y-19736079D01*
X7220182Y-19736079D02*
X7220182Y-19783698D01*
X7220182Y-19783698D02*
X7229706Y-19802746D01*
X7229706Y-19802746D02*
X7239229Y-19812270D01*
X7239229Y-19812270D02*
X7258277Y-19821793D01*
X7258277Y-19821793D02*
X7296372Y-19821793D01*
X7296372Y-19821793D02*
X7315420Y-19812270D01*
X7315420Y-19812270D02*
X7324944Y-19802746D01*
X7324944Y-19802746D02*
X7334467Y-19783698D01*
X7429706Y-19897984D02*
X7467801Y-19897984D01*
X7467801Y-19897984D02*
X7486848Y-19888460D01*
X7486848Y-19888460D02*
X7496372Y-19878936D01*
X7496372Y-19878936D02*
X7515420Y-19850365D01*
X7515420Y-19850365D02*
X7524944Y-19812270D01*
X7524944Y-19812270D02*
X7524944Y-19736079D01*
X7524944Y-19736079D02*
X7515420Y-19717031D01*
X7515420Y-19717031D02*
X7505896Y-19707508D01*
X7505896Y-19707508D02*
X7486848Y-19697984D01*
X7486848Y-19697984D02*
X7448753Y-19697984D01*
X7448753Y-19697984D02*
X7429706Y-19707508D01*
X7429706Y-19707508D02*
X7420182Y-19717031D01*
X7420182Y-19717031D02*
X7410658Y-19736079D01*
X7410658Y-19736079D02*
X7410658Y-19783698D01*
X7410658Y-19783698D02*
X7420182Y-19802746D01*
X7420182Y-19802746D02*
X7429706Y-19812270D01*
X7429706Y-19812270D02*
X7448753Y-19821793D01*
X7448753Y-19821793D02*
X7486848Y-19821793D01*
X7486848Y-19821793D02*
X7505896Y-19812270D01*
X7505896Y-19812270D02*
X7515420Y-19802746D01*
X7515420Y-19802746D02*
X7524944Y-19783698D01*
X7601134Y-19697984D02*
X7601134Y-19736079D01*
X7677325Y-19697984D02*
X7677325Y-19736079D01*
X7972563Y-19974174D02*
X7963039Y-19964650D01*
X7963039Y-19964650D02*
X7943991Y-19936079D01*
X7943991Y-19936079D02*
X7934468Y-19917031D01*
X7934468Y-19917031D02*
X7924944Y-19888460D01*
X7924944Y-19888460D02*
X7915420Y-19840841D01*
X7915420Y-19840841D02*
X7915420Y-19802746D01*
X7915420Y-19802746D02*
X7924944Y-19755127D01*
X7924944Y-19755127D02*
X7934468Y-19726555D01*
X7934468Y-19726555D02*
X7943991Y-19707508D01*
X7943991Y-19707508D02*
X7963039Y-19678936D01*
X7963039Y-19678936D02*
X7972563Y-19669412D01*
X8134468Y-19697984D02*
X8096372Y-19697984D01*
X8096372Y-19697984D02*
X8077325Y-19707508D01*
X8077325Y-19707508D02*
X8067801Y-19717031D01*
X8067801Y-19717031D02*
X8048753Y-19745603D01*
X8048753Y-19745603D02*
X8039229Y-19783698D01*
X8039229Y-19783698D02*
X8039229Y-19859889D01*
X8039229Y-19859889D02*
X8048753Y-19878936D01*
X8048753Y-19878936D02*
X8058277Y-19888460D01*
X8058277Y-19888460D02*
X8077325Y-19897984D01*
X8077325Y-19897984D02*
X8115420Y-19897984D01*
X8115420Y-19897984D02*
X8134468Y-19888460D01*
X8134468Y-19888460D02*
X8143991Y-19878936D01*
X8143991Y-19878936D02*
X8153515Y-19859889D01*
X8153515Y-19859889D02*
X8153515Y-19812270D01*
X8153515Y-19812270D02*
X8143991Y-19793222D01*
X8143991Y-19793222D02*
X8134468Y-19783698D01*
X8134468Y-19783698D02*
X8115420Y-19774174D01*
X8115420Y-19774174D02*
X8077325Y-19774174D01*
X8077325Y-19774174D02*
X8058277Y-19783698D01*
X8058277Y-19783698D02*
X8048753Y-19793222D01*
X8048753Y-19793222D02*
X8039229Y-19812270D01*
X8391611Y-19897984D02*
X8391611Y-19697984D01*
X8477325Y-19897984D02*
X8477325Y-19793222D01*
X8477325Y-19793222D02*
X8467801Y-19774174D01*
X8467801Y-19774174D02*
X8448753Y-19764650D01*
X8448753Y-19764650D02*
X8420182Y-19764650D01*
X8420182Y-19764650D02*
X8401134Y-19774174D01*
X8401134Y-19774174D02*
X8391611Y-19783698D01*
X8601134Y-19897984D02*
X8582087Y-19888460D01*
X8582087Y-19888460D02*
X8572563Y-19878936D01*
X8572563Y-19878936D02*
X8563039Y-19859889D01*
X8563039Y-19859889D02*
X8563039Y-19802746D01*
X8563039Y-19802746D02*
X8572563Y-19783698D01*
X8572563Y-19783698D02*
X8582087Y-19774174D01*
X8582087Y-19774174D02*
X8601134Y-19764650D01*
X8601134Y-19764650D02*
X8629706Y-19764650D01*
X8629706Y-19764650D02*
X8648753Y-19774174D01*
X8648753Y-19774174D02*
X8658277Y-19783698D01*
X8658277Y-19783698D02*
X8667801Y-19802746D01*
X8667801Y-19802746D02*
X8667801Y-19859889D01*
X8667801Y-19859889D02*
X8658277Y-19878936D01*
X8658277Y-19878936D02*
X8648753Y-19888460D01*
X8648753Y-19888460D02*
X8629706Y-19897984D01*
X8629706Y-19897984D02*
X8601134Y-19897984D01*
X8782087Y-19897984D02*
X8763039Y-19888460D01*
X8763039Y-19888460D02*
X8753515Y-19869412D01*
X8753515Y-19869412D02*
X8753515Y-19697984D01*
X8934468Y-19888460D02*
X8915420Y-19897984D01*
X8915420Y-19897984D02*
X8877325Y-19897984D01*
X8877325Y-19897984D02*
X8858277Y-19888460D01*
X8858277Y-19888460D02*
X8848753Y-19869412D01*
X8848753Y-19869412D02*
X8848753Y-19793222D01*
X8848753Y-19793222D02*
X8858277Y-19774174D01*
X8858277Y-19774174D02*
X8877325Y-19764650D01*
X8877325Y-19764650D02*
X8915420Y-19764650D01*
X8915420Y-19764650D02*
X8934468Y-19774174D01*
X8934468Y-19774174D02*
X8943992Y-19793222D01*
X8943992Y-19793222D02*
X8943992Y-19812270D01*
X8943992Y-19812270D02*
X8848753Y-19831317D01*
X9020182Y-19888460D02*
X9039230Y-19897984D01*
X9039230Y-19897984D02*
X9077325Y-19897984D01*
X9077325Y-19897984D02*
X9096373Y-19888460D01*
X9096373Y-19888460D02*
X9105896Y-19869412D01*
X9105896Y-19869412D02*
X9105896Y-19859889D01*
X9105896Y-19859889D02*
X9096373Y-19840841D01*
X9096373Y-19840841D02*
X9077325Y-19831317D01*
X9077325Y-19831317D02*
X9048753Y-19831317D01*
X9048753Y-19831317D02*
X9029706Y-19821793D01*
X9029706Y-19821793D02*
X9020182Y-19802746D01*
X9020182Y-19802746D02*
X9020182Y-19793222D01*
X9020182Y-19793222D02*
X9029706Y-19774174D01*
X9029706Y-19774174D02*
X9048753Y-19764650D01*
X9048753Y-19764650D02*
X9077325Y-19764650D01*
X9077325Y-19764650D02*
X9096373Y-19774174D01*
X9172563Y-19974174D02*
X9182087Y-19964650D01*
X9182087Y-19964650D02*
X9201134Y-19936079D01*
X9201134Y-19936079D02*
X9210658Y-19917031D01*
X9210658Y-19917031D02*
X9220182Y-19888460D01*
X9220182Y-19888460D02*
X9229706Y-19840841D01*
X9229706Y-19840841D02*
X9229706Y-19802746D01*
X9229706Y-19802746D02*
X9220182Y-19755127D01*
X9220182Y-19755127D02*
X9210658Y-19726555D01*
X9210658Y-19726555D02*
X9201134Y-19707508D01*
X9201134Y-19707508D02*
X9182087Y-19678936D01*
X9182087Y-19678936D02*
X9172563Y-19669412D01*
D12*
X4357500Y-20030500D02*
X4357500Y-20110500D01*
X4317500Y-20070500D02*
X4397500Y-20070500D01*
D11*
X4696372Y-19961984D02*
X4715420Y-19961984D01*
X4715420Y-19961984D02*
X4734467Y-19971508D01*
X4734467Y-19971508D02*
X4743991Y-19981031D01*
X4743991Y-19981031D02*
X4753515Y-20000079D01*
X4753515Y-20000079D02*
X4763039Y-20038174D01*
X4763039Y-20038174D02*
X4763039Y-20085793D01*
X4763039Y-20085793D02*
X4753515Y-20123889D01*
X4753515Y-20123889D02*
X4743991Y-20142936D01*
X4743991Y-20142936D02*
X4734467Y-20152460D01*
X4734467Y-20152460D02*
X4715420Y-20161984D01*
X4715420Y-20161984D02*
X4696372Y-20161984D01*
X4696372Y-20161984D02*
X4677324Y-20152460D01*
X4677324Y-20152460D02*
X4667801Y-20142936D01*
X4667801Y-20142936D02*
X4658277Y-20123889D01*
X4658277Y-20123889D02*
X4648753Y-20085793D01*
X4648753Y-20085793D02*
X4648753Y-20038174D01*
X4648753Y-20038174D02*
X4658277Y-20000079D01*
X4658277Y-20000079D02*
X4667801Y-19981031D01*
X4667801Y-19981031D02*
X4677324Y-19971508D01*
X4677324Y-19971508D02*
X4696372Y-19961984D01*
X4848753Y-20142936D02*
X4858277Y-20152460D01*
X4858277Y-20152460D02*
X4848753Y-20161984D01*
X4848753Y-20161984D02*
X4839229Y-20152460D01*
X4839229Y-20152460D02*
X4848753Y-20142936D01*
X4848753Y-20142936D02*
X4848753Y-20161984D01*
X4972563Y-20047698D02*
X4953515Y-20038174D01*
X4953515Y-20038174D02*
X4943991Y-20028650D01*
X4943991Y-20028650D02*
X4934467Y-20009603D01*
X4934467Y-20009603D02*
X4934467Y-20000079D01*
X4934467Y-20000079D02*
X4943991Y-19981031D01*
X4943991Y-19981031D02*
X4953515Y-19971508D01*
X4953515Y-19971508D02*
X4972563Y-19961984D01*
X4972563Y-19961984D02*
X5010658Y-19961984D01*
X5010658Y-19961984D02*
X5029705Y-19971508D01*
X5029705Y-19971508D02*
X5039229Y-19981031D01*
X5039229Y-19981031D02*
X5048753Y-20000079D01*
X5048753Y-20000079D02*
X5048753Y-20009603D01*
X5048753Y-20009603D02*
X5039229Y-20028650D01*
X5039229Y-20028650D02*
X5029705Y-20038174D01*
X5029705Y-20038174D02*
X5010658Y-20047698D01*
X5010658Y-20047698D02*
X4972563Y-20047698D01*
X4972563Y-20047698D02*
X4953515Y-20057222D01*
X4953515Y-20057222D02*
X4943991Y-20066746D01*
X4943991Y-20066746D02*
X4934467Y-20085793D01*
X4934467Y-20085793D02*
X4934467Y-20123889D01*
X4934467Y-20123889D02*
X4943991Y-20142936D01*
X4943991Y-20142936D02*
X4953515Y-20152460D01*
X4953515Y-20152460D02*
X4972563Y-20161984D01*
X4972563Y-20161984D02*
X5010658Y-20161984D01*
X5010658Y-20161984D02*
X5029705Y-20152460D01*
X5029705Y-20152460D02*
X5039229Y-20142936D01*
X5039229Y-20142936D02*
X5048753Y-20123889D01*
X5048753Y-20123889D02*
X5048753Y-20085793D01*
X5048753Y-20085793D02*
X5039229Y-20066746D01*
X5039229Y-20066746D02*
X5029705Y-20057222D01*
X5029705Y-20057222D02*
X5010658Y-20047698D01*
X5172563Y-19961984D02*
X5191610Y-19961984D01*
X5191610Y-19961984D02*
X5210658Y-19971508D01*
X5210658Y-19971508D02*
X5220182Y-19981031D01*
X5220182Y-19981031D02*
X5229705Y-20000079D01*
X5229705Y-20000079D02*
X5239229Y-20038174D01*
X5239229Y-20038174D02*
X5239229Y-20085793D01*
X5239229Y-20085793D02*
X5229705Y-20123889D01*
X5229705Y-20123889D02*
X5220182Y-20142936D01*
X5220182Y-20142936D02*
X5210658Y-20152460D01*
X5210658Y-20152460D02*
X5191610Y-20161984D01*
X5191610Y-20161984D02*
X5172563Y-20161984D01*
X5172563Y-20161984D02*
X5153515Y-20152460D01*
X5153515Y-20152460D02*
X5143991Y-20142936D01*
X5143991Y-20142936D02*
X5134467Y-20123889D01*
X5134467Y-20123889D02*
X5124944Y-20085793D01*
X5124944Y-20085793D02*
X5124944Y-20038174D01*
X5124944Y-20038174D02*
X5134467Y-20000079D01*
X5134467Y-20000079D02*
X5143991Y-19981031D01*
X5143991Y-19981031D02*
X5153515Y-19971508D01*
X5153515Y-19971508D02*
X5172563Y-19961984D01*
X5363039Y-19961984D02*
X5382086Y-19961984D01*
X5382086Y-19961984D02*
X5401134Y-19971508D01*
X5401134Y-19971508D02*
X5410658Y-19981031D01*
X5410658Y-19981031D02*
X5420182Y-20000079D01*
X5420182Y-20000079D02*
X5429705Y-20038174D01*
X5429705Y-20038174D02*
X5429705Y-20085793D01*
X5429705Y-20085793D02*
X5420182Y-20123889D01*
X5420182Y-20123889D02*
X5410658Y-20142936D01*
X5410658Y-20142936D02*
X5401134Y-20152460D01*
X5401134Y-20152460D02*
X5382086Y-20161984D01*
X5382086Y-20161984D02*
X5363039Y-20161984D01*
X5363039Y-20161984D02*
X5343991Y-20152460D01*
X5343991Y-20152460D02*
X5334467Y-20142936D01*
X5334467Y-20142936D02*
X5324944Y-20123889D01*
X5324944Y-20123889D02*
X5315420Y-20085793D01*
X5315420Y-20085793D02*
X5315420Y-20038174D01*
X5315420Y-20038174D02*
X5324944Y-20000079D01*
X5324944Y-20000079D02*
X5334467Y-19981031D01*
X5334467Y-19981031D02*
X5343991Y-19971508D01*
X5343991Y-19971508D02*
X5363039Y-19961984D01*
X5515420Y-20161984D02*
X5515420Y-20028650D01*
X5515420Y-20047698D02*
X5524944Y-20038174D01*
X5524944Y-20038174D02*
X5543991Y-20028650D01*
X5543991Y-20028650D02*
X5572563Y-20028650D01*
X5572563Y-20028650D02*
X5591610Y-20038174D01*
X5591610Y-20038174D02*
X5601134Y-20057222D01*
X5601134Y-20057222D02*
X5601134Y-20161984D01*
X5601134Y-20057222D02*
X5610658Y-20038174D01*
X5610658Y-20038174D02*
X5629705Y-20028650D01*
X5629705Y-20028650D02*
X5658277Y-20028650D01*
X5658277Y-20028650D02*
X5677324Y-20038174D01*
X5677324Y-20038174D02*
X5686848Y-20057222D01*
X5686848Y-20057222D02*
X5686848Y-20161984D01*
X5782086Y-20161984D02*
X5782086Y-20028650D01*
X5782086Y-20047698D02*
X5791610Y-20038174D01*
X5791610Y-20038174D02*
X5810658Y-20028650D01*
X5810658Y-20028650D02*
X5839229Y-20028650D01*
X5839229Y-20028650D02*
X5858277Y-20038174D01*
X5858277Y-20038174D02*
X5867801Y-20057222D01*
X5867801Y-20057222D02*
X5867801Y-20161984D01*
X5867801Y-20057222D02*
X5877324Y-20038174D01*
X5877324Y-20038174D02*
X5896372Y-20028650D01*
X5896372Y-20028650D02*
X5924943Y-20028650D01*
X5924943Y-20028650D02*
X5943991Y-20038174D01*
X5943991Y-20038174D02*
X5953515Y-20057222D01*
X5953515Y-20057222D02*
X5953515Y-20161984D01*
X6343991Y-19952460D02*
X6172563Y-20209603D01*
X6601134Y-19961984D02*
X6620182Y-19961984D01*
X6620182Y-19961984D02*
X6639229Y-19971508D01*
X6639229Y-19971508D02*
X6648753Y-19981031D01*
X6648753Y-19981031D02*
X6658277Y-20000079D01*
X6658277Y-20000079D02*
X6667801Y-20038174D01*
X6667801Y-20038174D02*
X6667801Y-20085793D01*
X6667801Y-20085793D02*
X6658277Y-20123889D01*
X6658277Y-20123889D02*
X6648753Y-20142936D01*
X6648753Y-20142936D02*
X6639229Y-20152460D01*
X6639229Y-20152460D02*
X6620182Y-20161984D01*
X6620182Y-20161984D02*
X6601134Y-20161984D01*
X6601134Y-20161984D02*
X6582086Y-20152460D01*
X6582086Y-20152460D02*
X6572563Y-20142936D01*
X6572563Y-20142936D02*
X6563039Y-20123889D01*
X6563039Y-20123889D02*
X6553515Y-20085793D01*
X6553515Y-20085793D02*
X6553515Y-20038174D01*
X6553515Y-20038174D02*
X6563039Y-20000079D01*
X6563039Y-20000079D02*
X6572563Y-19981031D01*
X6572563Y-19981031D02*
X6582086Y-19971508D01*
X6582086Y-19971508D02*
X6601134Y-19961984D01*
X6753515Y-20142936D02*
X6763039Y-20152460D01*
X6763039Y-20152460D02*
X6753515Y-20161984D01*
X6753515Y-20161984D02*
X6743991Y-20152460D01*
X6743991Y-20152460D02*
X6753515Y-20142936D01*
X6753515Y-20142936D02*
X6753515Y-20161984D01*
X6886848Y-19961984D02*
X6905896Y-19961984D01*
X6905896Y-19961984D02*
X6924944Y-19971508D01*
X6924944Y-19971508D02*
X6934467Y-19981031D01*
X6934467Y-19981031D02*
X6943991Y-20000079D01*
X6943991Y-20000079D02*
X6953515Y-20038174D01*
X6953515Y-20038174D02*
X6953515Y-20085793D01*
X6953515Y-20085793D02*
X6943991Y-20123889D01*
X6943991Y-20123889D02*
X6934467Y-20142936D01*
X6934467Y-20142936D02*
X6924944Y-20152460D01*
X6924944Y-20152460D02*
X6905896Y-20161984D01*
X6905896Y-20161984D02*
X6886848Y-20161984D01*
X6886848Y-20161984D02*
X6867801Y-20152460D01*
X6867801Y-20152460D02*
X6858277Y-20142936D01*
X6858277Y-20142936D02*
X6848753Y-20123889D01*
X6848753Y-20123889D02*
X6839229Y-20085793D01*
X6839229Y-20085793D02*
X6839229Y-20038174D01*
X6839229Y-20038174D02*
X6848753Y-20000079D01*
X6848753Y-20000079D02*
X6858277Y-19981031D01*
X6858277Y-19981031D02*
X6867801Y-19971508D01*
X6867801Y-19971508D02*
X6886848Y-19961984D01*
X7020182Y-19961984D02*
X7143991Y-19961984D01*
X7143991Y-19961984D02*
X7077325Y-20038174D01*
X7077325Y-20038174D02*
X7105896Y-20038174D01*
X7105896Y-20038174D02*
X7124944Y-20047698D01*
X7124944Y-20047698D02*
X7134467Y-20057222D01*
X7134467Y-20057222D02*
X7143991Y-20076270D01*
X7143991Y-20076270D02*
X7143991Y-20123889D01*
X7143991Y-20123889D02*
X7134467Y-20142936D01*
X7134467Y-20142936D02*
X7124944Y-20152460D01*
X7124944Y-20152460D02*
X7105896Y-20161984D01*
X7105896Y-20161984D02*
X7048753Y-20161984D01*
X7048753Y-20161984D02*
X7029706Y-20152460D01*
X7029706Y-20152460D02*
X7020182Y-20142936D01*
X7334467Y-20161984D02*
X7220182Y-20161984D01*
X7277325Y-20161984D02*
X7277325Y-19961984D01*
X7277325Y-19961984D02*
X7258277Y-19990555D01*
X7258277Y-19990555D02*
X7239229Y-20009603D01*
X7239229Y-20009603D02*
X7220182Y-20019127D01*
X7515420Y-19961984D02*
X7420182Y-19961984D01*
X7420182Y-19961984D02*
X7410658Y-20057222D01*
X7410658Y-20057222D02*
X7420182Y-20047698D01*
X7420182Y-20047698D02*
X7439229Y-20038174D01*
X7439229Y-20038174D02*
X7486848Y-20038174D01*
X7486848Y-20038174D02*
X7505896Y-20047698D01*
X7505896Y-20047698D02*
X7515420Y-20057222D01*
X7515420Y-20057222D02*
X7524944Y-20076270D01*
X7524944Y-20076270D02*
X7524944Y-20123889D01*
X7524944Y-20123889D02*
X7515420Y-20142936D01*
X7515420Y-20142936D02*
X7505896Y-20152460D01*
X7505896Y-20152460D02*
X7486848Y-20161984D01*
X7486848Y-20161984D02*
X7439229Y-20161984D01*
X7439229Y-20161984D02*
X7420182Y-20152460D01*
X7420182Y-20152460D02*
X7410658Y-20142936D01*
X7601134Y-19961984D02*
X7601134Y-20000079D01*
X7677325Y-19961984D02*
X7677325Y-20000079D01*
X7972563Y-20238174D02*
X7963039Y-20228650D01*
X7963039Y-20228650D02*
X7943991Y-20200079D01*
X7943991Y-20200079D02*
X7934468Y-20181031D01*
X7934468Y-20181031D02*
X7924944Y-20152460D01*
X7924944Y-20152460D02*
X7915420Y-20104841D01*
X7915420Y-20104841D02*
X7915420Y-20066746D01*
X7915420Y-20066746D02*
X7924944Y-20019127D01*
X7924944Y-20019127D02*
X7934468Y-19990555D01*
X7934468Y-19990555D02*
X7943991Y-19971508D01*
X7943991Y-19971508D02*
X7963039Y-19942936D01*
X7963039Y-19942936D02*
X7972563Y-19933412D01*
X8153515Y-20161984D02*
X8039229Y-20161984D01*
X8096372Y-20161984D02*
X8096372Y-19961984D01*
X8096372Y-19961984D02*
X8077325Y-19990555D01*
X8077325Y-19990555D02*
X8058277Y-20009603D01*
X8058277Y-20009603D02*
X8039229Y-20019127D01*
X8277325Y-19961984D02*
X8296372Y-19961984D01*
X8296372Y-19961984D02*
X8315420Y-19971508D01*
X8315420Y-19971508D02*
X8324944Y-19981031D01*
X8324944Y-19981031D02*
X8334468Y-20000079D01*
X8334468Y-20000079D02*
X8343991Y-20038174D01*
X8343991Y-20038174D02*
X8343991Y-20085793D01*
X8343991Y-20085793D02*
X8334468Y-20123889D01*
X8334468Y-20123889D02*
X8324944Y-20142936D01*
X8324944Y-20142936D02*
X8315420Y-20152460D01*
X8315420Y-20152460D02*
X8296372Y-20161984D01*
X8296372Y-20161984D02*
X8277325Y-20161984D01*
X8277325Y-20161984D02*
X8258277Y-20152460D01*
X8258277Y-20152460D02*
X8248753Y-20142936D01*
X8248753Y-20142936D02*
X8239229Y-20123889D01*
X8239229Y-20123889D02*
X8229706Y-20085793D01*
X8229706Y-20085793D02*
X8229706Y-20038174D01*
X8229706Y-20038174D02*
X8239229Y-20000079D01*
X8239229Y-20000079D02*
X8248753Y-19981031D01*
X8248753Y-19981031D02*
X8258277Y-19971508D01*
X8258277Y-19971508D02*
X8277325Y-19961984D01*
X8582087Y-20161984D02*
X8582087Y-19961984D01*
X8667801Y-20161984D02*
X8667801Y-20057222D01*
X8667801Y-20057222D02*
X8658277Y-20038174D01*
X8658277Y-20038174D02*
X8639230Y-20028650D01*
X8639230Y-20028650D02*
X8610658Y-20028650D01*
X8610658Y-20028650D02*
X8591611Y-20038174D01*
X8591611Y-20038174D02*
X8582087Y-20047698D01*
X8791611Y-20161984D02*
X8772563Y-20152460D01*
X8772563Y-20152460D02*
X8763039Y-20142936D01*
X8763039Y-20142936D02*
X8753515Y-20123889D01*
X8753515Y-20123889D02*
X8753515Y-20066746D01*
X8753515Y-20066746D02*
X8763039Y-20047698D01*
X8763039Y-20047698D02*
X8772563Y-20038174D01*
X8772563Y-20038174D02*
X8791611Y-20028650D01*
X8791611Y-20028650D02*
X8820182Y-20028650D01*
X8820182Y-20028650D02*
X8839230Y-20038174D01*
X8839230Y-20038174D02*
X8848753Y-20047698D01*
X8848753Y-20047698D02*
X8858277Y-20066746D01*
X8858277Y-20066746D02*
X8858277Y-20123889D01*
X8858277Y-20123889D02*
X8848753Y-20142936D01*
X8848753Y-20142936D02*
X8839230Y-20152460D01*
X8839230Y-20152460D02*
X8820182Y-20161984D01*
X8820182Y-20161984D02*
X8791611Y-20161984D01*
X8972563Y-20161984D02*
X8953515Y-20152460D01*
X8953515Y-20152460D02*
X8943992Y-20133412D01*
X8943992Y-20133412D02*
X8943992Y-19961984D01*
X9124944Y-20152460D02*
X9105896Y-20161984D01*
X9105896Y-20161984D02*
X9067801Y-20161984D01*
X9067801Y-20161984D02*
X9048753Y-20152460D01*
X9048753Y-20152460D02*
X9039230Y-20133412D01*
X9039230Y-20133412D02*
X9039230Y-20057222D01*
X9039230Y-20057222D02*
X9048753Y-20038174D01*
X9048753Y-20038174D02*
X9067801Y-20028650D01*
X9067801Y-20028650D02*
X9105896Y-20028650D01*
X9105896Y-20028650D02*
X9124944Y-20038174D01*
X9124944Y-20038174D02*
X9134468Y-20057222D01*
X9134468Y-20057222D02*
X9134468Y-20076270D01*
X9134468Y-20076270D02*
X9039230Y-20095317D01*
X9210658Y-20152460D02*
X9229706Y-20161984D01*
X9229706Y-20161984D02*
X9267801Y-20161984D01*
X9267801Y-20161984D02*
X9286849Y-20152460D01*
X9286849Y-20152460D02*
X9296373Y-20133412D01*
X9296373Y-20133412D02*
X9296373Y-20123889D01*
X9296373Y-20123889D02*
X9286849Y-20104841D01*
X9286849Y-20104841D02*
X9267801Y-20095317D01*
X9267801Y-20095317D02*
X9239230Y-20095317D01*
X9239230Y-20095317D02*
X9220182Y-20085793D01*
X9220182Y-20085793D02*
X9210658Y-20066746D01*
X9210658Y-20066746D02*
X9210658Y-20057222D01*
X9210658Y-20057222D02*
X9220182Y-20038174D01*
X9220182Y-20038174D02*
X9239230Y-20028650D01*
X9239230Y-20028650D02*
X9267801Y-20028650D01*
X9267801Y-20028650D02*
X9286849Y-20038174D01*
X9363039Y-20238174D02*
X9372563Y-20228650D01*
X9372563Y-20228650D02*
X9391611Y-20200079D01*
X9391611Y-20200079D02*
X9401134Y-20181031D01*
X9401134Y-20181031D02*
X9410658Y-20152460D01*
X9410658Y-20152460D02*
X9420182Y-20104841D01*
X9420182Y-20104841D02*
X9420182Y-20066746D01*
X9420182Y-20066746D02*
X9410658Y-20019127D01*
X9410658Y-20019127D02*
X9401134Y-19990555D01*
X9401134Y-19990555D02*
X9391611Y-19971508D01*
X9391611Y-19971508D02*
X9372563Y-19942936D01*
X9372563Y-19942936D02*
X9363039Y-19933412D01*
D12*
X4383002Y-20369502D02*
X4383002Y-20299498D01*
X4312998Y-20299498D01*
X4312998Y-20369502D01*
X4383002Y-20369502D01*
D11*
X4696372Y-20225984D02*
X4715420Y-20225984D01*
X4715420Y-20225984D02*
X4734467Y-20235508D01*
X4734467Y-20235508D02*
X4743991Y-20245031D01*
X4743991Y-20245031D02*
X4753515Y-20264079D01*
X4753515Y-20264079D02*
X4763039Y-20302174D01*
X4763039Y-20302174D02*
X4763039Y-20349793D01*
X4763039Y-20349793D02*
X4753515Y-20387889D01*
X4753515Y-20387889D02*
X4743991Y-20406936D01*
X4743991Y-20406936D02*
X4734467Y-20416460D01*
X4734467Y-20416460D02*
X4715420Y-20425984D01*
X4715420Y-20425984D02*
X4696372Y-20425984D01*
X4696372Y-20425984D02*
X4677324Y-20416460D01*
X4677324Y-20416460D02*
X4667801Y-20406936D01*
X4667801Y-20406936D02*
X4658277Y-20387889D01*
X4658277Y-20387889D02*
X4648753Y-20349793D01*
X4648753Y-20349793D02*
X4648753Y-20302174D01*
X4648753Y-20302174D02*
X4658277Y-20264079D01*
X4658277Y-20264079D02*
X4667801Y-20245031D01*
X4667801Y-20245031D02*
X4677324Y-20235508D01*
X4677324Y-20235508D02*
X4696372Y-20225984D01*
X4848753Y-20406936D02*
X4858277Y-20416460D01*
X4858277Y-20416460D02*
X4848753Y-20425984D01*
X4848753Y-20425984D02*
X4839229Y-20416460D01*
X4839229Y-20416460D02*
X4848753Y-20406936D01*
X4848753Y-20406936D02*
X4848753Y-20425984D01*
X4953515Y-20425984D02*
X4991610Y-20425984D01*
X4991610Y-20425984D02*
X5010658Y-20416460D01*
X5010658Y-20416460D02*
X5020182Y-20406936D01*
X5020182Y-20406936D02*
X5039229Y-20378365D01*
X5039229Y-20378365D02*
X5048753Y-20340270D01*
X5048753Y-20340270D02*
X5048753Y-20264079D01*
X5048753Y-20264079D02*
X5039229Y-20245031D01*
X5039229Y-20245031D02*
X5029705Y-20235508D01*
X5029705Y-20235508D02*
X5010658Y-20225984D01*
X5010658Y-20225984D02*
X4972563Y-20225984D01*
X4972563Y-20225984D02*
X4953515Y-20235508D01*
X4953515Y-20235508D02*
X4943991Y-20245031D01*
X4943991Y-20245031D02*
X4934467Y-20264079D01*
X4934467Y-20264079D02*
X4934467Y-20311698D01*
X4934467Y-20311698D02*
X4943991Y-20330746D01*
X4943991Y-20330746D02*
X4953515Y-20340270D01*
X4953515Y-20340270D02*
X4972563Y-20349793D01*
X4972563Y-20349793D02*
X5010658Y-20349793D01*
X5010658Y-20349793D02*
X5029705Y-20340270D01*
X5029705Y-20340270D02*
X5039229Y-20330746D01*
X5039229Y-20330746D02*
X5048753Y-20311698D01*
X5143991Y-20425984D02*
X5182086Y-20425984D01*
X5182086Y-20425984D02*
X5201134Y-20416460D01*
X5201134Y-20416460D02*
X5210658Y-20406936D01*
X5210658Y-20406936D02*
X5229705Y-20378365D01*
X5229705Y-20378365D02*
X5239229Y-20340270D01*
X5239229Y-20340270D02*
X5239229Y-20264079D01*
X5239229Y-20264079D02*
X5229705Y-20245031D01*
X5229705Y-20245031D02*
X5220182Y-20235508D01*
X5220182Y-20235508D02*
X5201134Y-20225984D01*
X5201134Y-20225984D02*
X5163039Y-20225984D01*
X5163039Y-20225984D02*
X5143991Y-20235508D01*
X5143991Y-20235508D02*
X5134467Y-20245031D01*
X5134467Y-20245031D02*
X5124944Y-20264079D01*
X5124944Y-20264079D02*
X5124944Y-20311698D01*
X5124944Y-20311698D02*
X5134467Y-20330746D01*
X5134467Y-20330746D02*
X5143991Y-20340270D01*
X5143991Y-20340270D02*
X5163039Y-20349793D01*
X5163039Y-20349793D02*
X5201134Y-20349793D01*
X5201134Y-20349793D02*
X5220182Y-20340270D01*
X5220182Y-20340270D02*
X5229705Y-20330746D01*
X5229705Y-20330746D02*
X5239229Y-20311698D01*
X5363039Y-20225984D02*
X5382086Y-20225984D01*
X5382086Y-20225984D02*
X5401134Y-20235508D01*
X5401134Y-20235508D02*
X5410658Y-20245031D01*
X5410658Y-20245031D02*
X5420182Y-20264079D01*
X5420182Y-20264079D02*
X5429705Y-20302174D01*
X5429705Y-20302174D02*
X5429705Y-20349793D01*
X5429705Y-20349793D02*
X5420182Y-20387889D01*
X5420182Y-20387889D02*
X5410658Y-20406936D01*
X5410658Y-20406936D02*
X5401134Y-20416460D01*
X5401134Y-20416460D02*
X5382086Y-20425984D01*
X5382086Y-20425984D02*
X5363039Y-20425984D01*
X5363039Y-20425984D02*
X5343991Y-20416460D01*
X5343991Y-20416460D02*
X5334467Y-20406936D01*
X5334467Y-20406936D02*
X5324944Y-20387889D01*
X5324944Y-20387889D02*
X5315420Y-20349793D01*
X5315420Y-20349793D02*
X5315420Y-20302174D01*
X5315420Y-20302174D02*
X5324944Y-20264079D01*
X5324944Y-20264079D02*
X5334467Y-20245031D01*
X5334467Y-20245031D02*
X5343991Y-20235508D01*
X5343991Y-20235508D02*
X5363039Y-20225984D01*
X5515420Y-20425984D02*
X5515420Y-20292650D01*
X5515420Y-20311698D02*
X5524944Y-20302174D01*
X5524944Y-20302174D02*
X5543991Y-20292650D01*
X5543991Y-20292650D02*
X5572563Y-20292650D01*
X5572563Y-20292650D02*
X5591610Y-20302174D01*
X5591610Y-20302174D02*
X5601134Y-20321222D01*
X5601134Y-20321222D02*
X5601134Y-20425984D01*
X5601134Y-20321222D02*
X5610658Y-20302174D01*
X5610658Y-20302174D02*
X5629705Y-20292650D01*
X5629705Y-20292650D02*
X5658277Y-20292650D01*
X5658277Y-20292650D02*
X5677324Y-20302174D01*
X5677324Y-20302174D02*
X5686848Y-20321222D01*
X5686848Y-20321222D02*
X5686848Y-20425984D01*
X5782086Y-20425984D02*
X5782086Y-20292650D01*
X5782086Y-20311698D02*
X5791610Y-20302174D01*
X5791610Y-20302174D02*
X5810658Y-20292650D01*
X5810658Y-20292650D02*
X5839229Y-20292650D01*
X5839229Y-20292650D02*
X5858277Y-20302174D01*
X5858277Y-20302174D02*
X5867801Y-20321222D01*
X5867801Y-20321222D02*
X5867801Y-20425984D01*
X5867801Y-20321222D02*
X5877324Y-20302174D01*
X5877324Y-20302174D02*
X5896372Y-20292650D01*
X5896372Y-20292650D02*
X5924943Y-20292650D01*
X5924943Y-20292650D02*
X5943991Y-20302174D01*
X5943991Y-20302174D02*
X5953515Y-20321222D01*
X5953515Y-20321222D02*
X5953515Y-20425984D01*
X6343991Y-20216460D02*
X6172563Y-20473603D01*
X6601134Y-20225984D02*
X6620182Y-20225984D01*
X6620182Y-20225984D02*
X6639229Y-20235508D01*
X6639229Y-20235508D02*
X6648753Y-20245031D01*
X6648753Y-20245031D02*
X6658277Y-20264079D01*
X6658277Y-20264079D02*
X6667801Y-20302174D01*
X6667801Y-20302174D02*
X6667801Y-20349793D01*
X6667801Y-20349793D02*
X6658277Y-20387889D01*
X6658277Y-20387889D02*
X6648753Y-20406936D01*
X6648753Y-20406936D02*
X6639229Y-20416460D01*
X6639229Y-20416460D02*
X6620182Y-20425984D01*
X6620182Y-20425984D02*
X6601134Y-20425984D01*
X6601134Y-20425984D02*
X6582086Y-20416460D01*
X6582086Y-20416460D02*
X6572563Y-20406936D01*
X6572563Y-20406936D02*
X6563039Y-20387889D01*
X6563039Y-20387889D02*
X6553515Y-20349793D01*
X6553515Y-20349793D02*
X6553515Y-20302174D01*
X6553515Y-20302174D02*
X6563039Y-20264079D01*
X6563039Y-20264079D02*
X6572563Y-20245031D01*
X6572563Y-20245031D02*
X6582086Y-20235508D01*
X6582086Y-20235508D02*
X6601134Y-20225984D01*
X6753515Y-20406936D02*
X6763039Y-20416460D01*
X6763039Y-20416460D02*
X6753515Y-20425984D01*
X6753515Y-20425984D02*
X6743991Y-20416460D01*
X6743991Y-20416460D02*
X6753515Y-20406936D01*
X6753515Y-20406936D02*
X6753515Y-20425984D01*
X6886848Y-20225984D02*
X6905896Y-20225984D01*
X6905896Y-20225984D02*
X6924944Y-20235508D01*
X6924944Y-20235508D02*
X6934467Y-20245031D01*
X6934467Y-20245031D02*
X6943991Y-20264079D01*
X6943991Y-20264079D02*
X6953515Y-20302174D01*
X6953515Y-20302174D02*
X6953515Y-20349793D01*
X6953515Y-20349793D02*
X6943991Y-20387889D01*
X6943991Y-20387889D02*
X6934467Y-20406936D01*
X6934467Y-20406936D02*
X6924944Y-20416460D01*
X6924944Y-20416460D02*
X6905896Y-20425984D01*
X6905896Y-20425984D02*
X6886848Y-20425984D01*
X6886848Y-20425984D02*
X6867801Y-20416460D01*
X6867801Y-20416460D02*
X6858277Y-20406936D01*
X6858277Y-20406936D02*
X6848753Y-20387889D01*
X6848753Y-20387889D02*
X6839229Y-20349793D01*
X6839229Y-20349793D02*
X6839229Y-20302174D01*
X6839229Y-20302174D02*
X6848753Y-20264079D01*
X6848753Y-20264079D02*
X6858277Y-20245031D01*
X6858277Y-20245031D02*
X6867801Y-20235508D01*
X6867801Y-20235508D02*
X6886848Y-20225984D01*
X7020182Y-20225984D02*
X7143991Y-20225984D01*
X7143991Y-20225984D02*
X7077325Y-20302174D01*
X7077325Y-20302174D02*
X7105896Y-20302174D01*
X7105896Y-20302174D02*
X7124944Y-20311698D01*
X7124944Y-20311698D02*
X7134467Y-20321222D01*
X7134467Y-20321222D02*
X7143991Y-20340270D01*
X7143991Y-20340270D02*
X7143991Y-20387889D01*
X7143991Y-20387889D02*
X7134467Y-20406936D01*
X7134467Y-20406936D02*
X7124944Y-20416460D01*
X7124944Y-20416460D02*
X7105896Y-20425984D01*
X7105896Y-20425984D02*
X7048753Y-20425984D01*
X7048753Y-20425984D02*
X7029706Y-20416460D01*
X7029706Y-20416460D02*
X7020182Y-20406936D01*
X7239229Y-20425984D02*
X7277325Y-20425984D01*
X7277325Y-20425984D02*
X7296372Y-20416460D01*
X7296372Y-20416460D02*
X7305896Y-20406936D01*
X7305896Y-20406936D02*
X7324944Y-20378365D01*
X7324944Y-20378365D02*
X7334467Y-20340270D01*
X7334467Y-20340270D02*
X7334467Y-20264079D01*
X7334467Y-20264079D02*
X7324944Y-20245031D01*
X7324944Y-20245031D02*
X7315420Y-20235508D01*
X7315420Y-20235508D02*
X7296372Y-20225984D01*
X7296372Y-20225984D02*
X7258277Y-20225984D01*
X7258277Y-20225984D02*
X7239229Y-20235508D01*
X7239229Y-20235508D02*
X7229706Y-20245031D01*
X7229706Y-20245031D02*
X7220182Y-20264079D01*
X7220182Y-20264079D02*
X7220182Y-20311698D01*
X7220182Y-20311698D02*
X7229706Y-20330746D01*
X7229706Y-20330746D02*
X7239229Y-20340270D01*
X7239229Y-20340270D02*
X7258277Y-20349793D01*
X7258277Y-20349793D02*
X7296372Y-20349793D01*
X7296372Y-20349793D02*
X7315420Y-20340270D01*
X7315420Y-20340270D02*
X7324944Y-20330746D01*
X7324944Y-20330746D02*
X7334467Y-20311698D01*
X7458277Y-20225984D02*
X7477325Y-20225984D01*
X7477325Y-20225984D02*
X7496372Y-20235508D01*
X7496372Y-20235508D02*
X7505896Y-20245031D01*
X7505896Y-20245031D02*
X7515420Y-20264079D01*
X7515420Y-20264079D02*
X7524944Y-20302174D01*
X7524944Y-20302174D02*
X7524944Y-20349793D01*
X7524944Y-20349793D02*
X7515420Y-20387889D01*
X7515420Y-20387889D02*
X7505896Y-20406936D01*
X7505896Y-20406936D02*
X7496372Y-20416460D01*
X7496372Y-20416460D02*
X7477325Y-20425984D01*
X7477325Y-20425984D02*
X7458277Y-20425984D01*
X7458277Y-20425984D02*
X7439229Y-20416460D01*
X7439229Y-20416460D02*
X7429706Y-20406936D01*
X7429706Y-20406936D02*
X7420182Y-20387889D01*
X7420182Y-20387889D02*
X7410658Y-20349793D01*
X7410658Y-20349793D02*
X7410658Y-20302174D01*
X7410658Y-20302174D02*
X7420182Y-20264079D01*
X7420182Y-20264079D02*
X7429706Y-20245031D01*
X7429706Y-20245031D02*
X7439229Y-20235508D01*
X7439229Y-20235508D02*
X7458277Y-20225984D01*
X7601134Y-20225984D02*
X7601134Y-20264079D01*
X7677325Y-20225984D02*
X7677325Y-20264079D01*
X7972563Y-20502174D02*
X7963039Y-20492650D01*
X7963039Y-20492650D02*
X7943991Y-20464079D01*
X7943991Y-20464079D02*
X7934468Y-20445031D01*
X7934468Y-20445031D02*
X7924944Y-20416460D01*
X7924944Y-20416460D02*
X7915420Y-20368841D01*
X7915420Y-20368841D02*
X7915420Y-20330746D01*
X7915420Y-20330746D02*
X7924944Y-20283127D01*
X7924944Y-20283127D02*
X7934468Y-20254555D01*
X7934468Y-20254555D02*
X7943991Y-20235508D01*
X7943991Y-20235508D02*
X7963039Y-20206936D01*
X7963039Y-20206936D02*
X7972563Y-20197412D01*
X8134468Y-20292650D02*
X8134468Y-20425984D01*
X8086848Y-20216460D02*
X8039229Y-20359317D01*
X8039229Y-20359317D02*
X8163039Y-20359317D01*
X8391611Y-20425984D02*
X8391611Y-20225984D01*
X8477325Y-20425984D02*
X8477325Y-20321222D01*
X8477325Y-20321222D02*
X8467801Y-20302174D01*
X8467801Y-20302174D02*
X8448753Y-20292650D01*
X8448753Y-20292650D02*
X8420182Y-20292650D01*
X8420182Y-20292650D02*
X8401134Y-20302174D01*
X8401134Y-20302174D02*
X8391611Y-20311698D01*
X8601134Y-20425984D02*
X8582087Y-20416460D01*
X8582087Y-20416460D02*
X8572563Y-20406936D01*
X8572563Y-20406936D02*
X8563039Y-20387889D01*
X8563039Y-20387889D02*
X8563039Y-20330746D01*
X8563039Y-20330746D02*
X8572563Y-20311698D01*
X8572563Y-20311698D02*
X8582087Y-20302174D01*
X8582087Y-20302174D02*
X8601134Y-20292650D01*
X8601134Y-20292650D02*
X8629706Y-20292650D01*
X8629706Y-20292650D02*
X8648753Y-20302174D01*
X8648753Y-20302174D02*
X8658277Y-20311698D01*
X8658277Y-20311698D02*
X8667801Y-20330746D01*
X8667801Y-20330746D02*
X8667801Y-20387889D01*
X8667801Y-20387889D02*
X8658277Y-20406936D01*
X8658277Y-20406936D02*
X8648753Y-20416460D01*
X8648753Y-20416460D02*
X8629706Y-20425984D01*
X8629706Y-20425984D02*
X8601134Y-20425984D01*
X8782087Y-20425984D02*
X8763039Y-20416460D01*
X8763039Y-20416460D02*
X8753515Y-20397412D01*
X8753515Y-20397412D02*
X8753515Y-20225984D01*
X8934468Y-20416460D02*
X8915420Y-20425984D01*
X8915420Y-20425984D02*
X8877325Y-20425984D01*
X8877325Y-20425984D02*
X8858277Y-20416460D01*
X8858277Y-20416460D02*
X8848753Y-20397412D01*
X8848753Y-20397412D02*
X8848753Y-20321222D01*
X8848753Y-20321222D02*
X8858277Y-20302174D01*
X8858277Y-20302174D02*
X8877325Y-20292650D01*
X8877325Y-20292650D02*
X8915420Y-20292650D01*
X8915420Y-20292650D02*
X8934468Y-20302174D01*
X8934468Y-20302174D02*
X8943992Y-20321222D01*
X8943992Y-20321222D02*
X8943992Y-20340270D01*
X8943992Y-20340270D02*
X8848753Y-20359317D01*
X9020182Y-20416460D02*
X9039230Y-20425984D01*
X9039230Y-20425984D02*
X9077325Y-20425984D01*
X9077325Y-20425984D02*
X9096373Y-20416460D01*
X9096373Y-20416460D02*
X9105896Y-20397412D01*
X9105896Y-20397412D02*
X9105896Y-20387889D01*
X9105896Y-20387889D02*
X9096373Y-20368841D01*
X9096373Y-20368841D02*
X9077325Y-20359317D01*
X9077325Y-20359317D02*
X9048753Y-20359317D01*
X9048753Y-20359317D02*
X9029706Y-20349793D01*
X9029706Y-20349793D02*
X9020182Y-20330746D01*
X9020182Y-20330746D02*
X9020182Y-20321222D01*
X9020182Y-20321222D02*
X9029706Y-20302174D01*
X9029706Y-20302174D02*
X9048753Y-20292650D01*
X9048753Y-20292650D02*
X9077325Y-20292650D01*
X9077325Y-20292650D02*
X9096373Y-20302174D01*
X9172563Y-20502174D02*
X9182087Y-20492650D01*
X9182087Y-20492650D02*
X9201134Y-20464079D01*
X9201134Y-20464079D02*
X9210658Y-20445031D01*
X9210658Y-20445031D02*
X9220182Y-20416460D01*
X9220182Y-20416460D02*
X9229706Y-20368841D01*
X9229706Y-20368841D02*
X9229706Y-20330746D01*
X9229706Y-20330746D02*
X9220182Y-20283127D01*
X9220182Y-20283127D02*
X9210658Y-20254555D01*
X9210658Y-20254555D02*
X9201134Y-20235508D01*
X9201134Y-20235508D02*
X9182087Y-20206936D01*
X9182087Y-20206936D02*
X9172563Y-20197412D01*
D12*
X4347500Y-20648500D02*
X4397500Y-20598500D01*
X4347500Y-20548500D01*
X4297500Y-20598500D01*
X4347500Y-20648500D01*
D11*
X4763039Y-20689984D02*
X4648753Y-20689984D01*
X4705896Y-20689984D02*
X4705896Y-20489984D01*
X4705896Y-20489984D02*
X4686848Y-20518555D01*
X4686848Y-20518555D02*
X4667801Y-20537603D01*
X4667801Y-20537603D02*
X4648753Y-20547127D01*
X4848753Y-20670936D02*
X4858277Y-20680460D01*
X4858277Y-20680460D02*
X4848753Y-20689984D01*
X4848753Y-20689984D02*
X4839229Y-20680460D01*
X4839229Y-20680460D02*
X4848753Y-20670936D01*
X4848753Y-20670936D02*
X4848753Y-20689984D01*
X4982086Y-20489984D02*
X5001134Y-20489984D01*
X5001134Y-20489984D02*
X5020182Y-20499508D01*
X5020182Y-20499508D02*
X5029705Y-20509031D01*
X5029705Y-20509031D02*
X5039229Y-20528079D01*
X5039229Y-20528079D02*
X5048753Y-20566174D01*
X5048753Y-20566174D02*
X5048753Y-20613793D01*
X5048753Y-20613793D02*
X5039229Y-20651889D01*
X5039229Y-20651889D02*
X5029705Y-20670936D01*
X5029705Y-20670936D02*
X5020182Y-20680460D01*
X5020182Y-20680460D02*
X5001134Y-20689984D01*
X5001134Y-20689984D02*
X4982086Y-20689984D01*
X4982086Y-20689984D02*
X4963039Y-20680460D01*
X4963039Y-20680460D02*
X4953515Y-20670936D01*
X4953515Y-20670936D02*
X4943991Y-20651889D01*
X4943991Y-20651889D02*
X4934467Y-20613793D01*
X4934467Y-20613793D02*
X4934467Y-20566174D01*
X4934467Y-20566174D02*
X4943991Y-20528079D01*
X4943991Y-20528079D02*
X4953515Y-20509031D01*
X4953515Y-20509031D02*
X4963039Y-20499508D01*
X4963039Y-20499508D02*
X4982086Y-20489984D01*
X5172563Y-20489984D02*
X5191610Y-20489984D01*
X5191610Y-20489984D02*
X5210658Y-20499508D01*
X5210658Y-20499508D02*
X5220182Y-20509031D01*
X5220182Y-20509031D02*
X5229705Y-20528079D01*
X5229705Y-20528079D02*
X5239229Y-20566174D01*
X5239229Y-20566174D02*
X5239229Y-20613793D01*
X5239229Y-20613793D02*
X5229705Y-20651889D01*
X5229705Y-20651889D02*
X5220182Y-20670936D01*
X5220182Y-20670936D02*
X5210658Y-20680460D01*
X5210658Y-20680460D02*
X5191610Y-20689984D01*
X5191610Y-20689984D02*
X5172563Y-20689984D01*
X5172563Y-20689984D02*
X5153515Y-20680460D01*
X5153515Y-20680460D02*
X5143991Y-20670936D01*
X5143991Y-20670936D02*
X5134467Y-20651889D01*
X5134467Y-20651889D02*
X5124944Y-20613793D01*
X5124944Y-20613793D02*
X5124944Y-20566174D01*
X5124944Y-20566174D02*
X5134467Y-20528079D01*
X5134467Y-20528079D02*
X5143991Y-20509031D01*
X5143991Y-20509031D02*
X5153515Y-20499508D01*
X5153515Y-20499508D02*
X5172563Y-20489984D01*
X5363039Y-20489984D02*
X5382086Y-20489984D01*
X5382086Y-20489984D02*
X5401134Y-20499508D01*
X5401134Y-20499508D02*
X5410658Y-20509031D01*
X5410658Y-20509031D02*
X5420182Y-20528079D01*
X5420182Y-20528079D02*
X5429705Y-20566174D01*
X5429705Y-20566174D02*
X5429705Y-20613793D01*
X5429705Y-20613793D02*
X5420182Y-20651889D01*
X5420182Y-20651889D02*
X5410658Y-20670936D01*
X5410658Y-20670936D02*
X5401134Y-20680460D01*
X5401134Y-20680460D02*
X5382086Y-20689984D01*
X5382086Y-20689984D02*
X5363039Y-20689984D01*
X5363039Y-20689984D02*
X5343991Y-20680460D01*
X5343991Y-20680460D02*
X5334467Y-20670936D01*
X5334467Y-20670936D02*
X5324944Y-20651889D01*
X5324944Y-20651889D02*
X5315420Y-20613793D01*
X5315420Y-20613793D02*
X5315420Y-20566174D01*
X5315420Y-20566174D02*
X5324944Y-20528079D01*
X5324944Y-20528079D02*
X5334467Y-20509031D01*
X5334467Y-20509031D02*
X5343991Y-20499508D01*
X5343991Y-20499508D02*
X5363039Y-20489984D01*
X5515420Y-20689984D02*
X5515420Y-20556650D01*
X5515420Y-20575698D02*
X5524944Y-20566174D01*
X5524944Y-20566174D02*
X5543991Y-20556650D01*
X5543991Y-20556650D02*
X5572563Y-20556650D01*
X5572563Y-20556650D02*
X5591610Y-20566174D01*
X5591610Y-20566174D02*
X5601134Y-20585222D01*
X5601134Y-20585222D02*
X5601134Y-20689984D01*
X5601134Y-20585222D02*
X5610658Y-20566174D01*
X5610658Y-20566174D02*
X5629705Y-20556650D01*
X5629705Y-20556650D02*
X5658277Y-20556650D01*
X5658277Y-20556650D02*
X5677324Y-20566174D01*
X5677324Y-20566174D02*
X5686848Y-20585222D01*
X5686848Y-20585222D02*
X5686848Y-20689984D01*
X5782086Y-20689984D02*
X5782086Y-20556650D01*
X5782086Y-20575698D02*
X5791610Y-20566174D01*
X5791610Y-20566174D02*
X5810658Y-20556650D01*
X5810658Y-20556650D02*
X5839229Y-20556650D01*
X5839229Y-20556650D02*
X5858277Y-20566174D01*
X5858277Y-20566174D02*
X5867801Y-20585222D01*
X5867801Y-20585222D02*
X5867801Y-20689984D01*
X5867801Y-20585222D02*
X5877324Y-20566174D01*
X5877324Y-20566174D02*
X5896372Y-20556650D01*
X5896372Y-20556650D02*
X5924943Y-20556650D01*
X5924943Y-20556650D02*
X5943991Y-20566174D01*
X5943991Y-20566174D02*
X5953515Y-20585222D01*
X5953515Y-20585222D02*
X5953515Y-20689984D01*
X6343991Y-20480460D02*
X6172563Y-20737603D01*
X6601134Y-20489984D02*
X6620182Y-20489984D01*
X6620182Y-20489984D02*
X6639229Y-20499508D01*
X6639229Y-20499508D02*
X6648753Y-20509031D01*
X6648753Y-20509031D02*
X6658277Y-20528079D01*
X6658277Y-20528079D02*
X6667801Y-20566174D01*
X6667801Y-20566174D02*
X6667801Y-20613793D01*
X6667801Y-20613793D02*
X6658277Y-20651889D01*
X6658277Y-20651889D02*
X6648753Y-20670936D01*
X6648753Y-20670936D02*
X6639229Y-20680460D01*
X6639229Y-20680460D02*
X6620182Y-20689984D01*
X6620182Y-20689984D02*
X6601134Y-20689984D01*
X6601134Y-20689984D02*
X6582086Y-20680460D01*
X6582086Y-20680460D02*
X6572563Y-20670936D01*
X6572563Y-20670936D02*
X6563039Y-20651889D01*
X6563039Y-20651889D02*
X6553515Y-20613793D01*
X6553515Y-20613793D02*
X6553515Y-20566174D01*
X6553515Y-20566174D02*
X6563039Y-20528079D01*
X6563039Y-20528079D02*
X6572563Y-20509031D01*
X6572563Y-20509031D02*
X6582086Y-20499508D01*
X6582086Y-20499508D02*
X6601134Y-20489984D01*
X6753515Y-20670936D02*
X6763039Y-20680460D01*
X6763039Y-20680460D02*
X6753515Y-20689984D01*
X6753515Y-20689984D02*
X6743991Y-20680460D01*
X6743991Y-20680460D02*
X6753515Y-20670936D01*
X6753515Y-20670936D02*
X6753515Y-20689984D01*
X6886848Y-20489984D02*
X6905896Y-20489984D01*
X6905896Y-20489984D02*
X6924944Y-20499508D01*
X6924944Y-20499508D02*
X6934467Y-20509031D01*
X6934467Y-20509031D02*
X6943991Y-20528079D01*
X6943991Y-20528079D02*
X6953515Y-20566174D01*
X6953515Y-20566174D02*
X6953515Y-20613793D01*
X6953515Y-20613793D02*
X6943991Y-20651889D01*
X6943991Y-20651889D02*
X6934467Y-20670936D01*
X6934467Y-20670936D02*
X6924944Y-20680460D01*
X6924944Y-20680460D02*
X6905896Y-20689984D01*
X6905896Y-20689984D02*
X6886848Y-20689984D01*
X6886848Y-20689984D02*
X6867801Y-20680460D01*
X6867801Y-20680460D02*
X6858277Y-20670936D01*
X6858277Y-20670936D02*
X6848753Y-20651889D01*
X6848753Y-20651889D02*
X6839229Y-20613793D01*
X6839229Y-20613793D02*
X6839229Y-20566174D01*
X6839229Y-20566174D02*
X6848753Y-20528079D01*
X6848753Y-20528079D02*
X6858277Y-20509031D01*
X6858277Y-20509031D02*
X6867801Y-20499508D01*
X6867801Y-20499508D02*
X6886848Y-20489984D01*
X7020182Y-20489984D02*
X7143991Y-20489984D01*
X7143991Y-20489984D02*
X7077325Y-20566174D01*
X7077325Y-20566174D02*
X7105896Y-20566174D01*
X7105896Y-20566174D02*
X7124944Y-20575698D01*
X7124944Y-20575698D02*
X7134467Y-20585222D01*
X7134467Y-20585222D02*
X7143991Y-20604270D01*
X7143991Y-20604270D02*
X7143991Y-20651889D01*
X7143991Y-20651889D02*
X7134467Y-20670936D01*
X7134467Y-20670936D02*
X7124944Y-20680460D01*
X7124944Y-20680460D02*
X7105896Y-20689984D01*
X7105896Y-20689984D02*
X7048753Y-20689984D01*
X7048753Y-20689984D02*
X7029706Y-20680460D01*
X7029706Y-20680460D02*
X7020182Y-20670936D01*
X7239229Y-20689984D02*
X7277325Y-20689984D01*
X7277325Y-20689984D02*
X7296372Y-20680460D01*
X7296372Y-20680460D02*
X7305896Y-20670936D01*
X7305896Y-20670936D02*
X7324944Y-20642365D01*
X7324944Y-20642365D02*
X7334467Y-20604270D01*
X7334467Y-20604270D02*
X7334467Y-20528079D01*
X7334467Y-20528079D02*
X7324944Y-20509031D01*
X7324944Y-20509031D02*
X7315420Y-20499508D01*
X7315420Y-20499508D02*
X7296372Y-20489984D01*
X7296372Y-20489984D02*
X7258277Y-20489984D01*
X7258277Y-20489984D02*
X7239229Y-20499508D01*
X7239229Y-20499508D02*
X7229706Y-20509031D01*
X7229706Y-20509031D02*
X7220182Y-20528079D01*
X7220182Y-20528079D02*
X7220182Y-20575698D01*
X7220182Y-20575698D02*
X7229706Y-20594746D01*
X7229706Y-20594746D02*
X7239229Y-20604270D01*
X7239229Y-20604270D02*
X7258277Y-20613793D01*
X7258277Y-20613793D02*
X7296372Y-20613793D01*
X7296372Y-20613793D02*
X7315420Y-20604270D01*
X7315420Y-20604270D02*
X7324944Y-20594746D01*
X7324944Y-20594746D02*
X7334467Y-20575698D01*
X7505896Y-20556650D02*
X7505896Y-20689984D01*
X7458277Y-20480460D02*
X7410658Y-20623317D01*
X7410658Y-20623317D02*
X7534467Y-20623317D01*
X7601134Y-20489984D02*
X7601134Y-20528079D01*
X7677325Y-20489984D02*
X7677325Y-20528079D01*
X7972563Y-20766174D02*
X7963039Y-20756650D01*
X7963039Y-20756650D02*
X7943991Y-20728079D01*
X7943991Y-20728079D02*
X7934468Y-20709031D01*
X7934468Y-20709031D02*
X7924944Y-20680460D01*
X7924944Y-20680460D02*
X7915420Y-20632841D01*
X7915420Y-20632841D02*
X7915420Y-20594746D01*
X7915420Y-20594746D02*
X7924944Y-20547127D01*
X7924944Y-20547127D02*
X7934468Y-20518555D01*
X7934468Y-20518555D02*
X7943991Y-20499508D01*
X7943991Y-20499508D02*
X7963039Y-20470936D01*
X7963039Y-20470936D02*
X7972563Y-20461412D01*
X8029706Y-20489984D02*
X8153515Y-20489984D01*
X8153515Y-20489984D02*
X8086848Y-20566174D01*
X8086848Y-20566174D02*
X8115420Y-20566174D01*
X8115420Y-20566174D02*
X8134468Y-20575698D01*
X8134468Y-20575698D02*
X8143991Y-20585222D01*
X8143991Y-20585222D02*
X8153515Y-20604270D01*
X8153515Y-20604270D02*
X8153515Y-20651889D01*
X8153515Y-20651889D02*
X8143991Y-20670936D01*
X8143991Y-20670936D02*
X8134468Y-20680460D01*
X8134468Y-20680460D02*
X8115420Y-20689984D01*
X8115420Y-20689984D02*
X8058277Y-20689984D01*
X8058277Y-20689984D02*
X8039229Y-20680460D01*
X8039229Y-20680460D02*
X8029706Y-20670936D01*
X8334468Y-20489984D02*
X8239229Y-20489984D01*
X8239229Y-20489984D02*
X8229706Y-20585222D01*
X8229706Y-20585222D02*
X8239229Y-20575698D01*
X8239229Y-20575698D02*
X8258277Y-20566174D01*
X8258277Y-20566174D02*
X8305896Y-20566174D01*
X8305896Y-20566174D02*
X8324944Y-20575698D01*
X8324944Y-20575698D02*
X8334468Y-20585222D01*
X8334468Y-20585222D02*
X8343991Y-20604270D01*
X8343991Y-20604270D02*
X8343991Y-20651889D01*
X8343991Y-20651889D02*
X8334468Y-20670936D01*
X8334468Y-20670936D02*
X8324944Y-20680460D01*
X8324944Y-20680460D02*
X8305896Y-20689984D01*
X8305896Y-20689984D02*
X8258277Y-20689984D01*
X8258277Y-20689984D02*
X8239229Y-20680460D01*
X8239229Y-20680460D02*
X8229706Y-20670936D01*
X8582087Y-20689984D02*
X8582087Y-20489984D01*
X8667801Y-20689984D02*
X8667801Y-20585222D01*
X8667801Y-20585222D02*
X8658277Y-20566174D01*
X8658277Y-20566174D02*
X8639230Y-20556650D01*
X8639230Y-20556650D02*
X8610658Y-20556650D01*
X8610658Y-20556650D02*
X8591611Y-20566174D01*
X8591611Y-20566174D02*
X8582087Y-20575698D01*
X8791611Y-20689984D02*
X8772563Y-20680460D01*
X8772563Y-20680460D02*
X8763039Y-20670936D01*
X8763039Y-20670936D02*
X8753515Y-20651889D01*
X8753515Y-20651889D02*
X8753515Y-20594746D01*
X8753515Y-20594746D02*
X8763039Y-20575698D01*
X8763039Y-20575698D02*
X8772563Y-20566174D01*
X8772563Y-20566174D02*
X8791611Y-20556650D01*
X8791611Y-20556650D02*
X8820182Y-20556650D01*
X8820182Y-20556650D02*
X8839230Y-20566174D01*
X8839230Y-20566174D02*
X8848753Y-20575698D01*
X8848753Y-20575698D02*
X8858277Y-20594746D01*
X8858277Y-20594746D02*
X8858277Y-20651889D01*
X8858277Y-20651889D02*
X8848753Y-20670936D01*
X8848753Y-20670936D02*
X8839230Y-20680460D01*
X8839230Y-20680460D02*
X8820182Y-20689984D01*
X8820182Y-20689984D02*
X8791611Y-20689984D01*
X8972563Y-20689984D02*
X8953515Y-20680460D01*
X8953515Y-20680460D02*
X8943992Y-20661412D01*
X8943992Y-20661412D02*
X8943992Y-20489984D01*
X9124944Y-20680460D02*
X9105896Y-20689984D01*
X9105896Y-20689984D02*
X9067801Y-20689984D01*
X9067801Y-20689984D02*
X9048753Y-20680460D01*
X9048753Y-20680460D02*
X9039230Y-20661412D01*
X9039230Y-20661412D02*
X9039230Y-20585222D01*
X9039230Y-20585222D02*
X9048753Y-20566174D01*
X9048753Y-20566174D02*
X9067801Y-20556650D01*
X9067801Y-20556650D02*
X9105896Y-20556650D01*
X9105896Y-20556650D02*
X9124944Y-20566174D01*
X9124944Y-20566174D02*
X9134468Y-20585222D01*
X9134468Y-20585222D02*
X9134468Y-20604270D01*
X9134468Y-20604270D02*
X9039230Y-20623317D01*
X9210658Y-20680460D02*
X9229706Y-20689984D01*
X9229706Y-20689984D02*
X9267801Y-20689984D01*
X9267801Y-20689984D02*
X9286849Y-20680460D01*
X9286849Y-20680460D02*
X9296373Y-20661412D01*
X9296373Y-20661412D02*
X9296373Y-20651889D01*
X9296373Y-20651889D02*
X9286849Y-20632841D01*
X9286849Y-20632841D02*
X9267801Y-20623317D01*
X9267801Y-20623317D02*
X9239230Y-20623317D01*
X9239230Y-20623317D02*
X9220182Y-20613793D01*
X9220182Y-20613793D02*
X9210658Y-20594746D01*
X9210658Y-20594746D02*
X9210658Y-20585222D01*
X9210658Y-20585222D02*
X9220182Y-20566174D01*
X9220182Y-20566174D02*
X9239230Y-20556650D01*
X9239230Y-20556650D02*
X9267801Y-20556650D01*
X9267801Y-20556650D02*
X9286849Y-20566174D01*
X9534468Y-20613793D02*
X9686849Y-20613793D01*
X9610658Y-20689984D02*
X9610658Y-20537603D01*
X10039230Y-20689984D02*
X9924944Y-20689984D01*
X9982087Y-20689984D02*
X9982087Y-20489984D01*
X9982087Y-20489984D02*
X9963039Y-20518555D01*
X9963039Y-20518555D02*
X9943992Y-20537603D01*
X9943992Y-20537603D02*
X9924944Y-20547127D01*
X10220182Y-20489984D02*
X10124944Y-20489984D01*
X10124944Y-20489984D02*
X10115420Y-20585222D01*
X10115420Y-20585222D02*
X10124944Y-20575698D01*
X10124944Y-20575698D02*
X10143992Y-20566174D01*
X10143992Y-20566174D02*
X10191611Y-20566174D01*
X10191611Y-20566174D02*
X10210658Y-20575698D01*
X10210658Y-20575698D02*
X10220182Y-20585222D01*
X10220182Y-20585222D02*
X10229706Y-20604270D01*
X10229706Y-20604270D02*
X10229706Y-20651889D01*
X10229706Y-20651889D02*
X10220182Y-20670936D01*
X10220182Y-20670936D02*
X10210658Y-20680460D01*
X10210658Y-20680460D02*
X10191611Y-20689984D01*
X10191611Y-20689984D02*
X10143992Y-20689984D01*
X10143992Y-20689984D02*
X10124944Y-20680460D01*
X10124944Y-20680460D02*
X10115420Y-20670936D01*
X10458277Y-20680460D02*
X10477325Y-20689984D01*
X10477325Y-20689984D02*
X10515420Y-20689984D01*
X10515420Y-20689984D02*
X10534468Y-20680460D01*
X10534468Y-20680460D02*
X10543992Y-20661412D01*
X10543992Y-20661412D02*
X10543992Y-20651889D01*
X10543992Y-20651889D02*
X10534468Y-20632841D01*
X10534468Y-20632841D02*
X10515420Y-20623317D01*
X10515420Y-20623317D02*
X10486849Y-20623317D01*
X10486849Y-20623317D02*
X10467801Y-20613793D01*
X10467801Y-20613793D02*
X10458277Y-20594746D01*
X10458277Y-20594746D02*
X10458277Y-20585222D01*
X10458277Y-20585222D02*
X10467801Y-20566174D01*
X10467801Y-20566174D02*
X10486849Y-20556650D01*
X10486849Y-20556650D02*
X10515420Y-20556650D01*
X10515420Y-20556650D02*
X10534468Y-20566174D01*
X10658277Y-20689984D02*
X10639230Y-20680460D01*
X10639230Y-20680460D02*
X10629706Y-20661412D01*
X10629706Y-20661412D02*
X10629706Y-20489984D01*
X10763039Y-20689984D02*
X10743992Y-20680460D01*
X10743992Y-20680460D02*
X10734468Y-20670936D01*
X10734468Y-20670936D02*
X10724944Y-20651889D01*
X10724944Y-20651889D02*
X10724944Y-20594746D01*
X10724944Y-20594746D02*
X10734468Y-20575698D01*
X10734468Y-20575698D02*
X10743992Y-20566174D01*
X10743992Y-20566174D02*
X10763039Y-20556650D01*
X10763039Y-20556650D02*
X10791611Y-20556650D01*
X10791611Y-20556650D02*
X10810658Y-20566174D01*
X10810658Y-20566174D02*
X10820182Y-20575698D01*
X10820182Y-20575698D02*
X10829706Y-20594746D01*
X10829706Y-20594746D02*
X10829706Y-20651889D01*
X10829706Y-20651889D02*
X10820182Y-20670936D01*
X10820182Y-20670936D02*
X10810658Y-20680460D01*
X10810658Y-20680460D02*
X10791611Y-20689984D01*
X10791611Y-20689984D02*
X10763039Y-20689984D01*
X10886849Y-20556650D02*
X10963039Y-20556650D01*
X10915420Y-20489984D02*
X10915420Y-20661412D01*
X10915420Y-20661412D02*
X10924944Y-20680460D01*
X10924944Y-20680460D02*
X10943992Y-20689984D01*
X10943992Y-20689984D02*
X10963039Y-20689984D01*
X11020182Y-20680460D02*
X11039230Y-20689984D01*
X11039230Y-20689984D02*
X11077325Y-20689984D01*
X11077325Y-20689984D02*
X11096373Y-20680460D01*
X11096373Y-20680460D02*
X11105897Y-20661412D01*
X11105897Y-20661412D02*
X11105897Y-20651889D01*
X11105897Y-20651889D02*
X11096373Y-20632841D01*
X11096373Y-20632841D02*
X11077325Y-20623317D01*
X11077325Y-20623317D02*
X11048754Y-20623317D01*
X11048754Y-20623317D02*
X11029706Y-20613793D01*
X11029706Y-20613793D02*
X11020182Y-20594746D01*
X11020182Y-20594746D02*
X11020182Y-20585222D01*
X11020182Y-20585222D02*
X11029706Y-20566174D01*
X11029706Y-20566174D02*
X11048754Y-20556650D01*
X11048754Y-20556650D02*
X11077325Y-20556650D01*
X11077325Y-20556650D02*
X11096373Y-20566174D01*
X11172563Y-20766174D02*
X11182087Y-20756650D01*
X11182087Y-20756650D02*
X11201135Y-20728079D01*
X11201135Y-20728079D02*
X11210658Y-20709031D01*
X11210658Y-20709031D02*
X11220182Y-20680460D01*
X11220182Y-20680460D02*
X11229706Y-20632841D01*
X11229706Y-20632841D02*
X11229706Y-20594746D01*
X11229706Y-20594746D02*
X11220182Y-20547127D01*
X11220182Y-20547127D02*
X11210658Y-20518555D01*
X11210658Y-20518555D02*
X11201135Y-20499508D01*
X11201135Y-20499508D02*
X11182087Y-20470936D01*
X11182087Y-20470936D02*
X11172563Y-20461412D01*
D13*
X4286500Y-20807000D02*
X4397500Y-20918000D01*
X4397500Y-20807000D02*
X4286500Y-20918000D01*
X4397500Y-20862500D02*
G75*
G03*
X4286500Y-20862500I-55500J0D01*
G01*
X4286500Y-20862500D02*
G75*
G03*
X4397500Y-20862500I55500J0D01*
G01*
D11*
X4763039Y-20953984D02*
X4648753Y-20953984D01*
X4705896Y-20953984D02*
X4705896Y-20753984D01*
X4705896Y-20753984D02*
X4686848Y-20782555D01*
X4686848Y-20782555D02*
X4667801Y-20801603D01*
X4667801Y-20801603D02*
X4648753Y-20811127D01*
X4848753Y-20934936D02*
X4858277Y-20944460D01*
X4858277Y-20944460D02*
X4848753Y-20953984D01*
X4848753Y-20953984D02*
X4839229Y-20944460D01*
X4839229Y-20944460D02*
X4848753Y-20934936D01*
X4848753Y-20934936D02*
X4848753Y-20953984D01*
X5048753Y-20953984D02*
X4934467Y-20953984D01*
X4991610Y-20953984D02*
X4991610Y-20753984D01*
X4991610Y-20753984D02*
X4972563Y-20782555D01*
X4972563Y-20782555D02*
X4953515Y-20801603D01*
X4953515Y-20801603D02*
X4934467Y-20811127D01*
X5239229Y-20953984D02*
X5124944Y-20953984D01*
X5182086Y-20953984D02*
X5182086Y-20753984D01*
X5182086Y-20753984D02*
X5163039Y-20782555D01*
X5163039Y-20782555D02*
X5143991Y-20801603D01*
X5143991Y-20801603D02*
X5124944Y-20811127D01*
X5363039Y-20753984D02*
X5382086Y-20753984D01*
X5382086Y-20753984D02*
X5401134Y-20763508D01*
X5401134Y-20763508D02*
X5410658Y-20773031D01*
X5410658Y-20773031D02*
X5420182Y-20792079D01*
X5420182Y-20792079D02*
X5429705Y-20830174D01*
X5429705Y-20830174D02*
X5429705Y-20877793D01*
X5429705Y-20877793D02*
X5420182Y-20915889D01*
X5420182Y-20915889D02*
X5410658Y-20934936D01*
X5410658Y-20934936D02*
X5401134Y-20944460D01*
X5401134Y-20944460D02*
X5382086Y-20953984D01*
X5382086Y-20953984D02*
X5363039Y-20953984D01*
X5363039Y-20953984D02*
X5343991Y-20944460D01*
X5343991Y-20944460D02*
X5334467Y-20934936D01*
X5334467Y-20934936D02*
X5324944Y-20915889D01*
X5324944Y-20915889D02*
X5315420Y-20877793D01*
X5315420Y-20877793D02*
X5315420Y-20830174D01*
X5315420Y-20830174D02*
X5324944Y-20792079D01*
X5324944Y-20792079D02*
X5334467Y-20773031D01*
X5334467Y-20773031D02*
X5343991Y-20763508D01*
X5343991Y-20763508D02*
X5363039Y-20753984D01*
X5515420Y-20953984D02*
X5515420Y-20820650D01*
X5515420Y-20839698D02*
X5524944Y-20830174D01*
X5524944Y-20830174D02*
X5543991Y-20820650D01*
X5543991Y-20820650D02*
X5572563Y-20820650D01*
X5572563Y-20820650D02*
X5591610Y-20830174D01*
X5591610Y-20830174D02*
X5601134Y-20849222D01*
X5601134Y-20849222D02*
X5601134Y-20953984D01*
X5601134Y-20849222D02*
X5610658Y-20830174D01*
X5610658Y-20830174D02*
X5629705Y-20820650D01*
X5629705Y-20820650D02*
X5658277Y-20820650D01*
X5658277Y-20820650D02*
X5677324Y-20830174D01*
X5677324Y-20830174D02*
X5686848Y-20849222D01*
X5686848Y-20849222D02*
X5686848Y-20953984D01*
X5782086Y-20953984D02*
X5782086Y-20820650D01*
X5782086Y-20839698D02*
X5791610Y-20830174D01*
X5791610Y-20830174D02*
X5810658Y-20820650D01*
X5810658Y-20820650D02*
X5839229Y-20820650D01*
X5839229Y-20820650D02*
X5858277Y-20830174D01*
X5858277Y-20830174D02*
X5867801Y-20849222D01*
X5867801Y-20849222D02*
X5867801Y-20953984D01*
X5867801Y-20849222D02*
X5877324Y-20830174D01*
X5877324Y-20830174D02*
X5896372Y-20820650D01*
X5896372Y-20820650D02*
X5924943Y-20820650D01*
X5924943Y-20820650D02*
X5943991Y-20830174D01*
X5943991Y-20830174D02*
X5953515Y-20849222D01*
X5953515Y-20849222D02*
X5953515Y-20953984D01*
X6343991Y-20744460D02*
X6172563Y-21001603D01*
X6601134Y-20753984D02*
X6620182Y-20753984D01*
X6620182Y-20753984D02*
X6639229Y-20763508D01*
X6639229Y-20763508D02*
X6648753Y-20773031D01*
X6648753Y-20773031D02*
X6658277Y-20792079D01*
X6658277Y-20792079D02*
X6667801Y-20830174D01*
X6667801Y-20830174D02*
X6667801Y-20877793D01*
X6667801Y-20877793D02*
X6658277Y-20915889D01*
X6658277Y-20915889D02*
X6648753Y-20934936D01*
X6648753Y-20934936D02*
X6639229Y-20944460D01*
X6639229Y-20944460D02*
X6620182Y-20953984D01*
X6620182Y-20953984D02*
X6601134Y-20953984D01*
X6601134Y-20953984D02*
X6582086Y-20944460D01*
X6582086Y-20944460D02*
X6572563Y-20934936D01*
X6572563Y-20934936D02*
X6563039Y-20915889D01*
X6563039Y-20915889D02*
X6553515Y-20877793D01*
X6553515Y-20877793D02*
X6553515Y-20830174D01*
X6553515Y-20830174D02*
X6563039Y-20792079D01*
X6563039Y-20792079D02*
X6572563Y-20773031D01*
X6572563Y-20773031D02*
X6582086Y-20763508D01*
X6582086Y-20763508D02*
X6601134Y-20753984D01*
X6753515Y-20934936D02*
X6763039Y-20944460D01*
X6763039Y-20944460D02*
X6753515Y-20953984D01*
X6753515Y-20953984D02*
X6743991Y-20944460D01*
X6743991Y-20944460D02*
X6753515Y-20934936D01*
X6753515Y-20934936D02*
X6753515Y-20953984D01*
X6886848Y-20753984D02*
X6905896Y-20753984D01*
X6905896Y-20753984D02*
X6924944Y-20763508D01*
X6924944Y-20763508D02*
X6934467Y-20773031D01*
X6934467Y-20773031D02*
X6943991Y-20792079D01*
X6943991Y-20792079D02*
X6953515Y-20830174D01*
X6953515Y-20830174D02*
X6953515Y-20877793D01*
X6953515Y-20877793D02*
X6943991Y-20915889D01*
X6943991Y-20915889D02*
X6934467Y-20934936D01*
X6934467Y-20934936D02*
X6924944Y-20944460D01*
X6924944Y-20944460D02*
X6905896Y-20953984D01*
X6905896Y-20953984D02*
X6886848Y-20953984D01*
X6886848Y-20953984D02*
X6867801Y-20944460D01*
X6867801Y-20944460D02*
X6858277Y-20934936D01*
X6858277Y-20934936D02*
X6848753Y-20915889D01*
X6848753Y-20915889D02*
X6839229Y-20877793D01*
X6839229Y-20877793D02*
X6839229Y-20830174D01*
X6839229Y-20830174D02*
X6848753Y-20792079D01*
X6848753Y-20792079D02*
X6858277Y-20773031D01*
X6858277Y-20773031D02*
X6867801Y-20763508D01*
X6867801Y-20763508D02*
X6886848Y-20753984D01*
X7124944Y-20820650D02*
X7124944Y-20953984D01*
X7077325Y-20744460D02*
X7029706Y-20887317D01*
X7029706Y-20887317D02*
X7153515Y-20887317D01*
X7210658Y-20753984D02*
X7334467Y-20753984D01*
X7334467Y-20753984D02*
X7267801Y-20830174D01*
X7267801Y-20830174D02*
X7296372Y-20830174D01*
X7296372Y-20830174D02*
X7315420Y-20839698D01*
X7315420Y-20839698D02*
X7324944Y-20849222D01*
X7324944Y-20849222D02*
X7334467Y-20868270D01*
X7334467Y-20868270D02*
X7334467Y-20915889D01*
X7334467Y-20915889D02*
X7324944Y-20934936D01*
X7324944Y-20934936D02*
X7315420Y-20944460D01*
X7315420Y-20944460D02*
X7296372Y-20953984D01*
X7296372Y-20953984D02*
X7239229Y-20953984D01*
X7239229Y-20953984D02*
X7220182Y-20944460D01*
X7220182Y-20944460D02*
X7210658Y-20934936D01*
X7401134Y-20753984D02*
X7534467Y-20753984D01*
X7534467Y-20753984D02*
X7448753Y-20953984D01*
X7601134Y-20753984D02*
X7601134Y-20792079D01*
X7677325Y-20753984D02*
X7677325Y-20792079D01*
X7972563Y-21030174D02*
X7963039Y-21020650D01*
X7963039Y-21020650D02*
X7943991Y-20992079D01*
X7943991Y-20992079D02*
X7934468Y-20973031D01*
X7934468Y-20973031D02*
X7924944Y-20944460D01*
X7924944Y-20944460D02*
X7915420Y-20896841D01*
X7915420Y-20896841D02*
X7915420Y-20858746D01*
X7915420Y-20858746D02*
X7924944Y-20811127D01*
X7924944Y-20811127D02*
X7934468Y-20782555D01*
X7934468Y-20782555D02*
X7943991Y-20763508D01*
X7943991Y-20763508D02*
X7963039Y-20734936D01*
X7963039Y-20734936D02*
X7972563Y-20725412D01*
X8134468Y-20820650D02*
X8134468Y-20953984D01*
X8086848Y-20744460D02*
X8039229Y-20887317D01*
X8039229Y-20887317D02*
X8163039Y-20887317D01*
X8277325Y-20753984D02*
X8296372Y-20753984D01*
X8296372Y-20753984D02*
X8315420Y-20763508D01*
X8315420Y-20763508D02*
X8324944Y-20773031D01*
X8324944Y-20773031D02*
X8334468Y-20792079D01*
X8334468Y-20792079D02*
X8343991Y-20830174D01*
X8343991Y-20830174D02*
X8343991Y-20877793D01*
X8343991Y-20877793D02*
X8334468Y-20915889D01*
X8334468Y-20915889D02*
X8324944Y-20934936D01*
X8324944Y-20934936D02*
X8315420Y-20944460D01*
X8315420Y-20944460D02*
X8296372Y-20953984D01*
X8296372Y-20953984D02*
X8277325Y-20953984D01*
X8277325Y-20953984D02*
X8258277Y-20944460D01*
X8258277Y-20944460D02*
X8248753Y-20934936D01*
X8248753Y-20934936D02*
X8239229Y-20915889D01*
X8239229Y-20915889D02*
X8229706Y-20877793D01*
X8229706Y-20877793D02*
X8229706Y-20830174D01*
X8229706Y-20830174D02*
X8239229Y-20792079D01*
X8239229Y-20792079D02*
X8248753Y-20773031D01*
X8248753Y-20773031D02*
X8258277Y-20763508D01*
X8258277Y-20763508D02*
X8277325Y-20753984D01*
X8582087Y-20953984D02*
X8582087Y-20753984D01*
X8667801Y-20953984D02*
X8667801Y-20849222D01*
X8667801Y-20849222D02*
X8658277Y-20830174D01*
X8658277Y-20830174D02*
X8639230Y-20820650D01*
X8639230Y-20820650D02*
X8610658Y-20820650D01*
X8610658Y-20820650D02*
X8591611Y-20830174D01*
X8591611Y-20830174D02*
X8582087Y-20839698D01*
X8791611Y-20953984D02*
X8772563Y-20944460D01*
X8772563Y-20944460D02*
X8763039Y-20934936D01*
X8763039Y-20934936D02*
X8753515Y-20915889D01*
X8753515Y-20915889D02*
X8753515Y-20858746D01*
X8753515Y-20858746D02*
X8763039Y-20839698D01*
X8763039Y-20839698D02*
X8772563Y-20830174D01*
X8772563Y-20830174D02*
X8791611Y-20820650D01*
X8791611Y-20820650D02*
X8820182Y-20820650D01*
X8820182Y-20820650D02*
X8839230Y-20830174D01*
X8839230Y-20830174D02*
X8848753Y-20839698D01*
X8848753Y-20839698D02*
X8858277Y-20858746D01*
X8858277Y-20858746D02*
X8858277Y-20915889D01*
X8858277Y-20915889D02*
X8848753Y-20934936D01*
X8848753Y-20934936D02*
X8839230Y-20944460D01*
X8839230Y-20944460D02*
X8820182Y-20953984D01*
X8820182Y-20953984D02*
X8791611Y-20953984D01*
X8972563Y-20953984D02*
X8953515Y-20944460D01*
X8953515Y-20944460D02*
X8943992Y-20925412D01*
X8943992Y-20925412D02*
X8943992Y-20753984D01*
X9124944Y-20944460D02*
X9105896Y-20953984D01*
X9105896Y-20953984D02*
X9067801Y-20953984D01*
X9067801Y-20953984D02*
X9048753Y-20944460D01*
X9048753Y-20944460D02*
X9039230Y-20925412D01*
X9039230Y-20925412D02*
X9039230Y-20849222D01*
X9039230Y-20849222D02*
X9048753Y-20830174D01*
X9048753Y-20830174D02*
X9067801Y-20820650D01*
X9067801Y-20820650D02*
X9105896Y-20820650D01*
X9105896Y-20820650D02*
X9124944Y-20830174D01*
X9124944Y-20830174D02*
X9134468Y-20849222D01*
X9134468Y-20849222D02*
X9134468Y-20868270D01*
X9134468Y-20868270D02*
X9039230Y-20887317D01*
X9210658Y-20944460D02*
X9229706Y-20953984D01*
X9229706Y-20953984D02*
X9267801Y-20953984D01*
X9267801Y-20953984D02*
X9286849Y-20944460D01*
X9286849Y-20944460D02*
X9296373Y-20925412D01*
X9296373Y-20925412D02*
X9296373Y-20915889D01*
X9296373Y-20915889D02*
X9286849Y-20896841D01*
X9286849Y-20896841D02*
X9267801Y-20887317D01*
X9267801Y-20887317D02*
X9239230Y-20887317D01*
X9239230Y-20887317D02*
X9220182Y-20877793D01*
X9220182Y-20877793D02*
X9210658Y-20858746D01*
X9210658Y-20858746D02*
X9210658Y-20849222D01*
X9210658Y-20849222D02*
X9220182Y-20830174D01*
X9220182Y-20830174D02*
X9239230Y-20820650D01*
X9239230Y-20820650D02*
X9267801Y-20820650D01*
X9267801Y-20820650D02*
X9286849Y-20830174D01*
X9363039Y-21030174D02*
X9372563Y-21020650D01*
X9372563Y-21020650D02*
X9391611Y-20992079D01*
X9391611Y-20992079D02*
X9401134Y-20973031D01*
X9401134Y-20973031D02*
X9410658Y-20944460D01*
X9410658Y-20944460D02*
X9420182Y-20896841D01*
X9420182Y-20896841D02*
X9420182Y-20858746D01*
X9420182Y-20858746D02*
X9410658Y-20811127D01*
X9410658Y-20811127D02*
X9401134Y-20782555D01*
X9401134Y-20782555D02*
X9391611Y-20763508D01*
X9391611Y-20763508D02*
X9372563Y-20734936D01*
X9372563Y-20734936D02*
X9363039Y-20725412D01*
D14*
X4267500Y-21061500D02*
X4397500Y-21191500D01*
X4397500Y-21061500D02*
X4267500Y-21191500D01*
X4332500Y-21061500D02*
X4332500Y-21191500D01*
X4267500Y-21126500D02*
X4397500Y-21126500D01*
D11*
X4763039Y-21217984D02*
X4648753Y-21217984D01*
X4705896Y-21217984D02*
X4705896Y-21017984D01*
X4705896Y-21017984D02*
X4686848Y-21046555D01*
X4686848Y-21046555D02*
X4667801Y-21065603D01*
X4667801Y-21065603D02*
X4648753Y-21075127D01*
X4848753Y-21198936D02*
X4858277Y-21208460D01*
X4858277Y-21208460D02*
X4848753Y-21217984D01*
X4848753Y-21217984D02*
X4839229Y-21208460D01*
X4839229Y-21208460D02*
X4848753Y-21198936D01*
X4848753Y-21198936D02*
X4848753Y-21217984D01*
X4924944Y-21017984D02*
X5048753Y-21017984D01*
X5048753Y-21017984D02*
X4982086Y-21094174D01*
X4982086Y-21094174D02*
X5010658Y-21094174D01*
X5010658Y-21094174D02*
X5029705Y-21103698D01*
X5029705Y-21103698D02*
X5039229Y-21113222D01*
X5039229Y-21113222D02*
X5048753Y-21132270D01*
X5048753Y-21132270D02*
X5048753Y-21179889D01*
X5048753Y-21179889D02*
X5039229Y-21198936D01*
X5039229Y-21198936D02*
X5029705Y-21208460D01*
X5029705Y-21208460D02*
X5010658Y-21217984D01*
X5010658Y-21217984D02*
X4953515Y-21217984D01*
X4953515Y-21217984D02*
X4934467Y-21208460D01*
X4934467Y-21208460D02*
X4924944Y-21198936D01*
X5172563Y-21017984D02*
X5191610Y-21017984D01*
X5191610Y-21017984D02*
X5210658Y-21027508D01*
X5210658Y-21027508D02*
X5220182Y-21037031D01*
X5220182Y-21037031D02*
X5229705Y-21056079D01*
X5229705Y-21056079D02*
X5239229Y-21094174D01*
X5239229Y-21094174D02*
X5239229Y-21141793D01*
X5239229Y-21141793D02*
X5229705Y-21179889D01*
X5229705Y-21179889D02*
X5220182Y-21198936D01*
X5220182Y-21198936D02*
X5210658Y-21208460D01*
X5210658Y-21208460D02*
X5191610Y-21217984D01*
X5191610Y-21217984D02*
X5172563Y-21217984D01*
X5172563Y-21217984D02*
X5153515Y-21208460D01*
X5153515Y-21208460D02*
X5143991Y-21198936D01*
X5143991Y-21198936D02*
X5134467Y-21179889D01*
X5134467Y-21179889D02*
X5124944Y-21141793D01*
X5124944Y-21141793D02*
X5124944Y-21094174D01*
X5124944Y-21094174D02*
X5134467Y-21056079D01*
X5134467Y-21056079D02*
X5143991Y-21037031D01*
X5143991Y-21037031D02*
X5153515Y-21027508D01*
X5153515Y-21027508D02*
X5172563Y-21017984D01*
X5363039Y-21017984D02*
X5382086Y-21017984D01*
X5382086Y-21017984D02*
X5401134Y-21027508D01*
X5401134Y-21027508D02*
X5410658Y-21037031D01*
X5410658Y-21037031D02*
X5420182Y-21056079D01*
X5420182Y-21056079D02*
X5429705Y-21094174D01*
X5429705Y-21094174D02*
X5429705Y-21141793D01*
X5429705Y-21141793D02*
X5420182Y-21179889D01*
X5420182Y-21179889D02*
X5410658Y-21198936D01*
X5410658Y-21198936D02*
X5401134Y-21208460D01*
X5401134Y-21208460D02*
X5382086Y-21217984D01*
X5382086Y-21217984D02*
X5363039Y-21217984D01*
X5363039Y-21217984D02*
X5343991Y-21208460D01*
X5343991Y-21208460D02*
X5334467Y-21198936D01*
X5334467Y-21198936D02*
X5324944Y-21179889D01*
X5324944Y-21179889D02*
X5315420Y-21141793D01*
X5315420Y-21141793D02*
X5315420Y-21094174D01*
X5315420Y-21094174D02*
X5324944Y-21056079D01*
X5324944Y-21056079D02*
X5334467Y-21037031D01*
X5334467Y-21037031D02*
X5343991Y-21027508D01*
X5343991Y-21027508D02*
X5363039Y-21017984D01*
X5515420Y-21217984D02*
X5515420Y-21084650D01*
X5515420Y-21103698D02*
X5524944Y-21094174D01*
X5524944Y-21094174D02*
X5543991Y-21084650D01*
X5543991Y-21084650D02*
X5572563Y-21084650D01*
X5572563Y-21084650D02*
X5591610Y-21094174D01*
X5591610Y-21094174D02*
X5601134Y-21113222D01*
X5601134Y-21113222D02*
X5601134Y-21217984D01*
X5601134Y-21113222D02*
X5610658Y-21094174D01*
X5610658Y-21094174D02*
X5629705Y-21084650D01*
X5629705Y-21084650D02*
X5658277Y-21084650D01*
X5658277Y-21084650D02*
X5677324Y-21094174D01*
X5677324Y-21094174D02*
X5686848Y-21113222D01*
X5686848Y-21113222D02*
X5686848Y-21217984D01*
X5782086Y-21217984D02*
X5782086Y-21084650D01*
X5782086Y-21103698D02*
X5791610Y-21094174D01*
X5791610Y-21094174D02*
X5810658Y-21084650D01*
X5810658Y-21084650D02*
X5839229Y-21084650D01*
X5839229Y-21084650D02*
X5858277Y-21094174D01*
X5858277Y-21094174D02*
X5867801Y-21113222D01*
X5867801Y-21113222D02*
X5867801Y-21217984D01*
X5867801Y-21113222D02*
X5877324Y-21094174D01*
X5877324Y-21094174D02*
X5896372Y-21084650D01*
X5896372Y-21084650D02*
X5924943Y-21084650D01*
X5924943Y-21084650D02*
X5943991Y-21094174D01*
X5943991Y-21094174D02*
X5953515Y-21113222D01*
X5953515Y-21113222D02*
X5953515Y-21217984D01*
X6343991Y-21008460D02*
X6172563Y-21265603D01*
X6601134Y-21017984D02*
X6620182Y-21017984D01*
X6620182Y-21017984D02*
X6639229Y-21027508D01*
X6639229Y-21027508D02*
X6648753Y-21037031D01*
X6648753Y-21037031D02*
X6658277Y-21056079D01*
X6658277Y-21056079D02*
X6667801Y-21094174D01*
X6667801Y-21094174D02*
X6667801Y-21141793D01*
X6667801Y-21141793D02*
X6658277Y-21179889D01*
X6658277Y-21179889D02*
X6648753Y-21198936D01*
X6648753Y-21198936D02*
X6639229Y-21208460D01*
X6639229Y-21208460D02*
X6620182Y-21217984D01*
X6620182Y-21217984D02*
X6601134Y-21217984D01*
X6601134Y-21217984D02*
X6582086Y-21208460D01*
X6582086Y-21208460D02*
X6572563Y-21198936D01*
X6572563Y-21198936D02*
X6563039Y-21179889D01*
X6563039Y-21179889D02*
X6553515Y-21141793D01*
X6553515Y-21141793D02*
X6553515Y-21094174D01*
X6553515Y-21094174D02*
X6563039Y-21056079D01*
X6563039Y-21056079D02*
X6572563Y-21037031D01*
X6572563Y-21037031D02*
X6582086Y-21027508D01*
X6582086Y-21027508D02*
X6601134Y-21017984D01*
X6753515Y-21198936D02*
X6763039Y-21208460D01*
X6763039Y-21208460D02*
X6753515Y-21217984D01*
X6753515Y-21217984D02*
X6743991Y-21208460D01*
X6743991Y-21208460D02*
X6753515Y-21198936D01*
X6753515Y-21198936D02*
X6753515Y-21217984D01*
X6886848Y-21017984D02*
X6905896Y-21017984D01*
X6905896Y-21017984D02*
X6924944Y-21027508D01*
X6924944Y-21027508D02*
X6934467Y-21037031D01*
X6934467Y-21037031D02*
X6943991Y-21056079D01*
X6943991Y-21056079D02*
X6953515Y-21094174D01*
X6953515Y-21094174D02*
X6953515Y-21141793D01*
X6953515Y-21141793D02*
X6943991Y-21179889D01*
X6943991Y-21179889D02*
X6934467Y-21198936D01*
X6934467Y-21198936D02*
X6924944Y-21208460D01*
X6924944Y-21208460D02*
X6905896Y-21217984D01*
X6905896Y-21217984D02*
X6886848Y-21217984D01*
X6886848Y-21217984D02*
X6867801Y-21208460D01*
X6867801Y-21208460D02*
X6858277Y-21198936D01*
X6858277Y-21198936D02*
X6848753Y-21179889D01*
X6848753Y-21179889D02*
X6839229Y-21141793D01*
X6839229Y-21141793D02*
X6839229Y-21094174D01*
X6839229Y-21094174D02*
X6848753Y-21056079D01*
X6848753Y-21056079D02*
X6858277Y-21037031D01*
X6858277Y-21037031D02*
X6867801Y-21027508D01*
X6867801Y-21027508D02*
X6886848Y-21017984D01*
X7134467Y-21017984D02*
X7039229Y-21017984D01*
X7039229Y-21017984D02*
X7029706Y-21113222D01*
X7029706Y-21113222D02*
X7039229Y-21103698D01*
X7039229Y-21103698D02*
X7058277Y-21094174D01*
X7058277Y-21094174D02*
X7105896Y-21094174D01*
X7105896Y-21094174D02*
X7124944Y-21103698D01*
X7124944Y-21103698D02*
X7134467Y-21113222D01*
X7134467Y-21113222D02*
X7143991Y-21132270D01*
X7143991Y-21132270D02*
X7143991Y-21179889D01*
X7143991Y-21179889D02*
X7134467Y-21198936D01*
X7134467Y-21198936D02*
X7124944Y-21208460D01*
X7124944Y-21208460D02*
X7105896Y-21217984D01*
X7105896Y-21217984D02*
X7058277Y-21217984D01*
X7058277Y-21217984D02*
X7039229Y-21208460D01*
X7039229Y-21208460D02*
X7029706Y-21198936D01*
X7334467Y-21217984D02*
X7220182Y-21217984D01*
X7277325Y-21217984D02*
X7277325Y-21017984D01*
X7277325Y-21017984D02*
X7258277Y-21046555D01*
X7258277Y-21046555D02*
X7239229Y-21065603D01*
X7239229Y-21065603D02*
X7220182Y-21075127D01*
X7410658Y-21037031D02*
X7420182Y-21027508D01*
X7420182Y-21027508D02*
X7439229Y-21017984D01*
X7439229Y-21017984D02*
X7486848Y-21017984D01*
X7486848Y-21017984D02*
X7505896Y-21027508D01*
X7505896Y-21027508D02*
X7515420Y-21037031D01*
X7515420Y-21037031D02*
X7524944Y-21056079D01*
X7524944Y-21056079D02*
X7524944Y-21075127D01*
X7524944Y-21075127D02*
X7515420Y-21103698D01*
X7515420Y-21103698D02*
X7401134Y-21217984D01*
X7401134Y-21217984D02*
X7524944Y-21217984D01*
X7601134Y-21017984D02*
X7601134Y-21056079D01*
X7677325Y-21017984D02*
X7677325Y-21056079D01*
X7972563Y-21294174D02*
X7963039Y-21284650D01*
X7963039Y-21284650D02*
X7943991Y-21256079D01*
X7943991Y-21256079D02*
X7934468Y-21237031D01*
X7934468Y-21237031D02*
X7924944Y-21208460D01*
X7924944Y-21208460D02*
X7915420Y-21160841D01*
X7915420Y-21160841D02*
X7915420Y-21122746D01*
X7915420Y-21122746D02*
X7924944Y-21075127D01*
X7924944Y-21075127D02*
X7934468Y-21046555D01*
X7934468Y-21046555D02*
X7943991Y-21027508D01*
X7943991Y-21027508D02*
X7963039Y-20998936D01*
X7963039Y-20998936D02*
X7972563Y-20989412D01*
X8134468Y-21084650D02*
X8134468Y-21217984D01*
X8086848Y-21008460D02*
X8039229Y-21151317D01*
X8039229Y-21151317D02*
X8163039Y-21151317D01*
X8391611Y-21217984D02*
X8391611Y-21017984D01*
X8477325Y-21217984D02*
X8477325Y-21113222D01*
X8477325Y-21113222D02*
X8467801Y-21094174D01*
X8467801Y-21094174D02*
X8448753Y-21084650D01*
X8448753Y-21084650D02*
X8420182Y-21084650D01*
X8420182Y-21084650D02*
X8401134Y-21094174D01*
X8401134Y-21094174D02*
X8391611Y-21103698D01*
X8601134Y-21217984D02*
X8582087Y-21208460D01*
X8582087Y-21208460D02*
X8572563Y-21198936D01*
X8572563Y-21198936D02*
X8563039Y-21179889D01*
X8563039Y-21179889D02*
X8563039Y-21122746D01*
X8563039Y-21122746D02*
X8572563Y-21103698D01*
X8572563Y-21103698D02*
X8582087Y-21094174D01*
X8582087Y-21094174D02*
X8601134Y-21084650D01*
X8601134Y-21084650D02*
X8629706Y-21084650D01*
X8629706Y-21084650D02*
X8648753Y-21094174D01*
X8648753Y-21094174D02*
X8658277Y-21103698D01*
X8658277Y-21103698D02*
X8667801Y-21122746D01*
X8667801Y-21122746D02*
X8667801Y-21179889D01*
X8667801Y-21179889D02*
X8658277Y-21198936D01*
X8658277Y-21198936D02*
X8648753Y-21208460D01*
X8648753Y-21208460D02*
X8629706Y-21217984D01*
X8629706Y-21217984D02*
X8601134Y-21217984D01*
X8782087Y-21217984D02*
X8763039Y-21208460D01*
X8763039Y-21208460D02*
X8753515Y-21189412D01*
X8753515Y-21189412D02*
X8753515Y-21017984D01*
X8934468Y-21208460D02*
X8915420Y-21217984D01*
X8915420Y-21217984D02*
X8877325Y-21217984D01*
X8877325Y-21217984D02*
X8858277Y-21208460D01*
X8858277Y-21208460D02*
X8848753Y-21189412D01*
X8848753Y-21189412D02*
X8848753Y-21113222D01*
X8848753Y-21113222D02*
X8858277Y-21094174D01*
X8858277Y-21094174D02*
X8877325Y-21084650D01*
X8877325Y-21084650D02*
X8915420Y-21084650D01*
X8915420Y-21084650D02*
X8934468Y-21094174D01*
X8934468Y-21094174D02*
X8943992Y-21113222D01*
X8943992Y-21113222D02*
X8943992Y-21132270D01*
X8943992Y-21132270D02*
X8848753Y-21151317D01*
X9020182Y-21208460D02*
X9039230Y-21217984D01*
X9039230Y-21217984D02*
X9077325Y-21217984D01*
X9077325Y-21217984D02*
X9096373Y-21208460D01*
X9096373Y-21208460D02*
X9105896Y-21189412D01*
X9105896Y-21189412D02*
X9105896Y-21179889D01*
X9105896Y-21179889D02*
X9096373Y-21160841D01*
X9096373Y-21160841D02*
X9077325Y-21151317D01*
X9077325Y-21151317D02*
X9048753Y-21151317D01*
X9048753Y-21151317D02*
X9029706Y-21141793D01*
X9029706Y-21141793D02*
X9020182Y-21122746D01*
X9020182Y-21122746D02*
X9020182Y-21113222D01*
X9020182Y-21113222D02*
X9029706Y-21094174D01*
X9029706Y-21094174D02*
X9048753Y-21084650D01*
X9048753Y-21084650D02*
X9077325Y-21084650D01*
X9077325Y-21084650D02*
X9096373Y-21094174D01*
X9172563Y-21294174D02*
X9182087Y-21284650D01*
X9182087Y-21284650D02*
X9201134Y-21256079D01*
X9201134Y-21256079D02*
X9210658Y-21237031D01*
X9210658Y-21237031D02*
X9220182Y-21208460D01*
X9220182Y-21208460D02*
X9229706Y-21160841D01*
X9229706Y-21160841D02*
X9229706Y-21122746D01*
X9229706Y-21122746D02*
X9220182Y-21075127D01*
X9220182Y-21075127D02*
X9210658Y-21046555D01*
X9210658Y-21046555D02*
X9201134Y-21027508D01*
X9201134Y-21027508D02*
X9182087Y-20998936D01*
X9182087Y-20998936D02*
X9172563Y-20989412D01*
X4197500Y-21290500D02*
X4397500Y-21490500D01*
X4397500Y-21290500D02*
X4197500Y-21490500D01*
X4368211Y-21461211D02*
X4368211Y-21319789D01*
X4226789Y-21319789D01*
X4226789Y-21461211D01*
X4368211Y-21461211D01*
X4639229Y-21281984D02*
X4763039Y-21281984D01*
X4763039Y-21281984D02*
X4696372Y-21358174D01*
X4696372Y-21358174D02*
X4724944Y-21358174D01*
X4724944Y-21358174D02*
X4743991Y-21367698D01*
X4743991Y-21367698D02*
X4753515Y-21377222D01*
X4753515Y-21377222D02*
X4763039Y-21396270D01*
X4763039Y-21396270D02*
X4763039Y-21443889D01*
X4763039Y-21443889D02*
X4753515Y-21462936D01*
X4753515Y-21462936D02*
X4743991Y-21472460D01*
X4743991Y-21472460D02*
X4724944Y-21481984D01*
X4724944Y-21481984D02*
X4667801Y-21481984D01*
X4667801Y-21481984D02*
X4648753Y-21472460D01*
X4648753Y-21472460D02*
X4639229Y-21462936D01*
X4848753Y-21462936D02*
X4858277Y-21472460D01*
X4858277Y-21472460D02*
X4848753Y-21481984D01*
X4848753Y-21481984D02*
X4839229Y-21472460D01*
X4839229Y-21472460D02*
X4848753Y-21462936D01*
X4848753Y-21462936D02*
X4848753Y-21481984D01*
X4934467Y-21301031D02*
X4943991Y-21291508D01*
X4943991Y-21291508D02*
X4963039Y-21281984D01*
X4963039Y-21281984D02*
X5010658Y-21281984D01*
X5010658Y-21281984D02*
X5029705Y-21291508D01*
X5029705Y-21291508D02*
X5039229Y-21301031D01*
X5039229Y-21301031D02*
X5048753Y-21320079D01*
X5048753Y-21320079D02*
X5048753Y-21339127D01*
X5048753Y-21339127D02*
X5039229Y-21367698D01*
X5039229Y-21367698D02*
X4924944Y-21481984D01*
X4924944Y-21481984D02*
X5048753Y-21481984D01*
X5172563Y-21281984D02*
X5191610Y-21281984D01*
X5191610Y-21281984D02*
X5210658Y-21291508D01*
X5210658Y-21291508D02*
X5220182Y-21301031D01*
X5220182Y-21301031D02*
X5229705Y-21320079D01*
X5229705Y-21320079D02*
X5239229Y-21358174D01*
X5239229Y-21358174D02*
X5239229Y-21405793D01*
X5239229Y-21405793D02*
X5229705Y-21443889D01*
X5229705Y-21443889D02*
X5220182Y-21462936D01*
X5220182Y-21462936D02*
X5210658Y-21472460D01*
X5210658Y-21472460D02*
X5191610Y-21481984D01*
X5191610Y-21481984D02*
X5172563Y-21481984D01*
X5172563Y-21481984D02*
X5153515Y-21472460D01*
X5153515Y-21472460D02*
X5143991Y-21462936D01*
X5143991Y-21462936D02*
X5134467Y-21443889D01*
X5134467Y-21443889D02*
X5124944Y-21405793D01*
X5124944Y-21405793D02*
X5124944Y-21358174D01*
X5124944Y-21358174D02*
X5134467Y-21320079D01*
X5134467Y-21320079D02*
X5143991Y-21301031D01*
X5143991Y-21301031D02*
X5153515Y-21291508D01*
X5153515Y-21291508D02*
X5172563Y-21281984D01*
X5363039Y-21281984D02*
X5382086Y-21281984D01*
X5382086Y-21281984D02*
X5401134Y-21291508D01*
X5401134Y-21291508D02*
X5410658Y-21301031D01*
X5410658Y-21301031D02*
X5420182Y-21320079D01*
X5420182Y-21320079D02*
X5429705Y-21358174D01*
X5429705Y-21358174D02*
X5429705Y-21405793D01*
X5429705Y-21405793D02*
X5420182Y-21443889D01*
X5420182Y-21443889D02*
X5410658Y-21462936D01*
X5410658Y-21462936D02*
X5401134Y-21472460D01*
X5401134Y-21472460D02*
X5382086Y-21481984D01*
X5382086Y-21481984D02*
X5363039Y-21481984D01*
X5363039Y-21481984D02*
X5343991Y-21472460D01*
X5343991Y-21472460D02*
X5334467Y-21462936D01*
X5334467Y-21462936D02*
X5324944Y-21443889D01*
X5324944Y-21443889D02*
X5315420Y-21405793D01*
X5315420Y-21405793D02*
X5315420Y-21358174D01*
X5315420Y-21358174D02*
X5324944Y-21320079D01*
X5324944Y-21320079D02*
X5334467Y-21301031D01*
X5334467Y-21301031D02*
X5343991Y-21291508D01*
X5343991Y-21291508D02*
X5363039Y-21281984D01*
X5515420Y-21481984D02*
X5515420Y-21348650D01*
X5515420Y-21367698D02*
X5524944Y-21358174D01*
X5524944Y-21358174D02*
X5543991Y-21348650D01*
X5543991Y-21348650D02*
X5572563Y-21348650D01*
X5572563Y-21348650D02*
X5591610Y-21358174D01*
X5591610Y-21358174D02*
X5601134Y-21377222D01*
X5601134Y-21377222D02*
X5601134Y-21481984D01*
X5601134Y-21377222D02*
X5610658Y-21358174D01*
X5610658Y-21358174D02*
X5629705Y-21348650D01*
X5629705Y-21348650D02*
X5658277Y-21348650D01*
X5658277Y-21348650D02*
X5677324Y-21358174D01*
X5677324Y-21358174D02*
X5686848Y-21377222D01*
X5686848Y-21377222D02*
X5686848Y-21481984D01*
X5782086Y-21481984D02*
X5782086Y-21348650D01*
X5782086Y-21367698D02*
X5791610Y-21358174D01*
X5791610Y-21358174D02*
X5810658Y-21348650D01*
X5810658Y-21348650D02*
X5839229Y-21348650D01*
X5839229Y-21348650D02*
X5858277Y-21358174D01*
X5858277Y-21358174D02*
X5867801Y-21377222D01*
X5867801Y-21377222D02*
X5867801Y-21481984D01*
X5867801Y-21377222D02*
X5877324Y-21358174D01*
X5877324Y-21358174D02*
X5896372Y-21348650D01*
X5896372Y-21348650D02*
X5924943Y-21348650D01*
X5924943Y-21348650D02*
X5943991Y-21358174D01*
X5943991Y-21358174D02*
X5953515Y-21377222D01*
X5953515Y-21377222D02*
X5953515Y-21481984D01*
X6343991Y-21272460D02*
X6172563Y-21529603D01*
X6601134Y-21281984D02*
X6620182Y-21281984D01*
X6620182Y-21281984D02*
X6639229Y-21291508D01*
X6639229Y-21291508D02*
X6648753Y-21301031D01*
X6648753Y-21301031D02*
X6658277Y-21320079D01*
X6658277Y-21320079D02*
X6667801Y-21358174D01*
X6667801Y-21358174D02*
X6667801Y-21405793D01*
X6667801Y-21405793D02*
X6658277Y-21443889D01*
X6658277Y-21443889D02*
X6648753Y-21462936D01*
X6648753Y-21462936D02*
X6639229Y-21472460D01*
X6639229Y-21472460D02*
X6620182Y-21481984D01*
X6620182Y-21481984D02*
X6601134Y-21481984D01*
X6601134Y-21481984D02*
X6582086Y-21472460D01*
X6582086Y-21472460D02*
X6572563Y-21462936D01*
X6572563Y-21462936D02*
X6563039Y-21443889D01*
X6563039Y-21443889D02*
X6553515Y-21405793D01*
X6553515Y-21405793D02*
X6553515Y-21358174D01*
X6553515Y-21358174D02*
X6563039Y-21320079D01*
X6563039Y-21320079D02*
X6572563Y-21301031D01*
X6572563Y-21301031D02*
X6582086Y-21291508D01*
X6582086Y-21291508D02*
X6601134Y-21281984D01*
X6753515Y-21462936D02*
X6763039Y-21472460D01*
X6763039Y-21472460D02*
X6753515Y-21481984D01*
X6753515Y-21481984D02*
X6743991Y-21472460D01*
X6743991Y-21472460D02*
X6753515Y-21462936D01*
X6753515Y-21462936D02*
X6753515Y-21481984D01*
X6953515Y-21481984D02*
X6839229Y-21481984D01*
X6896372Y-21481984D02*
X6896372Y-21281984D01*
X6896372Y-21281984D02*
X6877325Y-21310555D01*
X6877325Y-21310555D02*
X6858277Y-21329603D01*
X6858277Y-21329603D02*
X6839229Y-21339127D01*
X7029706Y-21301031D02*
X7039229Y-21291508D01*
X7039229Y-21291508D02*
X7058277Y-21281984D01*
X7058277Y-21281984D02*
X7105896Y-21281984D01*
X7105896Y-21281984D02*
X7124944Y-21291508D01*
X7124944Y-21291508D02*
X7134467Y-21301031D01*
X7134467Y-21301031D02*
X7143991Y-21320079D01*
X7143991Y-21320079D02*
X7143991Y-21339127D01*
X7143991Y-21339127D02*
X7134467Y-21367698D01*
X7134467Y-21367698D02*
X7020182Y-21481984D01*
X7020182Y-21481984D02*
X7143991Y-21481984D01*
X7315420Y-21281984D02*
X7277325Y-21281984D01*
X7277325Y-21281984D02*
X7258277Y-21291508D01*
X7258277Y-21291508D02*
X7248753Y-21301031D01*
X7248753Y-21301031D02*
X7229706Y-21329603D01*
X7229706Y-21329603D02*
X7220182Y-21367698D01*
X7220182Y-21367698D02*
X7220182Y-21443889D01*
X7220182Y-21443889D02*
X7229706Y-21462936D01*
X7229706Y-21462936D02*
X7239229Y-21472460D01*
X7239229Y-21472460D02*
X7258277Y-21481984D01*
X7258277Y-21481984D02*
X7296372Y-21481984D01*
X7296372Y-21481984D02*
X7315420Y-21472460D01*
X7315420Y-21472460D02*
X7324944Y-21462936D01*
X7324944Y-21462936D02*
X7334467Y-21443889D01*
X7334467Y-21443889D02*
X7334467Y-21396270D01*
X7334467Y-21396270D02*
X7324944Y-21377222D01*
X7324944Y-21377222D02*
X7315420Y-21367698D01*
X7315420Y-21367698D02*
X7296372Y-21358174D01*
X7296372Y-21358174D02*
X7258277Y-21358174D01*
X7258277Y-21358174D02*
X7239229Y-21367698D01*
X7239229Y-21367698D02*
X7229706Y-21377222D01*
X7229706Y-21377222D02*
X7220182Y-21396270D01*
X7458277Y-21281984D02*
X7477325Y-21281984D01*
X7477325Y-21281984D02*
X7496372Y-21291508D01*
X7496372Y-21291508D02*
X7505896Y-21301031D01*
X7505896Y-21301031D02*
X7515420Y-21320079D01*
X7515420Y-21320079D02*
X7524944Y-21358174D01*
X7524944Y-21358174D02*
X7524944Y-21405793D01*
X7524944Y-21405793D02*
X7515420Y-21443889D01*
X7515420Y-21443889D02*
X7505896Y-21462936D01*
X7505896Y-21462936D02*
X7496372Y-21472460D01*
X7496372Y-21472460D02*
X7477325Y-21481984D01*
X7477325Y-21481984D02*
X7458277Y-21481984D01*
X7458277Y-21481984D02*
X7439229Y-21472460D01*
X7439229Y-21472460D02*
X7429706Y-21462936D01*
X7429706Y-21462936D02*
X7420182Y-21443889D01*
X7420182Y-21443889D02*
X7410658Y-21405793D01*
X7410658Y-21405793D02*
X7410658Y-21358174D01*
X7410658Y-21358174D02*
X7420182Y-21320079D01*
X7420182Y-21320079D02*
X7429706Y-21301031D01*
X7429706Y-21301031D02*
X7439229Y-21291508D01*
X7439229Y-21291508D02*
X7458277Y-21281984D01*
X7601134Y-21281984D02*
X7601134Y-21320079D01*
X7677325Y-21281984D02*
X7677325Y-21320079D01*
X7972563Y-21558174D02*
X7963039Y-21548650D01*
X7963039Y-21548650D02*
X7943991Y-21520079D01*
X7943991Y-21520079D02*
X7934468Y-21501031D01*
X7934468Y-21501031D02*
X7924944Y-21472460D01*
X7924944Y-21472460D02*
X7915420Y-21424841D01*
X7915420Y-21424841D02*
X7915420Y-21386746D01*
X7915420Y-21386746D02*
X7924944Y-21339127D01*
X7924944Y-21339127D02*
X7934468Y-21310555D01*
X7934468Y-21310555D02*
X7943991Y-21291508D01*
X7943991Y-21291508D02*
X7963039Y-21262936D01*
X7963039Y-21262936D02*
X7972563Y-21253412D01*
X8039229Y-21301031D02*
X8048753Y-21291508D01*
X8048753Y-21291508D02*
X8067801Y-21281984D01*
X8067801Y-21281984D02*
X8115420Y-21281984D01*
X8115420Y-21281984D02*
X8134468Y-21291508D01*
X8134468Y-21291508D02*
X8143991Y-21301031D01*
X8143991Y-21301031D02*
X8153515Y-21320079D01*
X8153515Y-21320079D02*
X8153515Y-21339127D01*
X8153515Y-21339127D02*
X8143991Y-21367698D01*
X8143991Y-21367698D02*
X8029706Y-21481984D01*
X8029706Y-21481984D02*
X8153515Y-21481984D01*
X8391611Y-21481984D02*
X8391611Y-21281984D01*
X8477325Y-21481984D02*
X8477325Y-21377222D01*
X8477325Y-21377222D02*
X8467801Y-21358174D01*
X8467801Y-21358174D02*
X8448753Y-21348650D01*
X8448753Y-21348650D02*
X8420182Y-21348650D01*
X8420182Y-21348650D02*
X8401134Y-21358174D01*
X8401134Y-21358174D02*
X8391611Y-21367698D01*
X8601134Y-21481984D02*
X8582087Y-21472460D01*
X8582087Y-21472460D02*
X8572563Y-21462936D01*
X8572563Y-21462936D02*
X8563039Y-21443889D01*
X8563039Y-21443889D02*
X8563039Y-21386746D01*
X8563039Y-21386746D02*
X8572563Y-21367698D01*
X8572563Y-21367698D02*
X8582087Y-21358174D01*
X8582087Y-21358174D02*
X8601134Y-21348650D01*
X8601134Y-21348650D02*
X8629706Y-21348650D01*
X8629706Y-21348650D02*
X8648753Y-21358174D01*
X8648753Y-21358174D02*
X8658277Y-21367698D01*
X8658277Y-21367698D02*
X8667801Y-21386746D01*
X8667801Y-21386746D02*
X8667801Y-21443889D01*
X8667801Y-21443889D02*
X8658277Y-21462936D01*
X8658277Y-21462936D02*
X8648753Y-21472460D01*
X8648753Y-21472460D02*
X8629706Y-21481984D01*
X8629706Y-21481984D02*
X8601134Y-21481984D01*
X8782087Y-21481984D02*
X8763039Y-21472460D01*
X8763039Y-21472460D02*
X8753515Y-21453412D01*
X8753515Y-21453412D02*
X8753515Y-21281984D01*
X8934468Y-21472460D02*
X8915420Y-21481984D01*
X8915420Y-21481984D02*
X8877325Y-21481984D01*
X8877325Y-21481984D02*
X8858277Y-21472460D01*
X8858277Y-21472460D02*
X8848753Y-21453412D01*
X8848753Y-21453412D02*
X8848753Y-21377222D01*
X8848753Y-21377222D02*
X8858277Y-21358174D01*
X8858277Y-21358174D02*
X8877325Y-21348650D01*
X8877325Y-21348650D02*
X8915420Y-21348650D01*
X8915420Y-21348650D02*
X8934468Y-21358174D01*
X8934468Y-21358174D02*
X8943992Y-21377222D01*
X8943992Y-21377222D02*
X8943992Y-21396270D01*
X8943992Y-21396270D02*
X8848753Y-21415317D01*
X9020182Y-21472460D02*
X9039230Y-21481984D01*
X9039230Y-21481984D02*
X9077325Y-21481984D01*
X9077325Y-21481984D02*
X9096373Y-21472460D01*
X9096373Y-21472460D02*
X9105896Y-21453412D01*
X9105896Y-21453412D02*
X9105896Y-21443889D01*
X9105896Y-21443889D02*
X9096373Y-21424841D01*
X9096373Y-21424841D02*
X9077325Y-21415317D01*
X9077325Y-21415317D02*
X9048753Y-21415317D01*
X9048753Y-21415317D02*
X9029706Y-21405793D01*
X9029706Y-21405793D02*
X9020182Y-21386746D01*
X9020182Y-21386746D02*
X9020182Y-21377222D01*
X9020182Y-21377222D02*
X9029706Y-21358174D01*
X9029706Y-21358174D02*
X9048753Y-21348650D01*
X9048753Y-21348650D02*
X9077325Y-21348650D01*
X9077325Y-21348650D02*
X9096373Y-21358174D01*
X9172563Y-21558174D02*
X9182087Y-21548650D01*
X9182087Y-21548650D02*
X9201134Y-21520079D01*
X9201134Y-21520079D02*
X9210658Y-21501031D01*
X9210658Y-21501031D02*
X9220182Y-21472460D01*
X9220182Y-21472460D02*
X9229706Y-21424841D01*
X9229706Y-21424841D02*
X9229706Y-21386746D01*
X9229706Y-21386746D02*
X9220182Y-21339127D01*
X9220182Y-21339127D02*
X9210658Y-21310555D01*
X9210658Y-21310555D02*
X9201134Y-21291508D01*
X9201134Y-21291508D02*
X9182087Y-21262936D01*
X9182087Y-21262936D02*
X9172563Y-21253412D01*
M02*
