G04 #@! TF.GenerationSoftware,KiCad,Pcbnew,7.0.10*
G04 #@! TF.CreationDate,2024-02-11T13:41:43-06:00*
G04 #@! TF.ProjectId,midiori,6d696469-6f72-4692-9e6b-696361645f70,rev?*
G04 #@! TF.SameCoordinates,Original*
G04 #@! TF.FileFunction,Soldermask,Bot*
G04 #@! TF.FilePolarity,Negative*
%FSLAX46Y46*%
G04 Gerber Fmt 4.6, Leading zero omitted, Abs format (unit mm)*
G04 Created by KiCad (PCBNEW 7.0.10) date 2024-02-11 13:41:43*
%MOMM*%
%LPD*%
G01*
G04 APERTURE LIST*
G04 Aperture macros list*
%AMRoundRect*
0 Rectangle with rounded corners*
0 $1 Rounding radius*
0 $2 $3 $4 $5 $6 $7 $8 $9 X,Y pos of 4 corners*
0 Add a 4 corners polygon primitive as box body*
4,1,4,$2,$3,$4,$5,$6,$7,$8,$9,$2,$3,0*
0 Add four circle primitives for the rounded corners*
1,1,$1+$1,$2,$3*
1,1,$1+$1,$4,$5*
1,1,$1+$1,$6,$7*
1,1,$1+$1,$8,$9*
0 Add four rect primitives between the rounded corners*
20,1,$1+$1,$2,$3,$4,$5,0*
20,1,$1+$1,$4,$5,$6,$7,0*
20,1,$1+$1,$6,$7,$8,$9,0*
20,1,$1+$1,$8,$9,$2,$3,0*%
G04 Aperture macros list end*
%ADD10C,0.100000*%
%ADD11R,8.000000X1.800000*%
%ADD12C,6.400000*%
%ADD13O,1.800000X2.800000*%
%ADD14C,2.100000*%
%ADD15C,1.750000*%
%ADD16C,2.800000*%
%ADD17R,1.665000X1.665000*%
%ADD18C,1.665000*%
%ADD19C,3.700000*%
%ADD20R,1.700000X1.700000*%
%ADD21O,1.700000X1.700000*%
%ADD22C,3.250000*%
%ADD23RoundRect,0.250000X0.510000X-0.510000X0.510000X0.510000X-0.510000X0.510000X-0.510000X-0.510000X0*%
%ADD24C,1.520000*%
%ADD25C,1.700000*%
%ADD26R,1.300000X1.300000*%
%ADD27C,1.300000*%
%ADD28R,1.600000X1.600000*%
%ADD29C,1.600000*%
G04 APERTURE END LIST*
D10*
X54000000Y-175000000D02*
X44000000Y-175000000D01*
X44000000Y-47000000D01*
X54000000Y-47000000D01*
X54000000Y-175000000D01*
G36*
X54000000Y-175000000D02*
G01*
X44000000Y-175000000D01*
X44000000Y-47000000D01*
X54000000Y-47000000D01*
X54000000Y-175000000D01*
G37*
D11*
X50000000Y-173460000D03*
X50000000Y-170920000D03*
X50000000Y-168380000D03*
X50000000Y-165840000D03*
X50000000Y-163300000D03*
X50000000Y-160760000D03*
X50000000Y-158220000D03*
X50000000Y-155680000D03*
X50000000Y-153140000D03*
X50000000Y-150600000D03*
X50000000Y-148060000D03*
X50000000Y-145520000D03*
X50000000Y-142980000D03*
X50000000Y-140440000D03*
X50000000Y-137900000D03*
X50000000Y-135360000D03*
X50000000Y-132820000D03*
X50000000Y-130280000D03*
X50000000Y-127740000D03*
X50000000Y-125200000D03*
X50000000Y-122660000D03*
X50000000Y-120120000D03*
X50000000Y-117580000D03*
X50000000Y-115040000D03*
X50000000Y-112500000D03*
X50000000Y-109960000D03*
X50000000Y-107420000D03*
X50000000Y-104880000D03*
X50000000Y-102340000D03*
X50000000Y-99800000D03*
X50000000Y-97260000D03*
X50000000Y-94720000D03*
X50000000Y-92180000D03*
X50000000Y-89640000D03*
X50000000Y-87100000D03*
X50000000Y-84560000D03*
X50000000Y-82020000D03*
X50000000Y-79480000D03*
X50000000Y-76940000D03*
X50000000Y-74400000D03*
X50000000Y-71860000D03*
X50000000Y-69320000D03*
X50000000Y-66780000D03*
X50000000Y-64240000D03*
X50000000Y-61700000D03*
X50000000Y-59160000D03*
X50000000Y-56620000D03*
X50000000Y-54080000D03*
X50000000Y-51540000D03*
X50000000Y-49000000D03*
D12*
X181000000Y-182000000D03*
X181000000Y-46000000D03*
D13*
X175300000Y-155700000D03*
X177100000Y-153700000D03*
X183200000Y-153700000D03*
X180800000Y-155700000D03*
X171600000Y-153700000D03*
D14*
X179169500Y-85375000D03*
X179169500Y-92385000D03*
D15*
X181659500Y-86625000D03*
X181659500Y-91125000D03*
D16*
X180925000Y-78630000D03*
X180925000Y-55630000D03*
X122925000Y-78630000D03*
X122925000Y-55630000D03*
D17*
X176055000Y-77050000D03*
D18*
X176055000Y-79590000D03*
X173515000Y-77050000D03*
X173515000Y-79590000D03*
X170975000Y-77050000D03*
X170975000Y-79590000D03*
X168435000Y-77050000D03*
X168435000Y-79590000D03*
X165895000Y-77050000D03*
X165895000Y-79590000D03*
X163355000Y-77050000D03*
X163355000Y-79590000D03*
X160815000Y-77050000D03*
X160815000Y-79590000D03*
X158275000Y-77050000D03*
X158275000Y-79590000D03*
X155735000Y-77050000D03*
X155735000Y-79590000D03*
X153195000Y-77050000D03*
X153195000Y-79590000D03*
X150655000Y-77050000D03*
X150655000Y-79590000D03*
X148115000Y-77050000D03*
X148115000Y-79590000D03*
X145575000Y-77050000D03*
X145575000Y-79590000D03*
X143035000Y-77050000D03*
X143035000Y-79590000D03*
X140495000Y-77050000D03*
X140495000Y-79590000D03*
X137955000Y-77050000D03*
X137955000Y-79590000D03*
X135415000Y-77050000D03*
X135415000Y-79590000D03*
X132875000Y-77050000D03*
X132875000Y-79590000D03*
X130335000Y-77050000D03*
X130335000Y-79590000D03*
X127795000Y-77050000D03*
X127795000Y-79590000D03*
D13*
X175140000Y-122900000D03*
X176940000Y-120900000D03*
X183040000Y-120900000D03*
X180640000Y-122900000D03*
X171440000Y-120900000D03*
D19*
X160000000Y-49080000D03*
D20*
X160000000Y-171040000D03*
D21*
X157460000Y-171040000D03*
X160000000Y-168500000D03*
X157460000Y-168500000D03*
X160000000Y-165960000D03*
X157460000Y-165960000D03*
X160000000Y-163420000D03*
X157460000Y-163420000D03*
X160000000Y-160880000D03*
X157460000Y-160880000D03*
X160000000Y-158340000D03*
X157460000Y-158340000D03*
X160000000Y-155800000D03*
X157460000Y-155800000D03*
X160000000Y-153260000D03*
X157460000Y-153260000D03*
X160000000Y-150720000D03*
X157460000Y-150720000D03*
X160000000Y-148180000D03*
X157460000Y-148180000D03*
X160000000Y-145640000D03*
X157460000Y-145640000D03*
X160000000Y-143100000D03*
X157460000Y-143100000D03*
X160000000Y-140560000D03*
X157460000Y-140560000D03*
D19*
X81260000Y-49080000D03*
D22*
X180575000Y-174775000D03*
X180575000Y-164615000D03*
D23*
X171685000Y-172875000D03*
D24*
X174225000Y-171605000D03*
X171685000Y-170335000D03*
X174225000Y-169065000D03*
X171685000Y-167795000D03*
X174225000Y-166525000D03*
D13*
X175140000Y-112290000D03*
X176940000Y-110290000D03*
X183040000Y-110290000D03*
X180640000Y-112290000D03*
X171440000Y-110290000D03*
D19*
X160000000Y-177350000D03*
X81260000Y-177350000D03*
D14*
X179169500Y-95535000D03*
X179169500Y-102545000D03*
D15*
X181659500Y-96785000D03*
X181659500Y-101285000D03*
D25*
X166615000Y-86410000D03*
X164075000Y-86410000D03*
X161535000Y-86410000D03*
X158995000Y-86410000D03*
X156455000Y-86410000D03*
X153915000Y-86410000D03*
X167250000Y-113080000D03*
X167250000Y-110540000D03*
X167250000Y-108000000D03*
D26*
X180530000Y-130380000D03*
D27*
X180530000Y-135460000D03*
X180530000Y-138000000D03*
X180530000Y-132920000D03*
X172910000Y-138000000D03*
X172910000Y-132920000D03*
X172910000Y-130380000D03*
X172910000Y-135460000D03*
D28*
X64387349Y-49276000D03*
D29*
X67887349Y-49276000D03*
M02*
