%TF.GenerationSoftware,KiCad,Pcbnew,7.0.10*%
%TF.CreationDate,2024-02-09T20:02:58-06:00*%
%TF.ProjectId,midiori,6d696469-6f72-4692-9e6b-696361645f70,rev?*%
%TF.SameCoordinates,Original*%
%TF.FileFunction,Drillmap*%
%TF.FilePolarity,Positive*%
%FSLAX45Y45*%
G04 Gerber Fmt 4.5, Leading zero omitted, Abs format (unit mm)*
G04 Created by KiCad (PCBNEW 7.0.10) date 2024-02-09 20:02:58*
%MOMM*%
%LPD*%
G01*
G04 APERTURE LIST*
%ADD10C,0.050000*%
%ADD11C,0.200000*%
%ADD12C,0.280000*%
%ADD13C,0.325000*%
%ADD14C,0.370000*%
G04 APERTURE END LIST*
D10*
X5800000Y-18900000D02*
X18100000Y-18900000D01*
X4400000Y-17400000D02*
X4400000Y-4800000D01*
X4500000Y-17500000D02*
X4400000Y-17400000D01*
X5400000Y-17500000D02*
X5400000Y-18500000D01*
X5400000Y-4300000D02*
X5400000Y-4700000D01*
X18100000Y-18900000D02*
G75*
G03*
X18500000Y-18500000I0J400000D01*
G01*
X5400000Y-4700000D02*
X4500000Y-4700000D01*
X4400000Y-4800000D02*
X4500000Y-4700000D01*
X5800000Y-3900000D02*
G75*
G03*
X5400000Y-4300000I0J-400000D01*
G01*
X18500000Y-4300000D02*
X18500000Y-18500000D01*
X5800000Y-3900000D02*
X18100000Y-3900000D01*
X18500000Y-4300000D02*
G75*
G03*
X18100000Y-3900000I-400000J0D01*
G01*
X5400000Y-18500000D02*
G75*
G03*
X5800000Y-18900000I400000J0D01*
G01*
X4500000Y-17500000D02*
X5400000Y-17500000D01*
D11*
D12*
X12152500Y-5423000D02*
X12432500Y-5703000D01*
X12432500Y-5423000D02*
X12152500Y-5703000D01*
X12152500Y-7723000D02*
X12432500Y-8003000D01*
X12432500Y-7723000D02*
X12152500Y-8003000D01*
X17952500Y-5423000D02*
X18232500Y-5703000D01*
X18232500Y-5423000D02*
X17952500Y-5703000D01*
X17952500Y-7723000D02*
X18232500Y-8003000D01*
X18232500Y-7723000D02*
X17952500Y-8003000D01*
D13*
X18220000Y-16361500D02*
G75*
G03*
X17895000Y-16361500I-162500J0D01*
G01*
X17895000Y-16361500D02*
G75*
G03*
X18220000Y-16361500I162500J0D01*
G01*
X18220000Y-17377500D02*
G75*
G03*
X17895000Y-17377500I-162500J0D01*
G01*
X17895000Y-17377500D02*
G75*
G03*
X18220000Y-17377500I162500J0D01*
G01*
D14*
X8126000Y-4723000D02*
X8126000Y-5093000D01*
X7941000Y-4908000D02*
X8311000Y-4908000D01*
X8126000Y-17550000D02*
X8126000Y-17920000D01*
X7941000Y-17735000D02*
X8311000Y-17735000D01*
X16000000Y-4723000D02*
X16000000Y-5093000D01*
X15815000Y-4908000D02*
X16185000Y-4908000D01*
X16000000Y-17550000D02*
X16000000Y-17920000D01*
X15815000Y-17735000D02*
X16185000Y-17735000D01*
D11*
X4658277Y-19213984D02*
X4658277Y-19013984D01*
X4658277Y-19013984D02*
X4705896Y-19013984D01*
X4705896Y-19013984D02*
X4734467Y-19023508D01*
X4734467Y-19023508D02*
X4753515Y-19042555D01*
X4753515Y-19042555D02*
X4763039Y-19061603D01*
X4763039Y-19061603D02*
X4772563Y-19099698D01*
X4772563Y-19099698D02*
X4772563Y-19128270D01*
X4772563Y-19128270D02*
X4763039Y-19166365D01*
X4763039Y-19166365D02*
X4753515Y-19185412D01*
X4753515Y-19185412D02*
X4734467Y-19204460D01*
X4734467Y-19204460D02*
X4705896Y-19213984D01*
X4705896Y-19213984D02*
X4658277Y-19213984D01*
X4858277Y-19213984D02*
X4858277Y-19080650D01*
X4858277Y-19118746D02*
X4867801Y-19099698D01*
X4867801Y-19099698D02*
X4877324Y-19090174D01*
X4877324Y-19090174D02*
X4896372Y-19080650D01*
X4896372Y-19080650D02*
X4915420Y-19080650D01*
X4982086Y-19213984D02*
X4982086Y-19080650D01*
X4982086Y-19013984D02*
X4972563Y-19023508D01*
X4972563Y-19023508D02*
X4982086Y-19033031D01*
X4982086Y-19033031D02*
X4991610Y-19023508D01*
X4991610Y-19023508D02*
X4982086Y-19013984D01*
X4982086Y-19013984D02*
X4982086Y-19033031D01*
X5105896Y-19213984D02*
X5086848Y-19204460D01*
X5086848Y-19204460D02*
X5077324Y-19185412D01*
X5077324Y-19185412D02*
X5077324Y-19013984D01*
X5210658Y-19213984D02*
X5191610Y-19204460D01*
X5191610Y-19204460D02*
X5182086Y-19185412D01*
X5182086Y-19185412D02*
X5182086Y-19013984D01*
X5439229Y-19213984D02*
X5439229Y-19013984D01*
X5439229Y-19013984D02*
X5505896Y-19156841D01*
X5505896Y-19156841D02*
X5572563Y-19013984D01*
X5572563Y-19013984D02*
X5572563Y-19213984D01*
X5753515Y-19213984D02*
X5753515Y-19109222D01*
X5753515Y-19109222D02*
X5743991Y-19090174D01*
X5743991Y-19090174D02*
X5724943Y-19080650D01*
X5724943Y-19080650D02*
X5686848Y-19080650D01*
X5686848Y-19080650D02*
X5667801Y-19090174D01*
X5753515Y-19204460D02*
X5734467Y-19213984D01*
X5734467Y-19213984D02*
X5686848Y-19213984D01*
X5686848Y-19213984D02*
X5667801Y-19204460D01*
X5667801Y-19204460D02*
X5658277Y-19185412D01*
X5658277Y-19185412D02*
X5658277Y-19166365D01*
X5658277Y-19166365D02*
X5667801Y-19147317D01*
X5667801Y-19147317D02*
X5686848Y-19137793D01*
X5686848Y-19137793D02*
X5734467Y-19137793D01*
X5734467Y-19137793D02*
X5753515Y-19128270D01*
X5848753Y-19080650D02*
X5848753Y-19280650D01*
X5848753Y-19090174D02*
X5867801Y-19080650D01*
X5867801Y-19080650D02*
X5905896Y-19080650D01*
X5905896Y-19080650D02*
X5924943Y-19090174D01*
X5924943Y-19090174D02*
X5934467Y-19099698D01*
X5934467Y-19099698D02*
X5943991Y-19118746D01*
X5943991Y-19118746D02*
X5943991Y-19175889D01*
X5943991Y-19175889D02*
X5934467Y-19194936D01*
X5934467Y-19194936D02*
X5924943Y-19204460D01*
X5924943Y-19204460D02*
X5905896Y-19213984D01*
X5905896Y-19213984D02*
X5867801Y-19213984D01*
X5867801Y-19213984D02*
X5848753Y-19204460D01*
X6029705Y-19194936D02*
X6039229Y-19204460D01*
X6039229Y-19204460D02*
X6029705Y-19213984D01*
X6029705Y-19213984D02*
X6020182Y-19204460D01*
X6020182Y-19204460D02*
X6029705Y-19194936D01*
X6029705Y-19194936D02*
X6029705Y-19213984D01*
X6029705Y-19090174D02*
X6039229Y-19099698D01*
X6039229Y-19099698D02*
X6029705Y-19109222D01*
X6029705Y-19109222D02*
X6020182Y-19099698D01*
X6020182Y-19099698D02*
X6029705Y-19090174D01*
X6029705Y-19090174D02*
X6029705Y-19109222D01*
X4197500Y-19442500D02*
X4397500Y-19642500D01*
X4397500Y-19442500D02*
X4197500Y-19642500D01*
X4648753Y-19453031D02*
X4658277Y-19443508D01*
X4658277Y-19443508D02*
X4677324Y-19433984D01*
X4677324Y-19433984D02*
X4724944Y-19433984D01*
X4724944Y-19433984D02*
X4743991Y-19443508D01*
X4743991Y-19443508D02*
X4753515Y-19453031D01*
X4753515Y-19453031D02*
X4763039Y-19472079D01*
X4763039Y-19472079D02*
X4763039Y-19491127D01*
X4763039Y-19491127D02*
X4753515Y-19519698D01*
X4753515Y-19519698D02*
X4639229Y-19633984D01*
X4639229Y-19633984D02*
X4763039Y-19633984D01*
X4848753Y-19614936D02*
X4858277Y-19624460D01*
X4858277Y-19624460D02*
X4848753Y-19633984D01*
X4848753Y-19633984D02*
X4839229Y-19624460D01*
X4839229Y-19624460D02*
X4848753Y-19614936D01*
X4848753Y-19614936D02*
X4848753Y-19633984D01*
X4972563Y-19519698D02*
X4953515Y-19510174D01*
X4953515Y-19510174D02*
X4943991Y-19500650D01*
X4943991Y-19500650D02*
X4934467Y-19481603D01*
X4934467Y-19481603D02*
X4934467Y-19472079D01*
X4934467Y-19472079D02*
X4943991Y-19453031D01*
X4943991Y-19453031D02*
X4953515Y-19443508D01*
X4953515Y-19443508D02*
X4972563Y-19433984D01*
X4972563Y-19433984D02*
X5010658Y-19433984D01*
X5010658Y-19433984D02*
X5029705Y-19443508D01*
X5029705Y-19443508D02*
X5039229Y-19453031D01*
X5039229Y-19453031D02*
X5048753Y-19472079D01*
X5048753Y-19472079D02*
X5048753Y-19481603D01*
X5048753Y-19481603D02*
X5039229Y-19500650D01*
X5039229Y-19500650D02*
X5029705Y-19510174D01*
X5029705Y-19510174D02*
X5010658Y-19519698D01*
X5010658Y-19519698D02*
X4972563Y-19519698D01*
X4972563Y-19519698D02*
X4953515Y-19529222D01*
X4953515Y-19529222D02*
X4943991Y-19538746D01*
X4943991Y-19538746D02*
X4934467Y-19557793D01*
X4934467Y-19557793D02*
X4934467Y-19595889D01*
X4934467Y-19595889D02*
X4943991Y-19614936D01*
X4943991Y-19614936D02*
X4953515Y-19624460D01*
X4953515Y-19624460D02*
X4972563Y-19633984D01*
X4972563Y-19633984D02*
X5010658Y-19633984D01*
X5010658Y-19633984D02*
X5029705Y-19624460D01*
X5029705Y-19624460D02*
X5039229Y-19614936D01*
X5039229Y-19614936D02*
X5048753Y-19595889D01*
X5048753Y-19595889D02*
X5048753Y-19557793D01*
X5048753Y-19557793D02*
X5039229Y-19538746D01*
X5039229Y-19538746D02*
X5029705Y-19529222D01*
X5029705Y-19529222D02*
X5010658Y-19519698D01*
X5172563Y-19433984D02*
X5191610Y-19433984D01*
X5191610Y-19433984D02*
X5210658Y-19443508D01*
X5210658Y-19443508D02*
X5220182Y-19453031D01*
X5220182Y-19453031D02*
X5229705Y-19472079D01*
X5229705Y-19472079D02*
X5239229Y-19510174D01*
X5239229Y-19510174D02*
X5239229Y-19557793D01*
X5239229Y-19557793D02*
X5229705Y-19595889D01*
X5229705Y-19595889D02*
X5220182Y-19614936D01*
X5220182Y-19614936D02*
X5210658Y-19624460D01*
X5210658Y-19624460D02*
X5191610Y-19633984D01*
X5191610Y-19633984D02*
X5172563Y-19633984D01*
X5172563Y-19633984D02*
X5153515Y-19624460D01*
X5153515Y-19624460D02*
X5143991Y-19614936D01*
X5143991Y-19614936D02*
X5134467Y-19595889D01*
X5134467Y-19595889D02*
X5124944Y-19557793D01*
X5124944Y-19557793D02*
X5124944Y-19510174D01*
X5124944Y-19510174D02*
X5134467Y-19472079D01*
X5134467Y-19472079D02*
X5143991Y-19453031D01*
X5143991Y-19453031D02*
X5153515Y-19443508D01*
X5153515Y-19443508D02*
X5172563Y-19433984D01*
X5363039Y-19433984D02*
X5382086Y-19433984D01*
X5382086Y-19433984D02*
X5401134Y-19443508D01*
X5401134Y-19443508D02*
X5410658Y-19453031D01*
X5410658Y-19453031D02*
X5420182Y-19472079D01*
X5420182Y-19472079D02*
X5429705Y-19510174D01*
X5429705Y-19510174D02*
X5429705Y-19557793D01*
X5429705Y-19557793D02*
X5420182Y-19595889D01*
X5420182Y-19595889D02*
X5410658Y-19614936D01*
X5410658Y-19614936D02*
X5401134Y-19624460D01*
X5401134Y-19624460D02*
X5382086Y-19633984D01*
X5382086Y-19633984D02*
X5363039Y-19633984D01*
X5363039Y-19633984D02*
X5343991Y-19624460D01*
X5343991Y-19624460D02*
X5334467Y-19614936D01*
X5334467Y-19614936D02*
X5324944Y-19595889D01*
X5324944Y-19595889D02*
X5315420Y-19557793D01*
X5315420Y-19557793D02*
X5315420Y-19510174D01*
X5315420Y-19510174D02*
X5324944Y-19472079D01*
X5324944Y-19472079D02*
X5334467Y-19453031D01*
X5334467Y-19453031D02*
X5343991Y-19443508D01*
X5343991Y-19443508D02*
X5363039Y-19433984D01*
X5515420Y-19633984D02*
X5515420Y-19500650D01*
X5515420Y-19519698D02*
X5524944Y-19510174D01*
X5524944Y-19510174D02*
X5543991Y-19500650D01*
X5543991Y-19500650D02*
X5572563Y-19500650D01*
X5572563Y-19500650D02*
X5591610Y-19510174D01*
X5591610Y-19510174D02*
X5601134Y-19529222D01*
X5601134Y-19529222D02*
X5601134Y-19633984D01*
X5601134Y-19529222D02*
X5610658Y-19510174D01*
X5610658Y-19510174D02*
X5629705Y-19500650D01*
X5629705Y-19500650D02*
X5658277Y-19500650D01*
X5658277Y-19500650D02*
X5677324Y-19510174D01*
X5677324Y-19510174D02*
X5686848Y-19529222D01*
X5686848Y-19529222D02*
X5686848Y-19633984D01*
X5782086Y-19633984D02*
X5782086Y-19500650D01*
X5782086Y-19519698D02*
X5791610Y-19510174D01*
X5791610Y-19510174D02*
X5810658Y-19500650D01*
X5810658Y-19500650D02*
X5839229Y-19500650D01*
X5839229Y-19500650D02*
X5858277Y-19510174D01*
X5858277Y-19510174D02*
X5867801Y-19529222D01*
X5867801Y-19529222D02*
X5867801Y-19633984D01*
X5867801Y-19529222D02*
X5877324Y-19510174D01*
X5877324Y-19510174D02*
X5896372Y-19500650D01*
X5896372Y-19500650D02*
X5924943Y-19500650D01*
X5924943Y-19500650D02*
X5943991Y-19510174D01*
X5943991Y-19510174D02*
X5953515Y-19529222D01*
X5953515Y-19529222D02*
X5953515Y-19633984D01*
X6343991Y-19424460D02*
X6172563Y-19681603D01*
X6601134Y-19433984D02*
X6620182Y-19433984D01*
X6620182Y-19433984D02*
X6639229Y-19443508D01*
X6639229Y-19443508D02*
X6648753Y-19453031D01*
X6648753Y-19453031D02*
X6658277Y-19472079D01*
X6658277Y-19472079D02*
X6667801Y-19510174D01*
X6667801Y-19510174D02*
X6667801Y-19557793D01*
X6667801Y-19557793D02*
X6658277Y-19595889D01*
X6658277Y-19595889D02*
X6648753Y-19614936D01*
X6648753Y-19614936D02*
X6639229Y-19624460D01*
X6639229Y-19624460D02*
X6620182Y-19633984D01*
X6620182Y-19633984D02*
X6601134Y-19633984D01*
X6601134Y-19633984D02*
X6582086Y-19624460D01*
X6582086Y-19624460D02*
X6572563Y-19614936D01*
X6572563Y-19614936D02*
X6563039Y-19595889D01*
X6563039Y-19595889D02*
X6553515Y-19557793D01*
X6553515Y-19557793D02*
X6553515Y-19510174D01*
X6553515Y-19510174D02*
X6563039Y-19472079D01*
X6563039Y-19472079D02*
X6572563Y-19453031D01*
X6572563Y-19453031D02*
X6582086Y-19443508D01*
X6582086Y-19443508D02*
X6601134Y-19433984D01*
X6753515Y-19614936D02*
X6763039Y-19624460D01*
X6763039Y-19624460D02*
X6753515Y-19633984D01*
X6753515Y-19633984D02*
X6743991Y-19624460D01*
X6743991Y-19624460D02*
X6753515Y-19614936D01*
X6753515Y-19614936D02*
X6753515Y-19633984D01*
X6953515Y-19633984D02*
X6839229Y-19633984D01*
X6896372Y-19633984D02*
X6896372Y-19433984D01*
X6896372Y-19433984D02*
X6877325Y-19462555D01*
X6877325Y-19462555D02*
X6858277Y-19481603D01*
X6858277Y-19481603D02*
X6839229Y-19491127D01*
X7143991Y-19633984D02*
X7029706Y-19633984D01*
X7086848Y-19633984D02*
X7086848Y-19433984D01*
X7086848Y-19433984D02*
X7067801Y-19462555D01*
X7067801Y-19462555D02*
X7048753Y-19481603D01*
X7048753Y-19481603D02*
X7029706Y-19491127D01*
X7267801Y-19433984D02*
X7286848Y-19433984D01*
X7286848Y-19433984D02*
X7305896Y-19443508D01*
X7305896Y-19443508D02*
X7315420Y-19453031D01*
X7315420Y-19453031D02*
X7324944Y-19472079D01*
X7324944Y-19472079D02*
X7334467Y-19510174D01*
X7334467Y-19510174D02*
X7334467Y-19557793D01*
X7334467Y-19557793D02*
X7324944Y-19595889D01*
X7324944Y-19595889D02*
X7315420Y-19614936D01*
X7315420Y-19614936D02*
X7305896Y-19624460D01*
X7305896Y-19624460D02*
X7286848Y-19633984D01*
X7286848Y-19633984D02*
X7267801Y-19633984D01*
X7267801Y-19633984D02*
X7248753Y-19624460D01*
X7248753Y-19624460D02*
X7239229Y-19614936D01*
X7239229Y-19614936D02*
X7229706Y-19595889D01*
X7229706Y-19595889D02*
X7220182Y-19557793D01*
X7220182Y-19557793D02*
X7220182Y-19510174D01*
X7220182Y-19510174D02*
X7229706Y-19472079D01*
X7229706Y-19472079D02*
X7239229Y-19453031D01*
X7239229Y-19453031D02*
X7248753Y-19443508D01*
X7248753Y-19443508D02*
X7267801Y-19433984D01*
X7410658Y-19453031D02*
X7420182Y-19443508D01*
X7420182Y-19443508D02*
X7439229Y-19433984D01*
X7439229Y-19433984D02*
X7486848Y-19433984D01*
X7486848Y-19433984D02*
X7505896Y-19443508D01*
X7505896Y-19443508D02*
X7515420Y-19453031D01*
X7515420Y-19453031D02*
X7524944Y-19472079D01*
X7524944Y-19472079D02*
X7524944Y-19491127D01*
X7524944Y-19491127D02*
X7515420Y-19519698D01*
X7515420Y-19519698D02*
X7401134Y-19633984D01*
X7401134Y-19633984D02*
X7524944Y-19633984D01*
X7601134Y-19433984D02*
X7601134Y-19472079D01*
X7677325Y-19433984D02*
X7677325Y-19472079D01*
X7972563Y-19710174D02*
X7963039Y-19700650D01*
X7963039Y-19700650D02*
X7943991Y-19672079D01*
X7943991Y-19672079D02*
X7934468Y-19653031D01*
X7934468Y-19653031D02*
X7924944Y-19624460D01*
X7924944Y-19624460D02*
X7915420Y-19576841D01*
X7915420Y-19576841D02*
X7915420Y-19538746D01*
X7915420Y-19538746D02*
X7924944Y-19491127D01*
X7924944Y-19491127D02*
X7934468Y-19462555D01*
X7934468Y-19462555D02*
X7943991Y-19443508D01*
X7943991Y-19443508D02*
X7963039Y-19414936D01*
X7963039Y-19414936D02*
X7972563Y-19405412D01*
X8134468Y-19500650D02*
X8134468Y-19633984D01*
X8086848Y-19424460D02*
X8039229Y-19567317D01*
X8039229Y-19567317D02*
X8163039Y-19567317D01*
X8391611Y-19633984D02*
X8391611Y-19433984D01*
X8477325Y-19633984D02*
X8477325Y-19529222D01*
X8477325Y-19529222D02*
X8467801Y-19510174D01*
X8467801Y-19510174D02*
X8448753Y-19500650D01*
X8448753Y-19500650D02*
X8420182Y-19500650D01*
X8420182Y-19500650D02*
X8401134Y-19510174D01*
X8401134Y-19510174D02*
X8391611Y-19519698D01*
X8601134Y-19633984D02*
X8582087Y-19624460D01*
X8582087Y-19624460D02*
X8572563Y-19614936D01*
X8572563Y-19614936D02*
X8563039Y-19595889D01*
X8563039Y-19595889D02*
X8563039Y-19538746D01*
X8563039Y-19538746D02*
X8572563Y-19519698D01*
X8572563Y-19519698D02*
X8582087Y-19510174D01*
X8582087Y-19510174D02*
X8601134Y-19500650D01*
X8601134Y-19500650D02*
X8629706Y-19500650D01*
X8629706Y-19500650D02*
X8648753Y-19510174D01*
X8648753Y-19510174D02*
X8658277Y-19519698D01*
X8658277Y-19519698D02*
X8667801Y-19538746D01*
X8667801Y-19538746D02*
X8667801Y-19595889D01*
X8667801Y-19595889D02*
X8658277Y-19614936D01*
X8658277Y-19614936D02*
X8648753Y-19624460D01*
X8648753Y-19624460D02*
X8629706Y-19633984D01*
X8629706Y-19633984D02*
X8601134Y-19633984D01*
X8782087Y-19633984D02*
X8763039Y-19624460D01*
X8763039Y-19624460D02*
X8753515Y-19605412D01*
X8753515Y-19605412D02*
X8753515Y-19433984D01*
X8934468Y-19624460D02*
X8915420Y-19633984D01*
X8915420Y-19633984D02*
X8877325Y-19633984D01*
X8877325Y-19633984D02*
X8858277Y-19624460D01*
X8858277Y-19624460D02*
X8848753Y-19605412D01*
X8848753Y-19605412D02*
X8848753Y-19529222D01*
X8848753Y-19529222D02*
X8858277Y-19510174D01*
X8858277Y-19510174D02*
X8877325Y-19500650D01*
X8877325Y-19500650D02*
X8915420Y-19500650D01*
X8915420Y-19500650D02*
X8934468Y-19510174D01*
X8934468Y-19510174D02*
X8943992Y-19529222D01*
X8943992Y-19529222D02*
X8943992Y-19548270D01*
X8943992Y-19548270D02*
X8848753Y-19567317D01*
X9020182Y-19624460D02*
X9039230Y-19633984D01*
X9039230Y-19633984D02*
X9077325Y-19633984D01*
X9077325Y-19633984D02*
X9096373Y-19624460D01*
X9096373Y-19624460D02*
X9105896Y-19605412D01*
X9105896Y-19605412D02*
X9105896Y-19595889D01*
X9105896Y-19595889D02*
X9096373Y-19576841D01*
X9096373Y-19576841D02*
X9077325Y-19567317D01*
X9077325Y-19567317D02*
X9048753Y-19567317D01*
X9048753Y-19567317D02*
X9029706Y-19557793D01*
X9029706Y-19557793D02*
X9020182Y-19538746D01*
X9020182Y-19538746D02*
X9020182Y-19529222D01*
X9020182Y-19529222D02*
X9029706Y-19510174D01*
X9029706Y-19510174D02*
X9048753Y-19500650D01*
X9048753Y-19500650D02*
X9077325Y-19500650D01*
X9077325Y-19500650D02*
X9096373Y-19510174D01*
X9172563Y-19710174D02*
X9182087Y-19700650D01*
X9182087Y-19700650D02*
X9201134Y-19672079D01*
X9201134Y-19672079D02*
X9210658Y-19653031D01*
X9210658Y-19653031D02*
X9220182Y-19624460D01*
X9220182Y-19624460D02*
X9229706Y-19576841D01*
X9229706Y-19576841D02*
X9229706Y-19538746D01*
X9229706Y-19538746D02*
X9220182Y-19491127D01*
X9220182Y-19491127D02*
X9210658Y-19462555D01*
X9210658Y-19462555D02*
X9201134Y-19443508D01*
X9201134Y-19443508D02*
X9182087Y-19414936D01*
X9182087Y-19414936D02*
X9172563Y-19405412D01*
X9534468Y-19710174D02*
X9524944Y-19700650D01*
X9524944Y-19700650D02*
X9505896Y-19672079D01*
X9505896Y-19672079D02*
X9496373Y-19653031D01*
X9496373Y-19653031D02*
X9486849Y-19624460D01*
X9486849Y-19624460D02*
X9477325Y-19576841D01*
X9477325Y-19576841D02*
X9477325Y-19538746D01*
X9477325Y-19538746D02*
X9486849Y-19491127D01*
X9486849Y-19491127D02*
X9496373Y-19462555D01*
X9496373Y-19462555D02*
X9505896Y-19443508D01*
X9505896Y-19443508D02*
X9524944Y-19414936D01*
X9524944Y-19414936D02*
X9534468Y-19405412D01*
X9610658Y-19500650D02*
X9610658Y-19633984D01*
X9610658Y-19519698D02*
X9620182Y-19510174D01*
X9620182Y-19510174D02*
X9639230Y-19500650D01*
X9639230Y-19500650D02*
X9667801Y-19500650D01*
X9667801Y-19500650D02*
X9686849Y-19510174D01*
X9686849Y-19510174D02*
X9696373Y-19529222D01*
X9696373Y-19529222D02*
X9696373Y-19633984D01*
X9820182Y-19633984D02*
X9801134Y-19624460D01*
X9801134Y-19624460D02*
X9791611Y-19614936D01*
X9791611Y-19614936D02*
X9782087Y-19595889D01*
X9782087Y-19595889D02*
X9782087Y-19538746D01*
X9782087Y-19538746D02*
X9791611Y-19519698D01*
X9791611Y-19519698D02*
X9801134Y-19510174D01*
X9801134Y-19510174D02*
X9820182Y-19500650D01*
X9820182Y-19500650D02*
X9848754Y-19500650D01*
X9848754Y-19500650D02*
X9867801Y-19510174D01*
X9867801Y-19510174D02*
X9877325Y-19519698D01*
X9877325Y-19519698D02*
X9886849Y-19538746D01*
X9886849Y-19538746D02*
X9886849Y-19595889D01*
X9886849Y-19595889D02*
X9877325Y-19614936D01*
X9877325Y-19614936D02*
X9867801Y-19624460D01*
X9867801Y-19624460D02*
X9848754Y-19633984D01*
X9848754Y-19633984D02*
X9820182Y-19633984D01*
X9943992Y-19500650D02*
X10020182Y-19500650D01*
X9972563Y-19433984D02*
X9972563Y-19605412D01*
X9972563Y-19605412D02*
X9982087Y-19624460D01*
X9982087Y-19624460D02*
X10001134Y-19633984D01*
X10001134Y-19633984D02*
X10020182Y-19633984D01*
X10239230Y-19500650D02*
X10239230Y-19700650D01*
X10239230Y-19510174D02*
X10258277Y-19500650D01*
X10258277Y-19500650D02*
X10296373Y-19500650D01*
X10296373Y-19500650D02*
X10315420Y-19510174D01*
X10315420Y-19510174D02*
X10324944Y-19519698D01*
X10324944Y-19519698D02*
X10334468Y-19538746D01*
X10334468Y-19538746D02*
X10334468Y-19595889D01*
X10334468Y-19595889D02*
X10324944Y-19614936D01*
X10324944Y-19614936D02*
X10315420Y-19624460D01*
X10315420Y-19624460D02*
X10296373Y-19633984D01*
X10296373Y-19633984D02*
X10258277Y-19633984D01*
X10258277Y-19633984D02*
X10239230Y-19624460D01*
X10448754Y-19633984D02*
X10429706Y-19624460D01*
X10429706Y-19624460D02*
X10420182Y-19605412D01*
X10420182Y-19605412D02*
X10420182Y-19433984D01*
X10610658Y-19633984D02*
X10610658Y-19529222D01*
X10610658Y-19529222D02*
X10601135Y-19510174D01*
X10601135Y-19510174D02*
X10582087Y-19500650D01*
X10582087Y-19500650D02*
X10543992Y-19500650D01*
X10543992Y-19500650D02*
X10524944Y-19510174D01*
X10610658Y-19624460D02*
X10591611Y-19633984D01*
X10591611Y-19633984D02*
X10543992Y-19633984D01*
X10543992Y-19633984D02*
X10524944Y-19624460D01*
X10524944Y-19624460D02*
X10515420Y-19605412D01*
X10515420Y-19605412D02*
X10515420Y-19586365D01*
X10515420Y-19586365D02*
X10524944Y-19567317D01*
X10524944Y-19567317D02*
X10543992Y-19557793D01*
X10543992Y-19557793D02*
X10591611Y-19557793D01*
X10591611Y-19557793D02*
X10610658Y-19548270D01*
X10677325Y-19500650D02*
X10753515Y-19500650D01*
X10705896Y-19433984D02*
X10705896Y-19605412D01*
X10705896Y-19605412D02*
X10715420Y-19624460D01*
X10715420Y-19624460D02*
X10734468Y-19633984D01*
X10734468Y-19633984D02*
X10753515Y-19633984D01*
X10896373Y-19624460D02*
X10877325Y-19633984D01*
X10877325Y-19633984D02*
X10839230Y-19633984D01*
X10839230Y-19633984D02*
X10820182Y-19624460D01*
X10820182Y-19624460D02*
X10810658Y-19605412D01*
X10810658Y-19605412D02*
X10810658Y-19529222D01*
X10810658Y-19529222D02*
X10820182Y-19510174D01*
X10820182Y-19510174D02*
X10839230Y-19500650D01*
X10839230Y-19500650D02*
X10877325Y-19500650D01*
X10877325Y-19500650D02*
X10896373Y-19510174D01*
X10896373Y-19510174D02*
X10905896Y-19529222D01*
X10905896Y-19529222D02*
X10905896Y-19548270D01*
X10905896Y-19548270D02*
X10810658Y-19567317D01*
X11077325Y-19633984D02*
X11077325Y-19433984D01*
X11077325Y-19624460D02*
X11058277Y-19633984D01*
X11058277Y-19633984D02*
X11020182Y-19633984D01*
X11020182Y-19633984D02*
X11001135Y-19624460D01*
X11001135Y-19624460D02*
X10991611Y-19614936D01*
X10991611Y-19614936D02*
X10982087Y-19595889D01*
X10982087Y-19595889D02*
X10982087Y-19538746D01*
X10982087Y-19538746D02*
X10991611Y-19519698D01*
X10991611Y-19519698D02*
X11001135Y-19510174D01*
X11001135Y-19510174D02*
X11020182Y-19500650D01*
X11020182Y-19500650D02*
X11058277Y-19500650D01*
X11058277Y-19500650D02*
X11077325Y-19510174D01*
X11153516Y-19710174D02*
X11163039Y-19700650D01*
X11163039Y-19700650D02*
X11182087Y-19672079D01*
X11182087Y-19672079D02*
X11191611Y-19653031D01*
X11191611Y-19653031D02*
X11201134Y-19624460D01*
X11201134Y-19624460D02*
X11210658Y-19576841D01*
X11210658Y-19576841D02*
X11210658Y-19538746D01*
X11210658Y-19538746D02*
X11201134Y-19491127D01*
X11201134Y-19491127D02*
X11191611Y-19462555D01*
X11191611Y-19462555D02*
X11182087Y-19443508D01*
X11182087Y-19443508D02*
X11163039Y-19414936D01*
X11163039Y-19414936D02*
X11153516Y-19405412D01*
X4397500Y-19862500D02*
G75*
G03*
X4197500Y-19862500I-100000J0D01*
G01*
X4197500Y-19862500D02*
G75*
G03*
X4397500Y-19862500I100000J0D01*
G01*
X4639229Y-19753984D02*
X4763039Y-19753984D01*
X4763039Y-19753984D02*
X4696372Y-19830174D01*
X4696372Y-19830174D02*
X4724944Y-19830174D01*
X4724944Y-19830174D02*
X4743991Y-19839698D01*
X4743991Y-19839698D02*
X4753515Y-19849222D01*
X4753515Y-19849222D02*
X4763039Y-19868270D01*
X4763039Y-19868270D02*
X4763039Y-19915889D01*
X4763039Y-19915889D02*
X4753515Y-19934936D01*
X4753515Y-19934936D02*
X4743991Y-19944460D01*
X4743991Y-19944460D02*
X4724944Y-19953984D01*
X4724944Y-19953984D02*
X4667801Y-19953984D01*
X4667801Y-19953984D02*
X4648753Y-19944460D01*
X4648753Y-19944460D02*
X4639229Y-19934936D01*
X4848753Y-19934936D02*
X4858277Y-19944460D01*
X4858277Y-19944460D02*
X4848753Y-19953984D01*
X4848753Y-19953984D02*
X4839229Y-19944460D01*
X4839229Y-19944460D02*
X4848753Y-19934936D01*
X4848753Y-19934936D02*
X4848753Y-19953984D01*
X4934467Y-19773031D02*
X4943991Y-19763508D01*
X4943991Y-19763508D02*
X4963039Y-19753984D01*
X4963039Y-19753984D02*
X5010658Y-19753984D01*
X5010658Y-19753984D02*
X5029705Y-19763508D01*
X5029705Y-19763508D02*
X5039229Y-19773031D01*
X5039229Y-19773031D02*
X5048753Y-19792079D01*
X5048753Y-19792079D02*
X5048753Y-19811127D01*
X5048753Y-19811127D02*
X5039229Y-19839698D01*
X5039229Y-19839698D02*
X4924944Y-19953984D01*
X4924944Y-19953984D02*
X5048753Y-19953984D01*
X5229705Y-19753984D02*
X5134467Y-19753984D01*
X5134467Y-19753984D02*
X5124944Y-19849222D01*
X5124944Y-19849222D02*
X5134467Y-19839698D01*
X5134467Y-19839698D02*
X5153515Y-19830174D01*
X5153515Y-19830174D02*
X5201134Y-19830174D01*
X5201134Y-19830174D02*
X5220182Y-19839698D01*
X5220182Y-19839698D02*
X5229705Y-19849222D01*
X5229705Y-19849222D02*
X5239229Y-19868270D01*
X5239229Y-19868270D02*
X5239229Y-19915889D01*
X5239229Y-19915889D02*
X5229705Y-19934936D01*
X5229705Y-19934936D02*
X5220182Y-19944460D01*
X5220182Y-19944460D02*
X5201134Y-19953984D01*
X5201134Y-19953984D02*
X5153515Y-19953984D01*
X5153515Y-19953984D02*
X5134467Y-19944460D01*
X5134467Y-19944460D02*
X5124944Y-19934936D01*
X5363039Y-19753984D02*
X5382086Y-19753984D01*
X5382086Y-19753984D02*
X5401134Y-19763508D01*
X5401134Y-19763508D02*
X5410658Y-19773031D01*
X5410658Y-19773031D02*
X5420182Y-19792079D01*
X5420182Y-19792079D02*
X5429705Y-19830174D01*
X5429705Y-19830174D02*
X5429705Y-19877793D01*
X5429705Y-19877793D02*
X5420182Y-19915889D01*
X5420182Y-19915889D02*
X5410658Y-19934936D01*
X5410658Y-19934936D02*
X5401134Y-19944460D01*
X5401134Y-19944460D02*
X5382086Y-19953984D01*
X5382086Y-19953984D02*
X5363039Y-19953984D01*
X5363039Y-19953984D02*
X5343991Y-19944460D01*
X5343991Y-19944460D02*
X5334467Y-19934936D01*
X5334467Y-19934936D02*
X5324944Y-19915889D01*
X5324944Y-19915889D02*
X5315420Y-19877793D01*
X5315420Y-19877793D02*
X5315420Y-19830174D01*
X5315420Y-19830174D02*
X5324944Y-19792079D01*
X5324944Y-19792079D02*
X5334467Y-19773031D01*
X5334467Y-19773031D02*
X5343991Y-19763508D01*
X5343991Y-19763508D02*
X5363039Y-19753984D01*
X5515420Y-19953984D02*
X5515420Y-19820650D01*
X5515420Y-19839698D02*
X5524944Y-19830174D01*
X5524944Y-19830174D02*
X5543991Y-19820650D01*
X5543991Y-19820650D02*
X5572563Y-19820650D01*
X5572563Y-19820650D02*
X5591610Y-19830174D01*
X5591610Y-19830174D02*
X5601134Y-19849222D01*
X5601134Y-19849222D02*
X5601134Y-19953984D01*
X5601134Y-19849222D02*
X5610658Y-19830174D01*
X5610658Y-19830174D02*
X5629705Y-19820650D01*
X5629705Y-19820650D02*
X5658277Y-19820650D01*
X5658277Y-19820650D02*
X5677324Y-19830174D01*
X5677324Y-19830174D02*
X5686848Y-19849222D01*
X5686848Y-19849222D02*
X5686848Y-19953984D01*
X5782086Y-19953984D02*
X5782086Y-19820650D01*
X5782086Y-19839698D02*
X5791610Y-19830174D01*
X5791610Y-19830174D02*
X5810658Y-19820650D01*
X5810658Y-19820650D02*
X5839229Y-19820650D01*
X5839229Y-19820650D02*
X5858277Y-19830174D01*
X5858277Y-19830174D02*
X5867801Y-19849222D01*
X5867801Y-19849222D02*
X5867801Y-19953984D01*
X5867801Y-19849222D02*
X5877324Y-19830174D01*
X5877324Y-19830174D02*
X5896372Y-19820650D01*
X5896372Y-19820650D02*
X5924943Y-19820650D01*
X5924943Y-19820650D02*
X5943991Y-19830174D01*
X5943991Y-19830174D02*
X5953515Y-19849222D01*
X5953515Y-19849222D02*
X5953515Y-19953984D01*
X6343991Y-19744460D02*
X6172563Y-20001603D01*
X6601134Y-19753984D02*
X6620182Y-19753984D01*
X6620182Y-19753984D02*
X6639229Y-19763508D01*
X6639229Y-19763508D02*
X6648753Y-19773031D01*
X6648753Y-19773031D02*
X6658277Y-19792079D01*
X6658277Y-19792079D02*
X6667801Y-19830174D01*
X6667801Y-19830174D02*
X6667801Y-19877793D01*
X6667801Y-19877793D02*
X6658277Y-19915889D01*
X6658277Y-19915889D02*
X6648753Y-19934936D01*
X6648753Y-19934936D02*
X6639229Y-19944460D01*
X6639229Y-19944460D02*
X6620182Y-19953984D01*
X6620182Y-19953984D02*
X6601134Y-19953984D01*
X6601134Y-19953984D02*
X6582086Y-19944460D01*
X6582086Y-19944460D02*
X6572563Y-19934936D01*
X6572563Y-19934936D02*
X6563039Y-19915889D01*
X6563039Y-19915889D02*
X6553515Y-19877793D01*
X6553515Y-19877793D02*
X6553515Y-19830174D01*
X6553515Y-19830174D02*
X6563039Y-19792079D01*
X6563039Y-19792079D02*
X6572563Y-19773031D01*
X6572563Y-19773031D02*
X6582086Y-19763508D01*
X6582086Y-19763508D02*
X6601134Y-19753984D01*
X6753515Y-19934936D02*
X6763039Y-19944460D01*
X6763039Y-19944460D02*
X6753515Y-19953984D01*
X6753515Y-19953984D02*
X6743991Y-19944460D01*
X6743991Y-19944460D02*
X6753515Y-19934936D01*
X6753515Y-19934936D02*
X6753515Y-19953984D01*
X6953515Y-19953984D02*
X6839229Y-19953984D01*
X6896372Y-19953984D02*
X6896372Y-19753984D01*
X6896372Y-19753984D02*
X6877325Y-19782555D01*
X6877325Y-19782555D02*
X6858277Y-19801603D01*
X6858277Y-19801603D02*
X6839229Y-19811127D01*
X7029706Y-19773031D02*
X7039229Y-19763508D01*
X7039229Y-19763508D02*
X7058277Y-19753984D01*
X7058277Y-19753984D02*
X7105896Y-19753984D01*
X7105896Y-19753984D02*
X7124944Y-19763508D01*
X7124944Y-19763508D02*
X7134467Y-19773031D01*
X7134467Y-19773031D02*
X7143991Y-19792079D01*
X7143991Y-19792079D02*
X7143991Y-19811127D01*
X7143991Y-19811127D02*
X7134467Y-19839698D01*
X7134467Y-19839698D02*
X7020182Y-19953984D01*
X7020182Y-19953984D02*
X7143991Y-19953984D01*
X7258277Y-19839698D02*
X7239229Y-19830174D01*
X7239229Y-19830174D02*
X7229706Y-19820650D01*
X7229706Y-19820650D02*
X7220182Y-19801603D01*
X7220182Y-19801603D02*
X7220182Y-19792079D01*
X7220182Y-19792079D02*
X7229706Y-19773031D01*
X7229706Y-19773031D02*
X7239229Y-19763508D01*
X7239229Y-19763508D02*
X7258277Y-19753984D01*
X7258277Y-19753984D02*
X7296372Y-19753984D01*
X7296372Y-19753984D02*
X7315420Y-19763508D01*
X7315420Y-19763508D02*
X7324944Y-19773031D01*
X7324944Y-19773031D02*
X7334467Y-19792079D01*
X7334467Y-19792079D02*
X7334467Y-19801603D01*
X7334467Y-19801603D02*
X7324944Y-19820650D01*
X7324944Y-19820650D02*
X7315420Y-19830174D01*
X7315420Y-19830174D02*
X7296372Y-19839698D01*
X7296372Y-19839698D02*
X7258277Y-19839698D01*
X7258277Y-19839698D02*
X7239229Y-19849222D01*
X7239229Y-19849222D02*
X7229706Y-19858746D01*
X7229706Y-19858746D02*
X7220182Y-19877793D01*
X7220182Y-19877793D02*
X7220182Y-19915889D01*
X7220182Y-19915889D02*
X7229706Y-19934936D01*
X7229706Y-19934936D02*
X7239229Y-19944460D01*
X7239229Y-19944460D02*
X7258277Y-19953984D01*
X7258277Y-19953984D02*
X7296372Y-19953984D01*
X7296372Y-19953984D02*
X7315420Y-19944460D01*
X7315420Y-19944460D02*
X7324944Y-19934936D01*
X7324944Y-19934936D02*
X7334467Y-19915889D01*
X7334467Y-19915889D02*
X7334467Y-19877793D01*
X7334467Y-19877793D02*
X7324944Y-19858746D01*
X7324944Y-19858746D02*
X7315420Y-19849222D01*
X7315420Y-19849222D02*
X7296372Y-19839698D01*
X7458277Y-19753984D02*
X7477325Y-19753984D01*
X7477325Y-19753984D02*
X7496372Y-19763508D01*
X7496372Y-19763508D02*
X7505896Y-19773031D01*
X7505896Y-19773031D02*
X7515420Y-19792079D01*
X7515420Y-19792079D02*
X7524944Y-19830174D01*
X7524944Y-19830174D02*
X7524944Y-19877793D01*
X7524944Y-19877793D02*
X7515420Y-19915889D01*
X7515420Y-19915889D02*
X7505896Y-19934936D01*
X7505896Y-19934936D02*
X7496372Y-19944460D01*
X7496372Y-19944460D02*
X7477325Y-19953984D01*
X7477325Y-19953984D02*
X7458277Y-19953984D01*
X7458277Y-19953984D02*
X7439229Y-19944460D01*
X7439229Y-19944460D02*
X7429706Y-19934936D01*
X7429706Y-19934936D02*
X7420182Y-19915889D01*
X7420182Y-19915889D02*
X7410658Y-19877793D01*
X7410658Y-19877793D02*
X7410658Y-19830174D01*
X7410658Y-19830174D02*
X7420182Y-19792079D01*
X7420182Y-19792079D02*
X7429706Y-19773031D01*
X7429706Y-19773031D02*
X7439229Y-19763508D01*
X7439229Y-19763508D02*
X7458277Y-19753984D01*
X7601134Y-19753984D02*
X7601134Y-19792079D01*
X7677325Y-19753984D02*
X7677325Y-19792079D01*
X7972563Y-20030174D02*
X7963039Y-20020650D01*
X7963039Y-20020650D02*
X7943991Y-19992079D01*
X7943991Y-19992079D02*
X7934468Y-19973031D01*
X7934468Y-19973031D02*
X7924944Y-19944460D01*
X7924944Y-19944460D02*
X7915420Y-19896841D01*
X7915420Y-19896841D02*
X7915420Y-19858746D01*
X7915420Y-19858746D02*
X7924944Y-19811127D01*
X7924944Y-19811127D02*
X7934468Y-19782555D01*
X7934468Y-19782555D02*
X7943991Y-19763508D01*
X7943991Y-19763508D02*
X7963039Y-19734936D01*
X7963039Y-19734936D02*
X7972563Y-19725412D01*
X8039229Y-19773031D02*
X8048753Y-19763508D01*
X8048753Y-19763508D02*
X8067801Y-19753984D01*
X8067801Y-19753984D02*
X8115420Y-19753984D01*
X8115420Y-19753984D02*
X8134468Y-19763508D01*
X8134468Y-19763508D02*
X8143991Y-19773031D01*
X8143991Y-19773031D02*
X8153515Y-19792079D01*
X8153515Y-19792079D02*
X8153515Y-19811127D01*
X8153515Y-19811127D02*
X8143991Y-19839698D01*
X8143991Y-19839698D02*
X8029706Y-19953984D01*
X8029706Y-19953984D02*
X8153515Y-19953984D01*
X8391611Y-19953984D02*
X8391611Y-19753984D01*
X8477325Y-19953984D02*
X8477325Y-19849222D01*
X8477325Y-19849222D02*
X8467801Y-19830174D01*
X8467801Y-19830174D02*
X8448753Y-19820650D01*
X8448753Y-19820650D02*
X8420182Y-19820650D01*
X8420182Y-19820650D02*
X8401134Y-19830174D01*
X8401134Y-19830174D02*
X8391611Y-19839698D01*
X8601134Y-19953984D02*
X8582087Y-19944460D01*
X8582087Y-19944460D02*
X8572563Y-19934936D01*
X8572563Y-19934936D02*
X8563039Y-19915889D01*
X8563039Y-19915889D02*
X8563039Y-19858746D01*
X8563039Y-19858746D02*
X8572563Y-19839698D01*
X8572563Y-19839698D02*
X8582087Y-19830174D01*
X8582087Y-19830174D02*
X8601134Y-19820650D01*
X8601134Y-19820650D02*
X8629706Y-19820650D01*
X8629706Y-19820650D02*
X8648753Y-19830174D01*
X8648753Y-19830174D02*
X8658277Y-19839698D01*
X8658277Y-19839698D02*
X8667801Y-19858746D01*
X8667801Y-19858746D02*
X8667801Y-19915889D01*
X8667801Y-19915889D02*
X8658277Y-19934936D01*
X8658277Y-19934936D02*
X8648753Y-19944460D01*
X8648753Y-19944460D02*
X8629706Y-19953984D01*
X8629706Y-19953984D02*
X8601134Y-19953984D01*
X8782087Y-19953984D02*
X8763039Y-19944460D01*
X8763039Y-19944460D02*
X8753515Y-19925412D01*
X8753515Y-19925412D02*
X8753515Y-19753984D01*
X8934468Y-19944460D02*
X8915420Y-19953984D01*
X8915420Y-19953984D02*
X8877325Y-19953984D01*
X8877325Y-19953984D02*
X8858277Y-19944460D01*
X8858277Y-19944460D02*
X8848753Y-19925412D01*
X8848753Y-19925412D02*
X8848753Y-19849222D01*
X8848753Y-19849222D02*
X8858277Y-19830174D01*
X8858277Y-19830174D02*
X8877325Y-19820650D01*
X8877325Y-19820650D02*
X8915420Y-19820650D01*
X8915420Y-19820650D02*
X8934468Y-19830174D01*
X8934468Y-19830174D02*
X8943992Y-19849222D01*
X8943992Y-19849222D02*
X8943992Y-19868270D01*
X8943992Y-19868270D02*
X8848753Y-19887317D01*
X9020182Y-19944460D02*
X9039230Y-19953984D01*
X9039230Y-19953984D02*
X9077325Y-19953984D01*
X9077325Y-19953984D02*
X9096373Y-19944460D01*
X9096373Y-19944460D02*
X9105896Y-19925412D01*
X9105896Y-19925412D02*
X9105896Y-19915889D01*
X9105896Y-19915889D02*
X9096373Y-19896841D01*
X9096373Y-19896841D02*
X9077325Y-19887317D01*
X9077325Y-19887317D02*
X9048753Y-19887317D01*
X9048753Y-19887317D02*
X9029706Y-19877793D01*
X9029706Y-19877793D02*
X9020182Y-19858746D01*
X9020182Y-19858746D02*
X9020182Y-19849222D01*
X9020182Y-19849222D02*
X9029706Y-19830174D01*
X9029706Y-19830174D02*
X9048753Y-19820650D01*
X9048753Y-19820650D02*
X9077325Y-19820650D01*
X9077325Y-19820650D02*
X9096373Y-19830174D01*
X9172563Y-20030174D02*
X9182087Y-20020650D01*
X9182087Y-20020650D02*
X9201134Y-19992079D01*
X9201134Y-19992079D02*
X9210658Y-19973031D01*
X9210658Y-19973031D02*
X9220182Y-19944460D01*
X9220182Y-19944460D02*
X9229706Y-19896841D01*
X9229706Y-19896841D02*
X9229706Y-19858746D01*
X9229706Y-19858746D02*
X9220182Y-19811127D01*
X9220182Y-19811127D02*
X9210658Y-19782555D01*
X9210658Y-19782555D02*
X9201134Y-19763508D01*
X9201134Y-19763508D02*
X9182087Y-19734936D01*
X9182087Y-19734936D02*
X9172563Y-19725412D01*
X9534468Y-20030174D02*
X9524944Y-20020650D01*
X9524944Y-20020650D02*
X9505896Y-19992079D01*
X9505896Y-19992079D02*
X9496373Y-19973031D01*
X9496373Y-19973031D02*
X9486849Y-19944460D01*
X9486849Y-19944460D02*
X9477325Y-19896841D01*
X9477325Y-19896841D02*
X9477325Y-19858746D01*
X9477325Y-19858746D02*
X9486849Y-19811127D01*
X9486849Y-19811127D02*
X9496373Y-19782555D01*
X9496373Y-19782555D02*
X9505896Y-19763508D01*
X9505896Y-19763508D02*
X9524944Y-19734936D01*
X9524944Y-19734936D02*
X9534468Y-19725412D01*
X9610658Y-19820650D02*
X9610658Y-19953984D01*
X9610658Y-19839698D02*
X9620182Y-19830174D01*
X9620182Y-19830174D02*
X9639230Y-19820650D01*
X9639230Y-19820650D02*
X9667801Y-19820650D01*
X9667801Y-19820650D02*
X9686849Y-19830174D01*
X9686849Y-19830174D02*
X9696373Y-19849222D01*
X9696373Y-19849222D02*
X9696373Y-19953984D01*
X9820182Y-19953984D02*
X9801134Y-19944460D01*
X9801134Y-19944460D02*
X9791611Y-19934936D01*
X9791611Y-19934936D02*
X9782087Y-19915889D01*
X9782087Y-19915889D02*
X9782087Y-19858746D01*
X9782087Y-19858746D02*
X9791611Y-19839698D01*
X9791611Y-19839698D02*
X9801134Y-19830174D01*
X9801134Y-19830174D02*
X9820182Y-19820650D01*
X9820182Y-19820650D02*
X9848754Y-19820650D01*
X9848754Y-19820650D02*
X9867801Y-19830174D01*
X9867801Y-19830174D02*
X9877325Y-19839698D01*
X9877325Y-19839698D02*
X9886849Y-19858746D01*
X9886849Y-19858746D02*
X9886849Y-19915889D01*
X9886849Y-19915889D02*
X9877325Y-19934936D01*
X9877325Y-19934936D02*
X9867801Y-19944460D01*
X9867801Y-19944460D02*
X9848754Y-19953984D01*
X9848754Y-19953984D02*
X9820182Y-19953984D01*
X9943992Y-19820650D02*
X10020182Y-19820650D01*
X9972563Y-19753984D02*
X9972563Y-19925412D01*
X9972563Y-19925412D02*
X9982087Y-19944460D01*
X9982087Y-19944460D02*
X10001134Y-19953984D01*
X10001134Y-19953984D02*
X10020182Y-19953984D01*
X10239230Y-19820650D02*
X10239230Y-20020650D01*
X10239230Y-19830174D02*
X10258277Y-19820650D01*
X10258277Y-19820650D02*
X10296373Y-19820650D01*
X10296373Y-19820650D02*
X10315420Y-19830174D01*
X10315420Y-19830174D02*
X10324944Y-19839698D01*
X10324944Y-19839698D02*
X10334468Y-19858746D01*
X10334468Y-19858746D02*
X10334468Y-19915889D01*
X10334468Y-19915889D02*
X10324944Y-19934936D01*
X10324944Y-19934936D02*
X10315420Y-19944460D01*
X10315420Y-19944460D02*
X10296373Y-19953984D01*
X10296373Y-19953984D02*
X10258277Y-19953984D01*
X10258277Y-19953984D02*
X10239230Y-19944460D01*
X10448754Y-19953984D02*
X10429706Y-19944460D01*
X10429706Y-19944460D02*
X10420182Y-19925412D01*
X10420182Y-19925412D02*
X10420182Y-19753984D01*
X10610658Y-19953984D02*
X10610658Y-19849222D01*
X10610658Y-19849222D02*
X10601135Y-19830174D01*
X10601135Y-19830174D02*
X10582087Y-19820650D01*
X10582087Y-19820650D02*
X10543992Y-19820650D01*
X10543992Y-19820650D02*
X10524944Y-19830174D01*
X10610658Y-19944460D02*
X10591611Y-19953984D01*
X10591611Y-19953984D02*
X10543992Y-19953984D01*
X10543992Y-19953984D02*
X10524944Y-19944460D01*
X10524944Y-19944460D02*
X10515420Y-19925412D01*
X10515420Y-19925412D02*
X10515420Y-19906365D01*
X10515420Y-19906365D02*
X10524944Y-19887317D01*
X10524944Y-19887317D02*
X10543992Y-19877793D01*
X10543992Y-19877793D02*
X10591611Y-19877793D01*
X10591611Y-19877793D02*
X10610658Y-19868270D01*
X10677325Y-19820650D02*
X10753515Y-19820650D01*
X10705896Y-19753984D02*
X10705896Y-19925412D01*
X10705896Y-19925412D02*
X10715420Y-19944460D01*
X10715420Y-19944460D02*
X10734468Y-19953984D01*
X10734468Y-19953984D02*
X10753515Y-19953984D01*
X10896373Y-19944460D02*
X10877325Y-19953984D01*
X10877325Y-19953984D02*
X10839230Y-19953984D01*
X10839230Y-19953984D02*
X10820182Y-19944460D01*
X10820182Y-19944460D02*
X10810658Y-19925412D01*
X10810658Y-19925412D02*
X10810658Y-19849222D01*
X10810658Y-19849222D02*
X10820182Y-19830174D01*
X10820182Y-19830174D02*
X10839230Y-19820650D01*
X10839230Y-19820650D02*
X10877325Y-19820650D01*
X10877325Y-19820650D02*
X10896373Y-19830174D01*
X10896373Y-19830174D02*
X10905896Y-19849222D01*
X10905896Y-19849222D02*
X10905896Y-19868270D01*
X10905896Y-19868270D02*
X10810658Y-19887317D01*
X11077325Y-19953984D02*
X11077325Y-19753984D01*
X11077325Y-19944460D02*
X11058277Y-19953984D01*
X11058277Y-19953984D02*
X11020182Y-19953984D01*
X11020182Y-19953984D02*
X11001135Y-19944460D01*
X11001135Y-19944460D02*
X10991611Y-19934936D01*
X10991611Y-19934936D02*
X10982087Y-19915889D01*
X10982087Y-19915889D02*
X10982087Y-19858746D01*
X10982087Y-19858746D02*
X10991611Y-19839698D01*
X10991611Y-19839698D02*
X11001135Y-19830174D01*
X11001135Y-19830174D02*
X11020182Y-19820650D01*
X11020182Y-19820650D02*
X11058277Y-19820650D01*
X11058277Y-19820650D02*
X11077325Y-19830174D01*
X11153516Y-20030174D02*
X11163039Y-20020650D01*
X11163039Y-20020650D02*
X11182087Y-19992079D01*
X11182087Y-19992079D02*
X11191611Y-19973031D01*
X11191611Y-19973031D02*
X11201134Y-19944460D01*
X11201134Y-19944460D02*
X11210658Y-19896841D01*
X11210658Y-19896841D02*
X11210658Y-19858746D01*
X11210658Y-19858746D02*
X11201134Y-19811127D01*
X11201134Y-19811127D02*
X11191611Y-19782555D01*
X11191611Y-19782555D02*
X11182087Y-19763508D01*
X11182087Y-19763508D02*
X11163039Y-19734936D01*
X11163039Y-19734936D02*
X11153516Y-19725412D01*
X4297500Y-20082500D02*
X4297500Y-20282500D01*
X4197500Y-20182500D02*
X4397500Y-20182500D01*
X4639229Y-20073984D02*
X4763039Y-20073984D01*
X4763039Y-20073984D02*
X4696372Y-20150174D01*
X4696372Y-20150174D02*
X4724944Y-20150174D01*
X4724944Y-20150174D02*
X4743991Y-20159698D01*
X4743991Y-20159698D02*
X4753515Y-20169222D01*
X4753515Y-20169222D02*
X4763039Y-20188270D01*
X4763039Y-20188270D02*
X4763039Y-20235889D01*
X4763039Y-20235889D02*
X4753515Y-20254936D01*
X4753515Y-20254936D02*
X4743991Y-20264460D01*
X4743991Y-20264460D02*
X4724944Y-20273984D01*
X4724944Y-20273984D02*
X4667801Y-20273984D01*
X4667801Y-20273984D02*
X4648753Y-20264460D01*
X4648753Y-20264460D02*
X4639229Y-20254936D01*
X4848753Y-20254936D02*
X4858277Y-20264460D01*
X4858277Y-20264460D02*
X4848753Y-20273984D01*
X4848753Y-20273984D02*
X4839229Y-20264460D01*
X4839229Y-20264460D02*
X4848753Y-20254936D01*
X4848753Y-20254936D02*
X4848753Y-20273984D01*
X4924944Y-20073984D02*
X5058277Y-20073984D01*
X5058277Y-20073984D02*
X4972563Y-20273984D01*
X5172563Y-20073984D02*
X5191610Y-20073984D01*
X5191610Y-20073984D02*
X5210658Y-20083508D01*
X5210658Y-20083508D02*
X5220182Y-20093031D01*
X5220182Y-20093031D02*
X5229705Y-20112079D01*
X5229705Y-20112079D02*
X5239229Y-20150174D01*
X5239229Y-20150174D02*
X5239229Y-20197793D01*
X5239229Y-20197793D02*
X5229705Y-20235889D01*
X5229705Y-20235889D02*
X5220182Y-20254936D01*
X5220182Y-20254936D02*
X5210658Y-20264460D01*
X5210658Y-20264460D02*
X5191610Y-20273984D01*
X5191610Y-20273984D02*
X5172563Y-20273984D01*
X5172563Y-20273984D02*
X5153515Y-20264460D01*
X5153515Y-20264460D02*
X5143991Y-20254936D01*
X5143991Y-20254936D02*
X5134467Y-20235889D01*
X5134467Y-20235889D02*
X5124944Y-20197793D01*
X5124944Y-20197793D02*
X5124944Y-20150174D01*
X5124944Y-20150174D02*
X5134467Y-20112079D01*
X5134467Y-20112079D02*
X5143991Y-20093031D01*
X5143991Y-20093031D02*
X5153515Y-20083508D01*
X5153515Y-20083508D02*
X5172563Y-20073984D01*
X5363039Y-20073984D02*
X5382086Y-20073984D01*
X5382086Y-20073984D02*
X5401134Y-20083508D01*
X5401134Y-20083508D02*
X5410658Y-20093031D01*
X5410658Y-20093031D02*
X5420182Y-20112079D01*
X5420182Y-20112079D02*
X5429705Y-20150174D01*
X5429705Y-20150174D02*
X5429705Y-20197793D01*
X5429705Y-20197793D02*
X5420182Y-20235889D01*
X5420182Y-20235889D02*
X5410658Y-20254936D01*
X5410658Y-20254936D02*
X5401134Y-20264460D01*
X5401134Y-20264460D02*
X5382086Y-20273984D01*
X5382086Y-20273984D02*
X5363039Y-20273984D01*
X5363039Y-20273984D02*
X5343991Y-20264460D01*
X5343991Y-20264460D02*
X5334467Y-20254936D01*
X5334467Y-20254936D02*
X5324944Y-20235889D01*
X5324944Y-20235889D02*
X5315420Y-20197793D01*
X5315420Y-20197793D02*
X5315420Y-20150174D01*
X5315420Y-20150174D02*
X5324944Y-20112079D01*
X5324944Y-20112079D02*
X5334467Y-20093031D01*
X5334467Y-20093031D02*
X5343991Y-20083508D01*
X5343991Y-20083508D02*
X5363039Y-20073984D01*
X5515420Y-20273984D02*
X5515420Y-20140650D01*
X5515420Y-20159698D02*
X5524944Y-20150174D01*
X5524944Y-20150174D02*
X5543991Y-20140650D01*
X5543991Y-20140650D02*
X5572563Y-20140650D01*
X5572563Y-20140650D02*
X5591610Y-20150174D01*
X5591610Y-20150174D02*
X5601134Y-20169222D01*
X5601134Y-20169222D02*
X5601134Y-20273984D01*
X5601134Y-20169222D02*
X5610658Y-20150174D01*
X5610658Y-20150174D02*
X5629705Y-20140650D01*
X5629705Y-20140650D02*
X5658277Y-20140650D01*
X5658277Y-20140650D02*
X5677324Y-20150174D01*
X5677324Y-20150174D02*
X5686848Y-20169222D01*
X5686848Y-20169222D02*
X5686848Y-20273984D01*
X5782086Y-20273984D02*
X5782086Y-20140650D01*
X5782086Y-20159698D02*
X5791610Y-20150174D01*
X5791610Y-20150174D02*
X5810658Y-20140650D01*
X5810658Y-20140650D02*
X5839229Y-20140650D01*
X5839229Y-20140650D02*
X5858277Y-20150174D01*
X5858277Y-20150174D02*
X5867801Y-20169222D01*
X5867801Y-20169222D02*
X5867801Y-20273984D01*
X5867801Y-20169222D02*
X5877324Y-20150174D01*
X5877324Y-20150174D02*
X5896372Y-20140650D01*
X5896372Y-20140650D02*
X5924943Y-20140650D01*
X5924943Y-20140650D02*
X5943991Y-20150174D01*
X5943991Y-20150174D02*
X5953515Y-20169222D01*
X5953515Y-20169222D02*
X5953515Y-20273984D01*
X6343991Y-20064460D02*
X6172563Y-20321603D01*
X6601134Y-20073984D02*
X6620182Y-20073984D01*
X6620182Y-20073984D02*
X6639229Y-20083508D01*
X6639229Y-20083508D02*
X6648753Y-20093031D01*
X6648753Y-20093031D02*
X6658277Y-20112079D01*
X6658277Y-20112079D02*
X6667801Y-20150174D01*
X6667801Y-20150174D02*
X6667801Y-20197793D01*
X6667801Y-20197793D02*
X6658277Y-20235889D01*
X6658277Y-20235889D02*
X6648753Y-20254936D01*
X6648753Y-20254936D02*
X6639229Y-20264460D01*
X6639229Y-20264460D02*
X6620182Y-20273984D01*
X6620182Y-20273984D02*
X6601134Y-20273984D01*
X6601134Y-20273984D02*
X6582086Y-20264460D01*
X6582086Y-20264460D02*
X6572563Y-20254936D01*
X6572563Y-20254936D02*
X6563039Y-20235889D01*
X6563039Y-20235889D02*
X6553515Y-20197793D01*
X6553515Y-20197793D02*
X6553515Y-20150174D01*
X6553515Y-20150174D02*
X6563039Y-20112079D01*
X6563039Y-20112079D02*
X6572563Y-20093031D01*
X6572563Y-20093031D02*
X6582086Y-20083508D01*
X6582086Y-20083508D02*
X6601134Y-20073984D01*
X6753515Y-20254936D02*
X6763039Y-20264460D01*
X6763039Y-20264460D02*
X6753515Y-20273984D01*
X6753515Y-20273984D02*
X6743991Y-20264460D01*
X6743991Y-20264460D02*
X6753515Y-20254936D01*
X6753515Y-20254936D02*
X6753515Y-20273984D01*
X6953515Y-20273984D02*
X6839229Y-20273984D01*
X6896372Y-20273984D02*
X6896372Y-20073984D01*
X6896372Y-20073984D02*
X6877325Y-20102555D01*
X6877325Y-20102555D02*
X6858277Y-20121603D01*
X6858277Y-20121603D02*
X6839229Y-20131127D01*
X7124944Y-20140650D02*
X7124944Y-20273984D01*
X7077325Y-20064460D02*
X7029706Y-20207317D01*
X7029706Y-20207317D02*
X7153515Y-20207317D01*
X7324944Y-20073984D02*
X7229706Y-20073984D01*
X7229706Y-20073984D02*
X7220182Y-20169222D01*
X7220182Y-20169222D02*
X7229706Y-20159698D01*
X7229706Y-20159698D02*
X7248753Y-20150174D01*
X7248753Y-20150174D02*
X7296372Y-20150174D01*
X7296372Y-20150174D02*
X7315420Y-20159698D01*
X7315420Y-20159698D02*
X7324944Y-20169222D01*
X7324944Y-20169222D02*
X7334467Y-20188270D01*
X7334467Y-20188270D02*
X7334467Y-20235889D01*
X7334467Y-20235889D02*
X7324944Y-20254936D01*
X7324944Y-20254936D02*
X7315420Y-20264460D01*
X7315420Y-20264460D02*
X7296372Y-20273984D01*
X7296372Y-20273984D02*
X7248753Y-20273984D01*
X7248753Y-20273984D02*
X7229706Y-20264460D01*
X7229706Y-20264460D02*
X7220182Y-20254936D01*
X7401134Y-20073984D02*
X7534467Y-20073984D01*
X7534467Y-20073984D02*
X7448753Y-20273984D01*
X7601134Y-20073984D02*
X7601134Y-20112079D01*
X7677325Y-20073984D02*
X7677325Y-20112079D01*
X7972563Y-20350174D02*
X7963039Y-20340650D01*
X7963039Y-20340650D02*
X7943991Y-20312079D01*
X7943991Y-20312079D02*
X7934468Y-20293031D01*
X7934468Y-20293031D02*
X7924944Y-20264460D01*
X7924944Y-20264460D02*
X7915420Y-20216841D01*
X7915420Y-20216841D02*
X7915420Y-20178746D01*
X7915420Y-20178746D02*
X7924944Y-20131127D01*
X7924944Y-20131127D02*
X7934468Y-20102555D01*
X7934468Y-20102555D02*
X7943991Y-20083508D01*
X7943991Y-20083508D02*
X7963039Y-20054936D01*
X7963039Y-20054936D02*
X7972563Y-20045412D01*
X8134468Y-20140650D02*
X8134468Y-20273984D01*
X8086848Y-20064460D02*
X8039229Y-20207317D01*
X8039229Y-20207317D02*
X8163039Y-20207317D01*
X8391611Y-20273984D02*
X8391611Y-20073984D01*
X8477325Y-20273984D02*
X8477325Y-20169222D01*
X8477325Y-20169222D02*
X8467801Y-20150174D01*
X8467801Y-20150174D02*
X8448753Y-20140650D01*
X8448753Y-20140650D02*
X8420182Y-20140650D01*
X8420182Y-20140650D02*
X8401134Y-20150174D01*
X8401134Y-20150174D02*
X8391611Y-20159698D01*
X8601134Y-20273984D02*
X8582087Y-20264460D01*
X8582087Y-20264460D02*
X8572563Y-20254936D01*
X8572563Y-20254936D02*
X8563039Y-20235889D01*
X8563039Y-20235889D02*
X8563039Y-20178746D01*
X8563039Y-20178746D02*
X8572563Y-20159698D01*
X8572563Y-20159698D02*
X8582087Y-20150174D01*
X8582087Y-20150174D02*
X8601134Y-20140650D01*
X8601134Y-20140650D02*
X8629706Y-20140650D01*
X8629706Y-20140650D02*
X8648753Y-20150174D01*
X8648753Y-20150174D02*
X8658277Y-20159698D01*
X8658277Y-20159698D02*
X8667801Y-20178746D01*
X8667801Y-20178746D02*
X8667801Y-20235889D01*
X8667801Y-20235889D02*
X8658277Y-20254936D01*
X8658277Y-20254936D02*
X8648753Y-20264460D01*
X8648753Y-20264460D02*
X8629706Y-20273984D01*
X8629706Y-20273984D02*
X8601134Y-20273984D01*
X8782087Y-20273984D02*
X8763039Y-20264460D01*
X8763039Y-20264460D02*
X8753515Y-20245412D01*
X8753515Y-20245412D02*
X8753515Y-20073984D01*
X8934468Y-20264460D02*
X8915420Y-20273984D01*
X8915420Y-20273984D02*
X8877325Y-20273984D01*
X8877325Y-20273984D02*
X8858277Y-20264460D01*
X8858277Y-20264460D02*
X8848753Y-20245412D01*
X8848753Y-20245412D02*
X8848753Y-20169222D01*
X8848753Y-20169222D02*
X8858277Y-20150174D01*
X8858277Y-20150174D02*
X8877325Y-20140650D01*
X8877325Y-20140650D02*
X8915420Y-20140650D01*
X8915420Y-20140650D02*
X8934468Y-20150174D01*
X8934468Y-20150174D02*
X8943992Y-20169222D01*
X8943992Y-20169222D02*
X8943992Y-20188270D01*
X8943992Y-20188270D02*
X8848753Y-20207317D01*
X9020182Y-20264460D02*
X9039230Y-20273984D01*
X9039230Y-20273984D02*
X9077325Y-20273984D01*
X9077325Y-20273984D02*
X9096373Y-20264460D01*
X9096373Y-20264460D02*
X9105896Y-20245412D01*
X9105896Y-20245412D02*
X9105896Y-20235889D01*
X9105896Y-20235889D02*
X9096373Y-20216841D01*
X9096373Y-20216841D02*
X9077325Y-20207317D01*
X9077325Y-20207317D02*
X9048753Y-20207317D01*
X9048753Y-20207317D02*
X9029706Y-20197793D01*
X9029706Y-20197793D02*
X9020182Y-20178746D01*
X9020182Y-20178746D02*
X9020182Y-20169222D01*
X9020182Y-20169222D02*
X9029706Y-20150174D01*
X9029706Y-20150174D02*
X9048753Y-20140650D01*
X9048753Y-20140650D02*
X9077325Y-20140650D01*
X9077325Y-20140650D02*
X9096373Y-20150174D01*
X9172563Y-20350174D02*
X9182087Y-20340650D01*
X9182087Y-20340650D02*
X9201134Y-20312079D01*
X9201134Y-20312079D02*
X9210658Y-20293031D01*
X9210658Y-20293031D02*
X9220182Y-20264460D01*
X9220182Y-20264460D02*
X9229706Y-20216841D01*
X9229706Y-20216841D02*
X9229706Y-20178746D01*
X9229706Y-20178746D02*
X9220182Y-20131127D01*
X9220182Y-20131127D02*
X9210658Y-20102555D01*
X9210658Y-20102555D02*
X9201134Y-20083508D01*
X9201134Y-20083508D02*
X9182087Y-20054936D01*
X9182087Y-20054936D02*
X9172563Y-20045412D01*
X9534468Y-20350174D02*
X9524944Y-20340650D01*
X9524944Y-20340650D02*
X9505896Y-20312079D01*
X9505896Y-20312079D02*
X9496373Y-20293031D01*
X9496373Y-20293031D02*
X9486849Y-20264460D01*
X9486849Y-20264460D02*
X9477325Y-20216841D01*
X9477325Y-20216841D02*
X9477325Y-20178746D01*
X9477325Y-20178746D02*
X9486849Y-20131127D01*
X9486849Y-20131127D02*
X9496373Y-20102555D01*
X9496373Y-20102555D02*
X9505896Y-20083508D01*
X9505896Y-20083508D02*
X9524944Y-20054936D01*
X9524944Y-20054936D02*
X9534468Y-20045412D01*
X9610658Y-20140650D02*
X9610658Y-20273984D01*
X9610658Y-20159698D02*
X9620182Y-20150174D01*
X9620182Y-20150174D02*
X9639230Y-20140650D01*
X9639230Y-20140650D02*
X9667801Y-20140650D01*
X9667801Y-20140650D02*
X9686849Y-20150174D01*
X9686849Y-20150174D02*
X9696373Y-20169222D01*
X9696373Y-20169222D02*
X9696373Y-20273984D01*
X9820182Y-20273984D02*
X9801134Y-20264460D01*
X9801134Y-20264460D02*
X9791611Y-20254936D01*
X9791611Y-20254936D02*
X9782087Y-20235889D01*
X9782087Y-20235889D02*
X9782087Y-20178746D01*
X9782087Y-20178746D02*
X9791611Y-20159698D01*
X9791611Y-20159698D02*
X9801134Y-20150174D01*
X9801134Y-20150174D02*
X9820182Y-20140650D01*
X9820182Y-20140650D02*
X9848754Y-20140650D01*
X9848754Y-20140650D02*
X9867801Y-20150174D01*
X9867801Y-20150174D02*
X9877325Y-20159698D01*
X9877325Y-20159698D02*
X9886849Y-20178746D01*
X9886849Y-20178746D02*
X9886849Y-20235889D01*
X9886849Y-20235889D02*
X9877325Y-20254936D01*
X9877325Y-20254936D02*
X9867801Y-20264460D01*
X9867801Y-20264460D02*
X9848754Y-20273984D01*
X9848754Y-20273984D02*
X9820182Y-20273984D01*
X9943992Y-20140650D02*
X10020182Y-20140650D01*
X9972563Y-20073984D02*
X9972563Y-20245412D01*
X9972563Y-20245412D02*
X9982087Y-20264460D01*
X9982087Y-20264460D02*
X10001134Y-20273984D01*
X10001134Y-20273984D02*
X10020182Y-20273984D01*
X10239230Y-20140650D02*
X10239230Y-20340650D01*
X10239230Y-20150174D02*
X10258277Y-20140650D01*
X10258277Y-20140650D02*
X10296373Y-20140650D01*
X10296373Y-20140650D02*
X10315420Y-20150174D01*
X10315420Y-20150174D02*
X10324944Y-20159698D01*
X10324944Y-20159698D02*
X10334468Y-20178746D01*
X10334468Y-20178746D02*
X10334468Y-20235889D01*
X10334468Y-20235889D02*
X10324944Y-20254936D01*
X10324944Y-20254936D02*
X10315420Y-20264460D01*
X10315420Y-20264460D02*
X10296373Y-20273984D01*
X10296373Y-20273984D02*
X10258277Y-20273984D01*
X10258277Y-20273984D02*
X10239230Y-20264460D01*
X10448754Y-20273984D02*
X10429706Y-20264460D01*
X10429706Y-20264460D02*
X10420182Y-20245412D01*
X10420182Y-20245412D02*
X10420182Y-20073984D01*
X10610658Y-20273984D02*
X10610658Y-20169222D01*
X10610658Y-20169222D02*
X10601135Y-20150174D01*
X10601135Y-20150174D02*
X10582087Y-20140650D01*
X10582087Y-20140650D02*
X10543992Y-20140650D01*
X10543992Y-20140650D02*
X10524944Y-20150174D01*
X10610658Y-20264460D02*
X10591611Y-20273984D01*
X10591611Y-20273984D02*
X10543992Y-20273984D01*
X10543992Y-20273984D02*
X10524944Y-20264460D01*
X10524944Y-20264460D02*
X10515420Y-20245412D01*
X10515420Y-20245412D02*
X10515420Y-20226365D01*
X10515420Y-20226365D02*
X10524944Y-20207317D01*
X10524944Y-20207317D02*
X10543992Y-20197793D01*
X10543992Y-20197793D02*
X10591611Y-20197793D01*
X10591611Y-20197793D02*
X10610658Y-20188270D01*
X10677325Y-20140650D02*
X10753515Y-20140650D01*
X10705896Y-20073984D02*
X10705896Y-20245412D01*
X10705896Y-20245412D02*
X10715420Y-20264460D01*
X10715420Y-20264460D02*
X10734468Y-20273984D01*
X10734468Y-20273984D02*
X10753515Y-20273984D01*
X10896373Y-20264460D02*
X10877325Y-20273984D01*
X10877325Y-20273984D02*
X10839230Y-20273984D01*
X10839230Y-20273984D02*
X10820182Y-20264460D01*
X10820182Y-20264460D02*
X10810658Y-20245412D01*
X10810658Y-20245412D02*
X10810658Y-20169222D01*
X10810658Y-20169222D02*
X10820182Y-20150174D01*
X10820182Y-20150174D02*
X10839230Y-20140650D01*
X10839230Y-20140650D02*
X10877325Y-20140650D01*
X10877325Y-20140650D02*
X10896373Y-20150174D01*
X10896373Y-20150174D02*
X10905896Y-20169222D01*
X10905896Y-20169222D02*
X10905896Y-20188270D01*
X10905896Y-20188270D02*
X10810658Y-20207317D01*
X11077325Y-20273984D02*
X11077325Y-20073984D01*
X11077325Y-20264460D02*
X11058277Y-20273984D01*
X11058277Y-20273984D02*
X11020182Y-20273984D01*
X11020182Y-20273984D02*
X11001135Y-20264460D01*
X11001135Y-20264460D02*
X10991611Y-20254936D01*
X10991611Y-20254936D02*
X10982087Y-20235889D01*
X10982087Y-20235889D02*
X10982087Y-20178746D01*
X10982087Y-20178746D02*
X10991611Y-20159698D01*
X10991611Y-20159698D02*
X11001135Y-20150174D01*
X11001135Y-20150174D02*
X11020182Y-20140650D01*
X11020182Y-20140650D02*
X11058277Y-20140650D01*
X11058277Y-20140650D02*
X11077325Y-20150174D01*
X11153516Y-20350174D02*
X11163039Y-20340650D01*
X11163039Y-20340650D02*
X11182087Y-20312079D01*
X11182087Y-20312079D02*
X11191611Y-20293031D01*
X11191611Y-20293031D02*
X11201134Y-20264460D01*
X11201134Y-20264460D02*
X11210658Y-20216841D01*
X11210658Y-20216841D02*
X11210658Y-20178746D01*
X11210658Y-20178746D02*
X11201134Y-20131127D01*
X11201134Y-20131127D02*
X11191611Y-20102555D01*
X11191611Y-20102555D02*
X11182087Y-20083508D01*
X11182087Y-20083508D02*
X11163039Y-20054936D01*
X11163039Y-20054936D02*
X11153516Y-20045412D01*
M02*
